<?xml version="1.0" encoding="UTF-8"?>
<svg width="51px" height="47px" viewBox="0 0 51 47" version="1.1" xmlns="http://www.w3.org/2000/svg" xmlns:xlink="http://www.w3.org/1999/xlink">
    <!-- Generator: Sketch 52.6 (67491) - http://www.bohemiancoding.com/sketch -->
    <title>feature-list</title>
    <desc>Created with Sketch.</desc>
    <g id="SAFe" stroke="none" stroke-width="1" fill="none" fill-rule="evenodd">
        <g id="线路图-2" transform="translate(-304.000000, -257.000000)">
            <g id="分组" transform="translate(274.000000, 179.000000)">
                <g id="分组-2" transform="translate(15.000000, 50.000000)">
                    <g id="feature-list" transform="translate(15.000000, 28.000000)">
                        <rect id="Rectangle-8" fill="#E8EAF4" x="0" y="4.57317073" width="38.2247191" height="40.2439024" rx="1.82022472"></rect>
                        <rect id="Rectangle-8-Copy-4" fill="#F2F4FD" x="3.03370787" y="7.62195122" width="32.1573034" height="34.1463415" rx="0.606741573"></rect>
                        <path d="M15.7752809,3.35365854 C15.7752809,1.50148407 17.2693419,0 19.1123596,0 C20.9553772,0 22.4494382,1.50148407 22.4494382,3.35365854 L26.0898876,3.35365854 L26.0898876,7.62195122 L12.1348315,7.62195122 L12.1348315,3.35365854 L15.7752809,3.35365854 Z M19.1123596,4.57317073 C19.7825478,4.57317073 20.3258427,4.02717652 20.3258427,3.35365854 C20.3258427,2.68014055 19.7825478,2.13414634 19.1123596,2.13414634 C18.4421713,2.13414634 17.8988764,2.68014055 17.8988764,3.35365854 C17.8988764,4.02717652 18.4421713,4.57317073 19.1123596,4.57317073 Z" id="合并形状" fill="#CFD5F1"></path>
                        <rect id="Rectangle-3" fill="#DEE0ED" x="16.988764" y="13.7195122" width="14.5617978" height="1.2195122" rx="0.606741573"></rect>
                        <rect id="Rectangle-3-Copy-4" fill="#DEE0ED" x="16.988764" y="23.1707317" width="14.5617978" height="1.2195122" rx="0.606741573"></rect>
                        <rect id="Rectangle-3-Copy" fill="#DEE0ED" x="16.988764" y="16.1585366" width="9.70786517" height="1.2195122" rx="0.606741573"></rect>
                        <rect id="Rectangle-3-Copy-5" fill="#DEE0ED" x="16.988764" y="25.6097561" width="9.70786517" height="1.2195122" rx="0.606741573"></rect>
                        <g id="Group-4" transform="translate(6.067416, 30.487805)">
                            <rect id="Rectangle-2" fill="#6776C4" x="0" y="0" width="37.011236" height="8.53658537" rx="0.606741573"></rect>
                            <ellipse id="Oval-2-Copy-2" fill="#FFBA1C" cx="8.19101124" cy="4.26829268" rx="2.73033708" ry="2.74390244"></ellipse>
                            <rect id="Rectangle-9-Copy-7" fill="#FFFFFF" x="13.9550562" y="2.43902439" width="16.3820225" height="1.2195122" rx="0.609756098"></rect>
                            <rect id="Rectangle-9-Copy-8" fill="#FFFFFF" x="13.9550562" y="4.87804878" width="9.70786517" height="1.2195122" rx="0.609756098"></rect>
                        </g>
                        <path d="M46.5332579,41.8973482 L46.5332579,46.3526828 C46.5332579,46.6877769 46.2616105,46.9594244 45.9265163,46.9594244 L41.7639946,46.9594244 C41.4289005,46.9594244 41.1572531,46.6877769 41.1572531,46.3526828 L41.1572531,41.8973482 L37.6155623,41.8973482 C37.4811132,41.8973482 37.3504721,41.8526912 37.2441558,41.7703905 C36.9791785,41.5652683 36.9306563,41.1841774 37.1357785,40.9192001 L43.3654717,32.8716681 C43.396871,32.8311064 43.4332872,32.7946901 43.4738489,32.7632908 C43.7388262,32.5581686 44.1199171,32.6066908 44.3250393,32.8716681 L50.5547325,40.9192001 C50.6370332,41.0255164 50.6816902,41.1561575 50.6816902,41.2906066 C50.6816902,41.6257007 50.4100428,41.8973482 50.0749486,41.8973482 L46.5332579,41.8973482 Z" id="Combined-Shape" fill="#2A2E76" transform="translate(43.845243, 39.794790) rotate(-45.000000) translate(-43.845243, -39.794790) "></path>
                        <ellipse id="椭圆形" fill="#CFD5F1" cx="10.011236" cy="15.5487805" rx="2.73033708" ry="2.74390244"></ellipse>
                        <ellipse id="椭圆形-copy" fill="#CFD5F1" cx="10.011236" cy="25" rx="2.73033708" ry="2.74390244"></ellipse>
                    </g>
                </g>
            </g>
        </g>
    </g>
</svg>