<svg xmlns="http://www.w3.org/2000/svg" xmlns:xlink="http://www.w3.org/1999/xlink" version="1.1" width="1063" height="1063" style="" xml:space="preserve"><rect id="backgroundrect" width="100%" height="100%" x="0" y="0" fill="none" stroke="none" style="" class=""/>
















<g class="currentLayer" style=""><title>Layer 1</title><rect fill="#ffffff" stroke="#ffffff" stroke-width="0" stroke-dashoffset="" fill-rule="nonzero" id="svg_18" x="309.05882358551025" y="165.05882453918457" width="468" height="731" style="color: rgb(36, 234, 14);" class="selected"/><g id="svg_1" class="" fill="#484848" fill-opacity="1" stroke="#ffffff" stroke-opacity="1" stroke-width="0">
	<path d="M50,531.5 C50,797.4 265.6,1013 531.5,1013 C797.4,1013 1013,797.4 1013,531.5 C1013,265.6 797.4,50 531.5,50 C265.5,50 50,265.6 50,531.5 zM741.601,593.3 L528.2,826.601 C510.4,846 486.101,855.8 461.8,855.8 c-21.699,0 -43.5,-7.8 -60.699,-23.6 c-36.7,-33.6 -39.2,-90.5 -5.601,-127.2 l157.8,-172.399 L390.601,355.3 c-33.601,-36.6 -31.101,-93.6 5.5,-127.2 c36.6,-33.6 93.6,-31.1 127.199,5.5 l218.2,238.1 C773,506.101 773.101,558.9 741.601,593.3 z" fill="#484848" id="svg_2" fill-opacity="1" stroke="#ffffff" stroke-opacity="1" stroke-width="0"/>
</g><g id="svg_3" class="">
</g><g id="svg_4" class="">
</g><g id="svg_5" class="">
</g><g id="svg_6" class="">
</g><g id="svg_7" class="">
</g><g id="svg_8" class="">
</g><g id="svg_9" class="">
</g><g id="svg_10" class="">
</g><g id="svg_11" class="">
</g><g id="svg_12" class="">
</g><g id="svg_13" class="">
</g><g id="svg_14" class="">
</g><g id="svg_15" class="">
</g><g id="svg_16" class="">
</g><g id="svg_17" class="">
</g></g></svg>