<?xml version="1.0" encoding="UTF-8"?>
<svg width="167px" height="154px" viewBox="0 0 167 154" version="1.1" xmlns="http://www.w3.org/2000/svg" xmlns:xlink="http://www.w3.org/1999/xlink">
    <!-- Generator: Sketch 51 (57462) - http://www.bohemiancoding.com/sketch -->
    <title>create-sprint</title>
    <desc>Created with Sketch.</desc>
    <defs></defs>
    <g id="空界面" stroke="none" stroke-width="1" fill="none" fill-rule="evenodd">
        <g id="Artboard-2" transform="translate(-16.000000, -23.000000)">
            <g id="create-sprint" transform="translate(16.000000, 23.000000)">
                <path d="M20,34.0470302 L20,28 C20,22.4771525 15.5228475,18 10,18 L20,18 L123,18 C131.284271,18 138,24.7157288 138,33 L138,124 L20,124 L20,34.0470302 Z" id="Combined-Shape" fill="#F2F4FD"></path>
                <path d="M10,18 L10,18 C15.5228475,18 20,22.4771525 20,28 L20,48 L0,48 L0,28 C-6.76353751e-16,22.4771525 4.4771525,18 10,18 Z" id="Rectangle-5" fill="#DEE0ED"></path>
                <rect id="Rectangle-14" fill="#CFD5F1" x="35" y="33" width="30" height="30" rx="15"></rect>
                <rect id="Rectangle-14-Copy-4" fill="#E8EAF4" x="75" y="33" width="48" height="30" rx="2"></rect>
                <rect id="Rectangle-14-Copy-7" fill="#E8EAF4" x="75" y="71" width="48" height="24" rx="2"></rect>
                <rect id="Rectangle-14-Copy-8" fill="#E8EAF4" x="75" y="103" width="48" height="24" rx="2"></rect>
                <path d="M20,124 L50,124 L50,139 C50,147.284271 43.2842712,154 35,154 L35,154 C26.7157288,154 20,147.284271 20,139 L20,124 Z" id="Rectangle-5-Copy" fill="#F2F4FD"></path>
                <rect id="Rectangle-14-Copy" fill="#DEE0ED" x="35" y="71" width="30" height="8" rx="4"></rect>
                <rect id="Rectangle-14-Copy-2" fill="#DEE0ED" x="35" y="87" width="30" height="8" rx="4"></rect>
                <rect id="Rectangle-14-Copy-5" fill="#E8EAF4" x="35" y="119" width="30" height="8" rx="4"></rect>
                <rect id="Rectangle-14-Copy-3" fill="#E8EAF4" x="35" y="103" width="30" height="8" rx="4"></rect>
                <rect id="Rectangle-14-Copy-6" fill="#E8EAF4" x="35" y="135" width="30" height="8" rx="4"></rect>
                <path d="M35,154 C43.2842712,154 50,147.284271 50,139 L50,136.60365 L50,124 L158,124 L158,139 C158,147.284271 151.284271,154 143,154 L50,154 L35,154 Z" id="Combined-Shape" fill="#DEE0ED"></path>
                <g id="Group-3" transform="translate(85.000000, 0.000000)">
                    <circle id="Oval-4" fill="#2A2E76" cx="41" cy="39" r="35"></circle>
                    <circle id="Oval-4" fill="#6776C4" cx="41" cy="39" r="31"></circle>
                    <path d="M41,39 C41,24.3433008 41,14.0099674 41,8 C23.8791728,8 10,21.8791728 10,39 C19.2527818,39 29.5861152,39 41,39 Z" id="Oval-4" fill="#FFBA1C"></path>
                    <path d="M36,0 L46,0 L50,8 L32,8 L36,0 Z M62.8812822,5.14428423 L70.5417266,11.5721603 L67.8208159,21.0377108 L54.0320159,9.46753378 L62.8812822,5.14428423 Z M79.5240692,27.1300341 L81.260551,36.9781117 L73.0918739,42.4801763 L69.9662067,24.7536367 L79.5240692,27.1300341 Z M78.1410162,54.669873 L73.1410162,63.330127 L63.3467875,62.2942286 L72.3467875,46.7057714 L78.1410162,54.669873 Z M59.3792688,74.8776041 L49.9823426,78.2978055 L43.1453909,71.2086525 L60.059858,65.05229 L59.3792688,74.8776041 Z M32.0176574,78.2978055 L22.6207312,74.8776041 L21.940142,65.05229 L38.8546091,71.2086525 L32.0176574,78.2978055 Z M8.85898385,63.330127 L3.85898385,54.669873 L9.65321248,46.7057714 L18.6532125,62.2942286 L8.85898385,63.330127 Z M0.739448991,36.9781117 L2.47593077,27.1300341 L12.0337933,24.7536367 L8.90812606,42.4801763 L0.739448991,36.9781117 Z M11.4582734,11.5721603 L19.1187178,5.14428423 L27.9679841,9.46753378 L14.1791841,21.0377108 L11.4582734,11.5721603 Z" id="Rectangle-6" fill="#2A2E76"></path>
                    <path d="M41,9 C41.5522847,9 42,9.44771525 42,10 L42,11 C42,11.5522847 41.5522847,12 41,12 C40.4477153,12 40,11.5522847 40,11 L40,10 C40,9.44771525 40.4477153,9 41,9 Z M56,13.0192379 C56.4782926,13.2953803 56.6421678,13.9069707 56.3660254,14.3852633 L55.8660254,15.2512887 C55.589883,15.7295813 54.9782926,15.8934565 54.5,15.6173141 C54.0217074,15.3411717 53.8578322,14.7295813 54.1339746,14.2512887 L54.6339746,13.3852633 C54.910117,12.9069707 55.5217074,12.7430955 56,13.0192379 Z M66.9807621,24 C67.2569045,24.4782926 67.0930293,25.089883 66.6147367,25.3660254 L65.7487113,25.8660254 C65.2704187,26.1421678 64.6588283,25.9782926 64.3826859,25.5 C64.1065435,25.0217074 64.2704187,24.410117 64.7487113,24.1339746 L65.6147367,23.6339746 C66.0930293,23.3578322 66.7046197,23.5217074 66.9807621,24 Z M71,39 C71,39.5522847 70.5522847,40 70,40 L69,40 C68.4477153,40 68,39.5522847 68,39 C68,38.4477153 68.4477153,38 69,38 L70,38 C70.5522847,38 71,38.4477153 71,39 Z M66.9807621,54 C66.7046197,54.4782926 66.0930293,54.6421678 65.6147367,54.3660254 L64.7487113,53.8660254 C64.2704187,53.589883 64.1065435,52.9782926 64.3826859,52.5 C64.6588283,52.0217074 65.2704187,51.8578322 65.7487113,52.1339746 L66.6147367,52.6339746 C67.0930293,52.910117 67.2569045,53.5217074 66.9807621,54 Z M56,64.9807621 C55.5217074,65.2569045 54.910117,65.0930293 54.6339746,64.6147367 L54.1339746,63.7487113 C53.8578322,63.2704187 54.0217074,62.6588283 54.5,62.3826859 C54.9782926,62.1065435 55.589883,62.2704187 55.8660254,62.7487113 L56.3660254,63.6147367 C56.6421678,64.0930293 56.4782926,64.7046197 56,64.9807621 Z M41,69 C40.4477153,69 40,68.5522847 40,68 L40,67 C40,66.4477153 40.4477153,66 41,66 C41.5522847,66 42,66.4477153 42,67 L42,68 C42,68.5522847 41.5522847,69 41,69 Z M26,64.9807621 C25.5217074,64.7046197 25.3578322,64.0930293 25.6339746,63.6147367 L26.1339746,62.7487113 C26.410117,62.2704187 27.0217074,62.1065435 27.5,62.3826859 C27.9782926,62.6588283 28.1421678,63.2704187 27.8660254,63.7487113 L27.3660254,64.6147367 C27.089883,65.0930293 26.4782926,65.2569045 26,64.9807621 Z M15.0192379,54 C14.7430955,53.5217074 14.9069707,52.910117 15.3852633,52.6339746 L16.2512887,52.1339746 C16.7295813,51.8578322 17.3411717,52.0217074 17.6173141,52.5 C17.8934565,52.9782926 17.7295813,53.589883 17.2512887,53.8660254 L16.3852633,54.3660254 C15.9069707,54.6421678 15.2953803,54.4782926 15.0192379,54 Z M11,39 C11,38.4477153 11.4477153,38 12,38 L13,38 C13.5522847,38 14,38.4477153 14,39 C14,39.5522847 13.5522847,40 13,40 L12,40 C11.4477153,40 11,39.5522847 11,39 Z M15.0192379,24 C15.2953803,23.5217074 15.9069707,23.3578322 16.3852633,23.6339746 L17.2512887,24.1339746 C17.7295813,24.410117 17.8934565,25.0217074 17.6173141,25.5 C17.3411717,25.9782926 16.7295813,26.1421678 16.2512887,25.8660254 L15.3852633,25.3660254 C14.9069707,25.089883 14.7430955,24.4782926 15.0192379,24 Z M26,13.0192379 C26.4782926,12.7430955 27.089883,12.9069707 27.3660254,13.3852633 L27.8660254,14.2512887 C28.1421678,14.7295813 27.9782926,15.3411717 27.5,15.6173141 C27.0217074,15.8934565 26.410117,15.7295813 26.1339746,15.2512887 L25.6339746,14.3852633 C25.3578322,13.9069707 25.5217074,13.2953803 26,13.0192379 Z" id="Path" fill="#FFFFFF"></path>
                    <rect id="Rectangle-10-Copy" fill="#2A2E76" x="40" y="14" width="2" height="25" rx="1"></rect>
                    <rect id="Rectangle-15" fill="#2A2E76" x="21" y="38" width="21" height="2" rx="1"></rect>
                    <circle id="Oval-5" fill="#2A2E76" cx="41" cy="39" r="3"></circle>
                </g>
            </g>
        </g>
    </g>
</svg>