<?xml version="1.0" encoding="UTF-8"?>
<svg width="184px" height="133px" viewBox="0 0 184 133" version="1.1" xmlns="http://www.w3.org/2000/svg" xmlns:xlink="http://www.w3.org/1999/xlink">
    <!-- Generator: Sketch 51 (57462) - http://www.bohemiancoding.com/sketch -->
    <title>chart</title>
    <desc>Created with Sketch.</desc>
    <defs>
        <path d="M2,0.105862977 L16,0.105862977 C17.1045695,0.105862977 18,1.00129348 18,2.10586298 L18,63.105863 L0,63.105863 L0,2.10586298 C-1.3527075e-16,1.00129348 0.8954305,0.105862977 2,0.105862977 Z" id="path-1"></path>
        <path d="M2,0.105862977 L16,0.105862977 C17.1045695,0.105862977 18,1.00129348 18,2.10586298 L18,48 L0,48 L0,2.10586298 C-1.3527075e-16,1.00129348 0.8954305,0.105862977 2,0.105862977 Z" id="path-3"></path>
        <path d="M2,0.105862977 L16,0.105862977 C17.1045695,0.105862977 18,1.00129348 18,2.10586298 L18,67 L0,67 L0,2.10586298 C-1.3527075e-16,1.00129348 0.8954305,0.105862977 2,0.105862977 Z" id="path-5"></path>
        <path d="M2,0.105862977 L16,0.105862977 C17.1045695,0.105862977 18,1.00129348 18,2.10586298 L18,81 L0,81 L0,2.10586298 C-1.3527075e-16,1.00129348 0.8954305,0.105862977 2,0.105862977 Z" id="path-7"></path>
        <path d="M2,0.105862977 L16,0.105862977 C17.1045695,0.105862977 18,1.00129348 18,2.10586298 L18,38 L0,38 L0,2.10586298 C-1.3527075e-16,1.00129348 0.8954305,0.105862977 2,0.105862977 Z" id="path-9"></path>
        <path d="M2,0.105862977 L16,0.105862977 C17.1045695,0.105862977 18,1.00129348 18,2.10586298 L18,92 L0,92 L0,2.10586298 C-1.3527075e-16,1.00129348 0.8954305,0.105862977 2,0.105862977 Z" id="path-11"></path>
        <circle id="path-13" cx="25" cy="25" r="25"></circle>
    </defs>
    <g id="空界面" stroke="none" stroke-width="1" fill="none" fill-rule="evenodd">
        <g id="Artboard-2" transform="translate(0.000000, -28.000000)">
            <g id="chart" transform="translate(0.000000, 28.000000)">
                <rect id="Rectangle-7-Copy-13" fill="#DEE0ED" x="0" y="0" width="184" height="132" rx="4"></rect>
                <path d="M0,24 L184,24 L184,128 C184,130.209139 182.209139,132 180,132 L4,132 C1.790861,132 2.705415e-16,130.209139 0,128 L0,24 Z" id="Rectangle-7-Copy-13" fill="#F2F4FD"></path>
                <g id="Group-8" transform="translate(11.000000, 69.000000)">
                    <mask id="mask-2" fill="white">
                        <use xlink:href="#path-1"></use>
                    </mask>
                    <use id="Mask" fill="#E8EAF4" xlink:href="#path-1"></use>
                    <g mask="url(#mask-2)" stroke="#DEE0ED" stroke-linecap="square">
                        <g transform="translate(18.771338, 25.771338) rotate(45.000000) translate(-18.771338, -25.771338) translate(-28.228662, -28.728662)">
                            <path d="M0.25,0.5 L0.25,108.5" id="Line-5"></path>
                            <path d="M48.25,0.5 L48.25,108.5" id="Line-5-Copy-16"></path>
                            <path d="M24.25,0.5 L24.25,108.5" id="Line-5-Copy-8"></path>
                            <path d="M72.25,0.5 L72.25,108.5" id="Line-5-Copy-17"></path>
                            <path d="M12.25,0.5 L12.25,108.5" id="Line-5-Copy-4"></path>
                            <path d="M60.25,0.5 L60.25,108.5" id="Line-5-Copy-18"></path>
                            <path d="M36.25,0.5 L36.25,108.5" id="Line-5-Copy-9"></path>
                            <path d="M84.25,0.5 L84.25,108.5" id="Line-5-Copy-19"></path>
                            <path d="M3.25,0.5 L3.25,108.5" id="Line-5-Copy"></path>
                            <path d="M51.25,0.5 L51.25,108.5" id="Line-5-Copy-20"></path>
                            <path d="M27.25,0.5 L27.25,108.5" id="Line-5-Copy-10"></path>
                            <path d="M75.25,0.5 L75.25,108.5" id="Line-5-Copy-21"></path>
                            <path d="M15.25,0.5 L15.25,108.5" id="Line-5-Copy-5"></path>
                            <path d="M63.25,0.5 L63.25,108.5" id="Line-5-Copy-22"></path>
                            <path d="M39.25,0.5 L39.25,108.5" id="Line-5-Copy-11"></path>
                            <path d="M87.25,0.5 L87.25,108.5" id="Line-5-Copy-23"></path>
                            <path d="M6.25,0.5 L6.25,108.5" id="Line-5-Copy-2"></path>
                            <path d="M54.25,0.5 L54.25,108.5" id="Line-5-Copy-24"></path>
                            <path d="M30.25,0.5 L30.25,108.5" id="Line-5-Copy-12"></path>
                            <path d="M78.25,0.5 L78.25,108.5" id="Line-5-Copy-25"></path>
                            <path d="M18.25,0.5 L18.25,108.5" id="Line-5-Copy-6"></path>
                            <path d="M66.25,0.5 L66.25,108.5" id="Line-5-Copy-26"></path>
                            <path d="M42.25,0.5 L42.25,108.5" id="Line-5-Copy-13"></path>
                            <path d="M90.25,0.5 L90.25,108.5" id="Line-5-Copy-27"></path>
                            <path d="M9.25,0.5 L9.25,108.5" id="Line-5-Copy-3"></path>
                            <path d="M57.25,0.5 L57.25,108.5" id="Line-5-Copy-28"></path>
                            <path d="M33.25,0.5 L33.25,108.5" id="Line-5-Copy-14"></path>
                            <path d="M81.25,0.5 L81.25,108.5" id="Line-5-Copy-29"></path>
                            <path d="M21.25,0.5 L21.25,108.5" id="Line-5-Copy-7"></path>
                            <path d="M69.25,0.5 L69.25,108.5" id="Line-5-Copy-30"></path>
                            <path d="M45.25,0.5 L45.25,108.5" id="Line-5-Copy-15"></path>
                            <path d="M93.25,0.5 L93.25,108.5" id="Line-5-Copy-31"></path>
                        </g>
                    </g>
                </g>
                <g id="Group-8-Copy-2" transform="translate(67.000000, 84.000000)">
                    <mask id="mask-4" fill="white">
                        <use xlink:href="#path-3"></use>
                    </mask>
                    <use id="Mask" fill="#E8EAF4" xlink:href="#path-3"></use>
                    <g id="Group-8" mask="url(#mask-4)" stroke="#DEE0ED" stroke-linecap="square">
                        <g transform="translate(18.771338, 26.771338) rotate(45.000000) translate(-18.771338, -26.771338) translate(-28.228662, -27.728662)">
                            <path d="M0.25,0.5 L0.25,108.5" id="Line-5"></path>
                            <path d="M48.25,0.5 L48.25,108.5" id="Line-5-Copy-16"></path>
                            <path d="M24.25,0.5 L24.25,108.5" id="Line-5-Copy-8"></path>
                            <path d="M72.25,0.5 L72.25,108.5" id="Line-5-Copy-17"></path>
                            <path d="M12.25,0.5 L12.25,108.5" id="Line-5-Copy-4"></path>
                            <path d="M60.25,0.5 L60.25,108.5" id="Line-5-Copy-18"></path>
                            <path d="M36.25,0.5 L36.25,108.5" id="Line-5-Copy-9"></path>
                            <path d="M84.25,0.5 L84.25,108.5" id="Line-5-Copy-19"></path>
                            <path d="M3.25,0.5 L3.25,108.5" id="Line-5-Copy"></path>
                            <path d="M51.25,0.5 L51.25,108.5" id="Line-5-Copy-20"></path>
                            <path d="M27.25,0.5 L27.25,108.5" id="Line-5-Copy-10"></path>
                            <path d="M75.25,0.5 L75.25,108.5" id="Line-5-Copy-21"></path>
                            <path d="M15.25,0.5 L15.25,108.5" id="Line-5-Copy-5"></path>
                            <path d="M63.25,0.5 L63.25,108.5" id="Line-5-Copy-22"></path>
                            <path d="M39.25,0.5 L39.25,108.5" id="Line-5-Copy-11"></path>
                            <path d="M87.25,0.5 L87.25,108.5" id="Line-5-Copy-23"></path>
                            <path d="M6.25,0.5 L6.25,108.5" id="Line-5-Copy-2"></path>
                            <path d="M54.25,0.5 L54.25,108.5" id="Line-5-Copy-24"></path>
                            <path d="M30.25,0.5 L30.25,108.5" id="Line-5-Copy-12"></path>
                            <path d="M78.25,0.5 L78.25,108.5" id="Line-5-Copy-25"></path>
                            <path d="M18.25,0.5 L18.25,108.5" id="Line-5-Copy-6"></path>
                            <path d="M66.25,0.5 L66.25,108.5" id="Line-5-Copy-26"></path>
                            <path d="M42.25,0.5 L42.25,108.5" id="Line-5-Copy-13"></path>
                            <path d="M90.25,0.5 L90.25,108.5" id="Line-5-Copy-27"></path>
                            <path d="M9.25,0.5 L9.25,108.5" id="Line-5-Copy-3"></path>
                            <path d="M57.25,0.5 L57.25,108.5" id="Line-5-Copy-28"></path>
                            <path d="M33.25,0.5 L33.25,108.5" id="Line-5-Copy-14"></path>
                            <path d="M81.25,0.5 L81.25,108.5" id="Line-5-Copy-29"></path>
                            <path d="M21.25,0.5 L21.25,108.5" id="Line-5-Copy-7"></path>
                            <path d="M69.25,0.5 L69.25,108.5" id="Line-5-Copy-30"></path>
                            <path d="M45.25,0.5 L45.25,108.5" id="Line-5-Copy-15"></path>
                            <path d="M93.25,0.5 L93.25,108.5" id="Line-5-Copy-31"></path>
                        </g>
                    </g>
                </g>
                <g id="Group-8-Copy-3" transform="translate(95.000000, 65.000000)">
                    <mask id="mask-6" fill="white">
                        <use xlink:href="#path-5"></use>
                    </mask>
                    <use id="Mask" fill="#E8EAF4" xlink:href="#path-5"></use>
                    <g id="Group-8" mask="url(#mask-6)" stroke="#DEE0ED" stroke-linecap="square">
                        <g transform="translate(18.771338, 26.771338) rotate(45.000000) translate(-18.771338, -26.771338) translate(-28.228662, -27.728662)">
                            <path d="M0.25,0.5 L0.25,108.5" id="Line-5"></path>
                            <path d="M48.25,0.5 L48.25,108.5" id="Line-5-Copy-16"></path>
                            <path d="M24.25,0.5 L24.25,108.5" id="Line-5-Copy-8"></path>
                            <path d="M72.25,0.5 L72.25,108.5" id="Line-5-Copy-17"></path>
                            <path d="M12.25,0.5 L12.25,108.5" id="Line-5-Copy-4"></path>
                            <path d="M60.25,0.5 L60.25,108.5" id="Line-5-Copy-18"></path>
                            <path d="M36.25,0.5 L36.25,108.5" id="Line-5-Copy-9"></path>
                            <path d="M84.25,0.5 L84.25,108.5" id="Line-5-Copy-19"></path>
                            <path d="M3.25,0.5 L3.25,108.5" id="Line-5-Copy"></path>
                            <path d="M51.25,0.5 L51.25,108.5" id="Line-5-Copy-20"></path>
                            <path d="M27.25,0.5 L27.25,108.5" id="Line-5-Copy-10"></path>
                            <path d="M75.25,0.5 L75.25,108.5" id="Line-5-Copy-21"></path>
                            <path d="M15.25,0.5 L15.25,108.5" id="Line-5-Copy-5"></path>
                            <path d="M63.25,0.5 L63.25,108.5" id="Line-5-Copy-22"></path>
                            <path d="M39.25,0.5 L39.25,108.5" id="Line-5-Copy-11"></path>
                            <path d="M87.25,0.5 L87.25,108.5" id="Line-5-Copy-23"></path>
                            <path d="M6.25,0.5 L6.25,108.5" id="Line-5-Copy-2"></path>
                            <path d="M54.25,0.5 L54.25,108.5" id="Line-5-Copy-24"></path>
                            <path d="M30.25,0.5 L30.25,108.5" id="Line-5-Copy-12"></path>
                            <path d="M78.25,0.5 L78.25,108.5" id="Line-5-Copy-25"></path>
                            <path d="M18.25,0.5 L18.25,108.5" id="Line-5-Copy-6"></path>
                            <path d="M66.25,0.5 L66.25,108.5" id="Line-5-Copy-26"></path>
                            <path d="M42.25,0.5 L42.25,108.5" id="Line-5-Copy-13"></path>
                            <path d="M90.25,0.5 L90.25,108.5" id="Line-5-Copy-27"></path>
                            <path d="M9.25,0.5 L9.25,108.5" id="Line-5-Copy-3"></path>
                            <path d="M57.25,0.5 L57.25,108.5" id="Line-5-Copy-28"></path>
                            <path d="M33.25,0.5 L33.25,108.5" id="Line-5-Copy-14"></path>
                            <path d="M81.25,0.5 L81.25,108.5" id="Line-5-Copy-29"></path>
                            <path d="M21.25,0.5 L21.25,108.5" id="Line-5-Copy-7"></path>
                            <path d="M69.25,0.5 L69.25,108.5" id="Line-5-Copy-30"></path>
                            <path d="M45.25,0.5 L45.25,108.5" id="Line-5-Copy-15"></path>
                            <path d="M93.25,0.5 L93.25,108.5" id="Line-5-Copy-31"></path>
                        </g>
                    </g>
                </g>
                <g id="Group-8-Copy-4" transform="translate(123.000000, 51.000000)">
                    <mask id="mask-8" fill="white">
                        <use xlink:href="#path-7"></use>
                    </mask>
                    <use id="Mask" fill="#E8EAF4" xlink:href="#path-7"></use>
                    <g id="Group-8" mask="url(#mask-8)" stroke="#DEE0ED" stroke-linecap="square">
                        <g transform="translate(18.771338, 26.771338) rotate(45.000000) translate(-18.771338, -26.771338) translate(-28.228662, -27.728662)">
                            <path d="M0.25,0.5 L0.25,108.5" id="Line-5"></path>
                            <path d="M48.25,0.5 L48.25,108.5" id="Line-5-Copy-16"></path>
                            <path d="M24.25,0.5 L24.25,108.5" id="Line-5-Copy-8"></path>
                            <path d="M72.25,0.5 L72.25,108.5" id="Line-5-Copy-17"></path>
                            <path d="M12.25,0.5 L12.25,108.5" id="Line-5-Copy-4"></path>
                            <path d="M60.25,0.5 L60.25,108.5" id="Line-5-Copy-18"></path>
                            <path d="M36.25,0.5 L36.25,108.5" id="Line-5-Copy-9"></path>
                            <path d="M84.25,0.5 L84.25,108.5" id="Line-5-Copy-19"></path>
                            <path d="M3.25,0.5 L3.25,108.5" id="Line-5-Copy"></path>
                            <path d="M51.25,0.5 L51.25,108.5" id="Line-5-Copy-20"></path>
                            <path d="M27.25,0.5 L27.25,108.5" id="Line-5-Copy-10"></path>
                            <path d="M75.25,0.5 L75.25,108.5" id="Line-5-Copy-21"></path>
                            <path d="M15.25,0.5 L15.25,108.5" id="Line-5-Copy-5"></path>
                            <path d="M63.25,0.5 L63.25,108.5" id="Line-5-Copy-22"></path>
                            <path d="M39.25,0.5 L39.25,108.5" id="Line-5-Copy-11"></path>
                            <path d="M87.25,0.5 L87.25,108.5" id="Line-5-Copy-23"></path>
                            <path d="M6.25,0.5 L6.25,108.5" id="Line-5-Copy-2"></path>
                            <path d="M54.25,0.5 L54.25,108.5" id="Line-5-Copy-24"></path>
                            <path d="M30.25,0.5 L30.25,108.5" id="Line-5-Copy-12"></path>
                            <path d="M78.25,0.5 L78.25,108.5" id="Line-5-Copy-25"></path>
                            <path d="M18.25,0.5 L18.25,108.5" id="Line-5-Copy-6"></path>
                            <path d="M66.25,0.5 L66.25,108.5" id="Line-5-Copy-26"></path>
                            <path d="M42.25,0.5 L42.25,108.5" id="Line-5-Copy-13"></path>
                            <path d="M90.25,0.5 L90.25,108.5" id="Line-5-Copy-27"></path>
                            <path d="M9.25,0.5 L9.25,108.5" id="Line-5-Copy-3"></path>
                            <path d="M57.25,0.5 L57.25,108.5" id="Line-5-Copy-28"></path>
                            <path d="M33.25,0.5 L33.25,108.5" id="Line-5-Copy-14"></path>
                            <path d="M81.25,0.5 L81.25,108.5" id="Line-5-Copy-29"></path>
                            <path d="M21.25,0.5 L21.25,108.5" id="Line-5-Copy-7"></path>
                            <path d="M69.25,0.5 L69.25,108.5" id="Line-5-Copy-30"></path>
                            <path d="M45.25,0.5 L45.25,108.5" id="Line-5-Copy-15"></path>
                            <path d="M93.25,0.5 L93.25,108.5" id="Line-5-Copy-31"></path>
                        </g>
                    </g>
                </g>
                <g id="Group-8-Copy-5" transform="translate(155.000000, 94.000000)">
                    <mask id="mask-10" fill="white">
                        <use xlink:href="#path-9"></use>
                    </mask>
                    <use id="Mask" fill="#E8EAF4" xlink:href="#path-9"></use>
                    <g id="Group-8" mask="url(#mask-10)" stroke="#DEE0ED" stroke-linecap="square">
                        <g transform="translate(18.771338, 26.771338) rotate(45.000000) translate(-18.771338, -26.771338) translate(-28.228662, -27.728662)">
                            <path d="M0.25,0.5 L0.25,108.5" id="Line-5"></path>
                            <path d="M48.25,0.5 L48.25,108.5" id="Line-5-Copy-16"></path>
                            <path d="M24.25,0.5 L24.25,108.5" id="Line-5-Copy-8"></path>
                            <path d="M72.25,0.5 L72.25,108.5" id="Line-5-Copy-17"></path>
                            <path d="M12.25,0.5 L12.25,108.5" id="Line-5-Copy-4"></path>
                            <path d="M60.25,0.5 L60.25,108.5" id="Line-5-Copy-18"></path>
                            <path d="M36.25,0.5 L36.25,108.5" id="Line-5-Copy-9"></path>
                            <path d="M84.25,0.5 L84.25,108.5" id="Line-5-Copy-19"></path>
                            <path d="M3.25,0.5 L3.25,108.5" id="Line-5-Copy"></path>
                            <path d="M51.25,0.5 L51.25,108.5" id="Line-5-Copy-20"></path>
                            <path d="M27.25,0.5 L27.25,108.5" id="Line-5-Copy-10"></path>
                            <path d="M75.25,0.5 L75.25,108.5" id="Line-5-Copy-21"></path>
                            <path d="M15.25,0.5 L15.25,108.5" id="Line-5-Copy-5"></path>
                            <path d="M63.25,0.5 L63.25,108.5" id="Line-5-Copy-22"></path>
                            <path d="M39.25,0.5 L39.25,108.5" id="Line-5-Copy-11"></path>
                            <path d="M87.25,0.5 L87.25,108.5" id="Line-5-Copy-23"></path>
                            <path d="M6.25,0.5 L6.25,108.5" id="Line-5-Copy-2"></path>
                            <path d="M54.25,0.5 L54.25,108.5" id="Line-5-Copy-24"></path>
                            <path d="M30.25,0.5 L30.25,108.5" id="Line-5-Copy-12"></path>
                            <path d="M78.25,0.5 L78.25,108.5" id="Line-5-Copy-25"></path>
                            <path d="M18.25,0.5 L18.25,108.5" id="Line-5-Copy-6"></path>
                            <path d="M66.25,0.5 L66.25,108.5" id="Line-5-Copy-26"></path>
                            <path d="M42.25,0.5 L42.25,108.5" id="Line-5-Copy-13"></path>
                            <path d="M90.25,0.5 L90.25,108.5" id="Line-5-Copy-27"></path>
                            <path d="M9.25,0.5 L9.25,108.5" id="Line-5-Copy-3"></path>
                            <path d="M57.25,0.5 L57.25,108.5" id="Line-5-Copy-28"></path>
                            <path d="M33.25,0.5 L33.25,108.5" id="Line-5-Copy-14"></path>
                            <path d="M81.25,0.5 L81.25,108.5" id="Line-5-Copy-29"></path>
                            <path d="M21.25,0.5 L21.25,108.5" id="Line-5-Copy-7"></path>
                            <path d="M69.25,0.5 L69.25,108.5" id="Line-5-Copy-30"></path>
                            <path d="M45.25,0.5 L45.25,108.5" id="Line-5-Copy-15"></path>
                            <path d="M93.25,0.5 L93.25,108.5" id="Line-5-Copy-31"></path>
                        </g>
                    </g>
                </g>
                <g id="Group-8-Copy" transform="translate(39.000000, 40.000000)">
                    <mask id="mask-12" fill="white">
                        <use xlink:href="#path-11"></use>
                    </mask>
                    <use id="Mask" fill="#E8EAF4" xlink:href="#path-11"></use>
                    <g id="Group-8" mask="url(#mask-12)" stroke="#DEE0ED" stroke-linecap="square">
                        <g transform="translate(8.771338, 46.771338) rotate(45.000000) translate(-8.771338, -46.771338) translate(-38.228662, -7.728662)">
                            <path d="M0.25,0.5 L0.25,108.5" id="Line-5"></path>
                            <path d="M48.25,0.5 L48.25,108.5" id="Line-5-Copy-16"></path>
                            <path d="M24.25,0.5 L24.25,108.5" id="Line-5-Copy-8"></path>
                            <path d="M72.25,0.5 L72.25,108.5" id="Line-5-Copy-17"></path>
                            <path d="M12.25,0.5 L12.25,108.5" id="Line-5-Copy-4"></path>
                            <path d="M60.25,0.5 L60.25,108.5" id="Line-5-Copy-18"></path>
                            <path d="M36.25,0.5 L36.25,108.5" id="Line-5-Copy-9"></path>
                            <path d="M84.25,0.5 L84.25,108.5" id="Line-5-Copy-19"></path>
                            <path d="M3.25,0.5 L3.25,108.5" id="Line-5-Copy"></path>
                            <path d="M51.25,0.5 L51.25,108.5" id="Line-5-Copy-20"></path>
                            <path d="M27.25,0.5 L27.25,108.5" id="Line-5-Copy-10"></path>
                            <path d="M75.25,0.5 L75.25,108.5" id="Line-5-Copy-21"></path>
                            <path d="M15.25,0.5 L15.25,108.5" id="Line-5-Copy-5"></path>
                            <path d="M63.25,0.5 L63.25,108.5" id="Line-5-Copy-22"></path>
                            <path d="M39.25,0.5 L39.25,108.5" id="Line-5-Copy-11"></path>
                            <path d="M87.25,0.5 L87.25,108.5" id="Line-5-Copy-23"></path>
                            <path d="M6.25,0.5 L6.25,108.5" id="Line-5-Copy-2"></path>
                            <path d="M54.25,0.5 L54.25,108.5" id="Line-5-Copy-24"></path>
                            <path d="M30.25,0.5 L30.25,108.5" id="Line-5-Copy-12"></path>
                            <path d="M78.25,0.5 L78.25,108.5" id="Line-5-Copy-25"></path>
                            <path d="M18.25,0.5 L18.25,108.5" id="Line-5-Copy-6"></path>
                            <path d="M66.25,0.5 L66.25,108.5" id="Line-5-Copy-26"></path>
                            <path d="M42.25,0.5 L42.25,108.5" id="Line-5-Copy-13"></path>
                            <path d="M90.25,0.5 L90.25,108.5" id="Line-5-Copy-27"></path>
                            <path d="M9.25,0.5 L9.25,108.5" id="Line-5-Copy-3"></path>
                            <path d="M57.25,0.5 L57.25,108.5" id="Line-5-Copy-28"></path>
                            <path d="M33.25,0.5 L33.25,108.5" id="Line-5-Copy-14"></path>
                            <path d="M81.25,0.5 L81.25,108.5" id="Line-5-Copy-29"></path>
                            <path d="M21.25,0.5 L21.25,108.5" id="Line-5-Copy-7"></path>
                            <path d="M69.25,0.5 L69.25,108.5" id="Line-5-Copy-30"></path>
                            <path d="M45.25,0.5 L45.25,108.5" id="Line-5-Copy-15"></path>
                            <path d="M93.25,0.5 L93.25,108.5" id="Line-5-Copy-31"></path>
                        </g>
                    </g>
                </g>
                <polyline id="Path-5" stroke="#CFD5F1" stroke-width="2" points="20 97 48.2693088 61.7946265 76.2789662 97 104.04713 47.7090427 132.423567 72.3545214 164 38"></polyline>
                <circle id="Oval-10" fill="#6776C4" cx="20" cy="97" r="7"></circle>
                <circle id="Oval-10-Copy-2" fill="#6776C4" cx="48" cy="62" r="7"></circle>
                <circle id="Oval-10-Copy-3" fill="#6776C4" cx="76" cy="97" r="7"></circle>
                <circle id="Oval-10-Copy-4" fill="#6776C4" cx="104" cy="48" r="7"></circle>
                <circle id="Oval-10-Copy-5" fill="#6776C4" cx="132" cy="72" r="7"></circle>
                <circle id="Oval-10-Copy-6" fill="#6776C4" cx="164" cy="38" r="7"></circle>
                <rect id="Rectangle-21-Copy-14" fill="#F9FAFF" x="8" y="9" width="8" height="8" rx="4"></rect>
                <rect id="Rectangle-21-Copy-19" fill="#F9FAFF" x="22" y="9" width="8" height="8" rx="4"></rect>
                <rect id="Rectangle-21-Copy-18" fill="#F9FAFF" x="36" y="9" width="48" height="8" rx="4"></rect>
                <g id="Group-9-Copy" transform="translate(73.000000, 17.000000)">
                    <g id="Group-7" transform="translate(63.286057, 63.286057) rotate(-45.000000) translate(-63.286057, -63.286057) translate(29.286057, 7.786057)">
                        <rect id="Rectangle-25" fill="#6776C4" x="31" y="66" width="6" height="12"></rect>
                        <rect id="Rectangle-25-Copy" fill="#2A2E76" x="27" y="77" width="14" height="34" rx="2"></rect>
                        <circle id="Oval-11" fill="#3D42A3" cx="34" cy="34" r="34"></circle>
                        <circle id="Oval-11" fill="#FFBA1C" cx="34" cy="34" r="25"></circle>
                    </g>
                    <g id="189" transform="translate(23.000000, 23.026912)">
                        <mask id="mask-14" fill="white">
                            <use xlink:href="#path-13"></use>
                        </mask>
                        <use id="Mask" fill="#FFBA1C" xlink:href="#path-13"></use>
                        <path d="M7.56,16.728 L28.2,16.728 L28.2,21.336 L11.784,21.336 L10.776,31.224 L10.92,31.224 C11.976,30.12 13.176,29.352 14.568,28.872 C15.816,28.344 17.256,28.104 18.792,28.104 C22.008,28.104 24.648,29.16 26.664,31.272 C28.68,33.384 29.736,36.264 29.736,39.96 C29.736,43.512 28.392,46.392 25.8,48.648 C23.352,50.664 20.424,51.672 17.016,51.672 C13.944,51.672 11.304,50.808 9.096,49.128 C6.648,47.304 5.304,44.76 5.064,41.592 L10.2,41.592 C10.392,43.512 11.16,45 12.456,45.96 C13.608,46.824 15.144,47.256 17.064,47.256 C19.176,47.256 20.952,46.584 22.392,45.288 C23.832,43.944 24.552,42.216 24.552,40.008 C24.552,37.608 23.928,35.736 22.68,34.392 C21.432,33.048 19.704,32.376 17.4,32.376 C15.864,32.376 14.568,32.616 13.416,33.192 C12.168,33.768 11.256,34.68 10.584,35.928 L5.688,35.928 L7.56,16.728 Z M46.68,16.056 C53.304,16.056 57.096,19.128 57.96,25.368 L52.872,25.368 C52.152,22.008 50.088,20.376 46.632,20.376 C44.232,20.376 42.36,21.528 40.968,23.88 C39.576,26.088 38.904,28.824 38.904,32.184 C38.904,32.328 38.904,32.52 38.952,32.808 L39.144,32.808 C40.104,31.272 41.304,30.168 42.792,29.448 C44.136,28.728 45.72,28.392 47.544,28.392 C50.904,28.392 53.592,29.448 55.608,31.56 C57.576,33.72 58.584,36.504 58.584,39.864 C58.584,43.272 57.432,46.104 55.176,48.312 C52.872,50.52 49.992,51.672 46.632,51.672 C42.408,51.672 39.24,50.136 37.032,47.064 C34.92,44.136 33.864,40.056 33.864,34.824 C33.864,29.256 34.968,24.744 37.272,21.288 C39.576,17.784 42.744,16.056 46.68,16.056 Z M46.488,32.616 C44.328,32.616 42.648,33.288 41.4,34.632 C40.152,35.976 39.528,37.752 39.528,40.008 C39.528,42.216 40.152,43.992 41.448,45.336 C42.696,46.68 44.376,47.352 46.44,47.352 C48.552,47.352 50.232,46.632 51.48,45.24 C52.776,43.8 53.448,42.024 53.448,39.864 C53.448,37.656 52.824,35.88 51.576,34.632 C50.328,33.288 48.6,32.616 46.488,32.616 Z" id="56" fill="#FFFFFF" mask="url(#mask-14)"></path>
                    </g>
                </g>
            </g>
        </g>
    </g>
</svg>