<?xml version="1.0" encoding="UTF-8" standalone="no"?>
<svg width="200px" height="223px" viewBox="0 0 200 223" version="1.1" xmlns="http://www.w3.org/2000/svg" xmlns:xlink="http://www.w3.org/1999/xlink">
    <!-- Generator: Sketch 49 (51002) - http://www.bohemiancoding.com/sketch -->
    <title>Page 1</title>
    <desc>Created with Sketch.</desc>
    <defs>
        <polygon id="path-1" points="0 222.216 200 222.216 200 0 0 0"></polygon>
        <polygon id="path-3" points="0.498 0.095 52.112 0.095 52.112 55.6372293 0.498 55.6372293"></polygon>
    </defs>
    <g id="空界面" stroke="none" stroke-width="1" fill="none" fill-rule="evenodd">
        <g id="报告－燃尽图为空" transform="translate(-626.000000, -290.000000)">
            <g id="Group-8" transform="translate(274.000000, 132.000000)">
                <g id="Page-1" transform="translate(352.000000, 158.000000)">
                    <path d="M200,122.216 C200,177.445 155.229,222.216 100,222.216 C44.771,222.216 0,177.445 0,122.216 C0,66.987 44.771,22.216 100,22.216 C155.229,22.216 200,66.987 200,122.216" id="Fill-1" fill="#5B90F5"></path>
                    <g id="Group-5">
                        <mask id="mask-2" fill="white">
                            <use xlink:href="#path-1"></use>
                        </mask>
                        <g id="Clip-4"></g>
                        <polygon id="Fill-3" fill="#929497" mask="url(#mask-2)" points="50.563 151.882 111.051 151.882 111.051 150.02 50.563 150.02"></polygon>
                        <polygon id="Fill-5" fill="#929497" mask="url(#mask-2)" points="50.563 155.275 111.051 155.275 111.051 153.413 50.563 153.413"></polygon>
                        <polygon id="Fill-6" fill="#929497" mask="url(#mask-2)" points="50.563 158.667 111.051 158.667 111.051 156.805 50.563 156.805"></polygon>
                        <polygon id="Fill-7" fill="#929497" mask="url(#mask-2)" points="50.563 162.06 111.051 162.06 111.051 160.198 50.563 160.198"></polygon>
                        <polygon id="Fill-8" fill="#929497" mask="url(#mask-2)" points="50.563 165.453 111.051 165.453 111.051 163.59 50.563 163.59"></polygon>
                        <polygon id="Fill-9" fill="#929497" mask="url(#mask-2)" points="50.563 168.844 111.051 168.844 111.051 166.982 50.563 166.982"></polygon>
                        <polygon id="Fill-10" fill="#929497" mask="url(#mask-2)" points="50.563 172.237 111.051 172.237 111.051 170.375 50.563 170.375"></polygon>
                        <polygon id="Fill-11" fill="#929497" mask="url(#mask-2)" points="81.368 127.333 111.05 127.333 111.05 125.47 81.368 125.47"></polygon>
                        <polygon id="Fill-12" fill="#929497" mask="url(#mask-2)" points="81.368 130.726 111.05 130.726 111.05 128.864 81.368 128.864"></polygon>
                        <polygon id="Fill-13" fill="#929497" mask="url(#mask-2)" points="81.368 134.118 111.05 134.118 111.05 132.256 81.368 132.256"></polygon>
                        <polygon id="Fill-14" fill="#929497" mask="url(#mask-2)" points="81.368 137.51 111.05 137.51 111.05 135.648 81.368 135.648"></polygon>
                        <polygon id="Fill-15" fill="#929497" mask="url(#mask-2)" points="81.368 140.903 111.05 140.903 111.05 139.041 81.368 139.041"></polygon>
                        <polygon id="Fill-16" fill="#929497" mask="url(#mask-2)" points="81.368 144.296 111.05 144.296 111.05 142.434 81.368 142.434"></polygon>
                        <polygon id="Fill-17" fill="#929497" mask="url(#mask-2)" points="81.368 147.688 111.05 147.688 111.05 145.826 81.368 145.826"></polygon>
                        <polygon id="Fill-18" fill="#A5CD39" mask="url(#mask-2)" points="115.339 173.192 145.264 173.192 145.264 149.947 115.339 149.947"></polygon>
                        <path d="M50.9648,196.0075 C46.0408,196.0075 41.4348,194.2675 37.7568,191.0625 C35.2348,192.1195 32.5288,192.6725 29.8118,192.6725 C18.2298,192.6725 9.0488,182.9125 9.3448,170.9865 C9.6378,159.1375 19.1868,149.5555 30.6328,149.5555 C32.0478,149.5555 33.4388,149.7005 34.7978,149.9865 C37.7428,139.8665 46.8388,132.6955 57.4148,132.6955 C59.1398,132.6955 60.8298,132.8855 62.4738,133.2615 C63.3848,124.6615 70.5578,117.9445 79.1728,117.9445 C80.3118,117.9445 81.4438,118.0655 82.5518,118.3005 L85.1538,56.5125 L112.8568,56.5125 L115.6328,123.0275 C116.9138,122.5715 118.2718,122.3305 119.6528,122.3305 C126.3298,122.3305 131.8328,127.7715 132.0888,134.5585 C134.9968,135.6155 137.3168,137.9865 138.3508,140.9725 C139.1088,140.8965 139.8718,140.8575 140.6358,140.8575 C148.4428,140.8575 155.7708,144.9075 160.1848,151.4455 C162.8348,150.2025 165.7248,149.5555 168.7048,149.5555 C180.1508,149.5555 189.6988,159.1375 189.9928,170.9865 C190.2888,182.9125 181.1078,192.6725 169.5258,192.6725 C163.4908,192.6725 157.8468,190.0445 153.8378,185.5025 C150.0988,187.9955 145.7158,189.3415 141.1848,189.3415 C137.6628,189.3415 134.1938,188.5295 131.0278,186.9805 C126.4188,190.5975 120.7848,192.5675 114.9218,192.5675 C107.4298,192.5675 100.3598,189.3655 95.2878,183.7415 L94.3818,183.7415 C89.2958,189.3655 82.2168,192.5675 74.7248,192.5675 C71.2818,192.5675 67.9608,191.9075 64.8228,190.6025 C60.9948,194.0625 56.0678,196.0075 50.9648,196.0075" id="Fill-19" fill="#8AB7FF" mask="url(#mask-2)"></path>
                        <path d="M113.0762,141.0685 C113.0432,141.0705 113.0112,141.0735 112.9792,141.0765 L112.9732,140.9535 C113.0072,140.9925 113.0422,141.0295 113.0762,141.0685 M168.7722,153.0635 C165.1152,153.0635 161.7442,154.2275 158.9772,156.2125 C155.6782,149.1965 148.6922,144.3465 140.6752,144.3465 C138.8822,144.3465 137.1482,144.5935 135.4992,145.0475 C135.5192,144.8165 135.5292,144.5845 135.5272,144.3465 C135.4892,140.5275 132.4402,137.4395 128.7182,137.4395 C128.5982,137.4395 128.4832,137.4505 128.3662,137.4565 C128.5832,136.6535 128.7042,135.8105 128.6972,134.9345 C128.6572,129.8755 124.6162,125.7845 119.6722,125.7845 C116.7282,125.7845 114.1302,127.2405 112.5052,129.4805 L109.6652,59.8415 L88.3452,59.8415 L85.7372,123.1825 C83.7992,122.0445 81.5532,121.3915 79.1532,121.3915 C71.8352,121.3915 65.8472,127.4425 65.7762,134.9345 C65.7652,136.0885 65.8972,137.2085 66.1512,138.2785 C63.5132,136.9315 60.5352,136.1705 57.3742,136.1705 C47.1042,136.1705 38.5272,144.1825 37.3582,154.4925 C35.2802,153.5725 32.9862,153.0635 30.5662,153.0635 C20.9782,153.0635 13.0142,161.0655 12.7782,170.9865 C12.5402,180.9625 20.1962,189.0885 29.8792,189.0885 C32.9812,189.0885 35.9082,188.2495 38.4602,186.7835 C41.5792,190.2495 46.0332,192.4175 51.0132,192.4175 C56.2072,192.4175 60.8932,190.0585 64.1242,186.3265 C67.3032,188.0215 70.9122,188.9845 74.7492,188.9845 C82.0202,188.9845 88.5292,185.5495 92.8322,180.1745 L96.8472,180.1745 C101.1362,185.5495 107.6342,188.9845 114.9062,188.9845 C120.9622,188.9845 126.4642,186.6005 130.5862,182.6975 C133.6692,184.6415 137.2852,185.7635 141.1452,185.7635 C146.2752,185.7635 150.9282,183.7795 154.4402,180.5195 C157.6102,185.6585 163.1732,189.0885 169.4582,189.0885 C179.1412,189.0885 186.7972,180.9625 186.5592,170.9865 C186.3232,161.0655 178.3602,153.0635 168.7722,153.0635" id="Fill-20" fill="#FFFFFF" mask="url(#mask-2)"></path>
                        <path d="M88.2065,181.2682 C88.2065,182.5042 88.0345,183.6962 87.7095,184.8252 C86.1665,190.3022 81.1315,194.3112 75.1575,194.3112 C70.4895,194.3112 66.3945,191.8622 64.0895,188.1762 C62.8325,186.1732 62.1085,183.8052 62.1085,181.2682 C62.1085,179.4492 62.4805,177.7172 63.1555,176.1462 C63.4195,175.5262 63.7335,174.9272 64.0895,174.3602 C66.3945,170.6692 70.4895,168.2202 75.1575,168.2202 C79.3835,168.2202 83.1395,170.2272 85.5185,173.3412 C85.6695,173.5302 85.8105,173.7292 85.9455,173.9282 C87.3705,176.0182 88.2065,178.5432 88.2065,181.2682" id="Fill-21" fill="#8AB7FF" mask="url(#mask-2)"></path>
                        <path d="M85.519,173.3415 C83.528,178.0035 78.903,181.2685 73.518,181.2685 C70.641,181.2685 67.98,180.3355 65.822,178.7585 C64.812,178.0195 63.912,177.1395 63.156,176.1465 C63.07,176.0395 62.989,175.9315 62.913,175.8175 C61.839,174.3275 61.073,172.6015 60.711,170.7295 C61.909,171.6035 62.951,172.6765 63.787,173.9025 C63.89,174.0535 63.992,174.2045 64.089,174.3605 C66.394,170.6695 70.49,168.2195 75.157,168.2195 C79.383,168.2195 83.139,170.2275 85.519,173.3415" id="Fill-22" fill="#FFFFFF" mask="url(#mask-2)"></path>
                        <path d="M66.0645,181.2682 C66.0645,183.8052 65.3415,186.1732 64.0895,188.1762 C61.7795,191.8622 57.6845,194.3112 53.0165,194.3112 C45.8115,194.3112 39.9665,188.4722 39.9665,181.2682 C39.9665,179.7082 40.2425,178.2192 40.7445,176.8322 C42.5575,171.8082 47.3655,168.2202 53.0165,168.2202 C55.8975,168.2202 58.5525,169.1472 60.7105,170.7292 C61.9095,171.6032 62.9505,172.6772 63.7875,173.9022 C63.8895,174.0532 63.9925,174.2042 64.0895,174.3602 C64.9155,175.6822 65.5145,177.1722 65.8215,178.7592 C65.9835,179.5682 66.0645,180.4102 66.0645,181.2682" id="Fill-23" fill="#8AB7FF" mask="url(#mask-2)"></path>
                        <path d="M63.7871,173.902 C63.5441,174.566 63.2521,175.209 62.9131,175.818 C60.6901,179.817 56.4151,182.52 51.5151,182.52 C47.0421,182.52 43.0921,180.27 40.7441,176.833 C42.5571,171.808 47.3651,168.22 53.0161,168.22 C55.8971,168.22 58.5531,169.148 60.7111,170.729 C61.9091,171.604 62.9501,172.677 63.7871,173.902" id="Fill-24" fill="#FFFFFF" mask="url(#mask-2)"></path>
                        <path d="M120.9741,176.6926 C120.9741,186.4216 113.0841,194.3116 103.3541,194.3116 C96.5551,194.3116 90.6511,190.4586 87.7101,184.8246 C87.7161,184.8196 87.7101,184.8196 87.7101,184.8196 C86.4471,182.3846 85.7301,179.6226 85.7301,176.6926 C85.7301,175.7536 85.8051,174.8306 85.9451,173.9346 L85.9451,173.9296 C86.0691,173.1516 86.2421,172.3906 86.4641,171.6516 C88.6271,164.3776 95.3731,159.0726 103.3541,159.0726 C109.5011,159.0726 114.9141,162.2236 118.0711,166.9946 C119.9061,169.7736 120.9741,173.1086 120.9741,176.6926" id="Fill-25" fill="#8AB7FF" mask="url(#mask-2)"></path>
                        <path d="M118.0708,166.9943 C115.9068,174.2803 109.1608,179.5893 101.1798,179.5893 C95.0278,179.5893 89.6098,176.4323 86.4638,171.6513 C88.6278,164.3773 95.3728,159.0723 103.3548,159.0723 C109.5008,159.0723 114.9138,162.2233 118.0708,166.9943" id="Fill-26" fill="#FFFFFF" mask="url(#mask-2)"></path>
                        <path d="M125.7349,82.0593 L127.4269,83.8703 L127.7599,84.2293 L134.5849,91.5233 C136.2349,93.2873 136.8599,95.9023 136.2169,98.3483 L130.8359,118.8693 C130.6909,119.4123 130.2309,119.7943 129.7079,119.7963 L127.3509,119.8123 C126.8259,119.8193 126.3619,119.4303 126.2349,118.8733 L123.5429,107.1653 C123.5309,107.1083 123.5169,107.0553 123.5029,107.0033 C123.3209,106.3303 122.9959,105.7293 122.5599,105.2353 C122.1219,104.7403 121.5749,104.3603 120.9489,104.1403 L111.0689,100.6693 L125.7349,82.0593 Z" id="Fill-27" fill="#DB5240" mask="url(#mask-2)"></path>
                        <path d="M75.0029,82.4601 L76.4219,84.2561 L89.4969,100.8391 L80.5999,104.0891 L79.5879,104.4611 C78.2969,104.9411 77.3029,106.1001 76.9639,107.5341 L76.7809,108.3111 L76.4729,109.6111 L74.1679,119.2821 C74.0349,119.8381 73.5679,120.2371 73.0369,120.2401 L70.6819,120.2581 C70.1629,120.2621 69.7059,119.8931 69.5669,119.3521 L64.3679,98.9131 C63.7489,96.4761 64.3969,93.8481 66.0659,92.0611 L71.8419,85.8501 L71.9939,85.6911 L75.0029,82.4601 Z" id="Fill-28" fill="#DB5240" mask="url(#mask-2)"></path>
                        <path d="M115.7563,114.3395 L83.4773,114.5925 C82.9063,114.5975 82.4033,114.1315 82.2343,113.4395 L79.0203,100.3755 L120.3423,100.0515 L117.0103,113.1665 C116.8343,113.8605 116.3263,114.3355 115.7563,114.3395" id="Fill-29" fill="#6A5753" mask="url(#mask-2)"></path>
                        <path d="M75.814,85.3493 L88.889,101.9303 L79.991,105.1813 C78.7,101.1453 76.832,94.2393 75.814,85.3493" id="Fill-30" fill="#FCB762" mask="url(#mask-2)"></path>
                        <path d="M71.9937,85.6911 L75.0027,82.4611 L76.4227,84.2571 L89.4967,100.8391 L80.5997,104.0891 L79.5877,104.4611 C78.2977,104.9411 77.3037,106.1001 76.9647,107.5341 L76.7807,108.3111 L76.4727,109.6111 C74.9187,104.7091 72.7617,96.4021 71.8427,85.8501 L71.9937,85.6911 Z" id="Fill-31" fill="#B64433" mask="url(#mask-2)"></path>
                        <path d="M125.7349,82.0593 L127.4269,83.8703 L127.7599,84.2293 C126.9319,93.8693 125.0669,101.7453 123.5029,107.0033 C123.3209,106.3303 122.9959,105.7293 122.5599,105.2353 C122.1219,104.7403 121.5749,104.3603 120.9489,104.1403 L111.0689,100.6693 L125.7349,82.0593 Z" id="Fill-32" fill="#B64433" mask="url(#mask-2)"></path>
                        <path d="M120.2329,105.466 C119.9899,106.135 119.5159,106.544 119.0039,106.549 L98.5569,106.711 C98.5569,106.711 83.9569,106.826 80.2959,106.856 C79.7779,106.86 79.3179,106.449 79.0809,105.79 C75.7569,96.366 63.9689,55.815 89.9009,13.577 C90.7769,12.152 91.6979,10.722 92.6609,9.288 C94.6319,6.361 96.7969,3.44 99.1569,0.517 C99.7129,-0.166 100.5609,-0.172 101.1109,0.5 C103.4439,3.385 105.5759,6.276 107.5199,9.163 C108.4779,10.584 109.3879,12.01 110.2549,13.429 C135.7939,55.258 123.6489,95.978 120.2329,105.466" id="Fill-33" fill="#FFD16A" mask="url(#mask-2)"></path>
                        <path d="M86.189,45.799 C85.138,49.814 82.567,52.618 80.448,52.063 C78.328,51.508 77.462,47.804 78.514,43.789 C79.565,39.774 82.135,36.969 84.255,37.525 C86.375,38.079 87.24,41.784 86.189,45.799" id="Fill-34" fill="#FFFFFF" mask="url(#mask-2)"></path>
                        <g id="Group-37" mask="url(#mask-2)">
                            <g transform="translate(74.000000, 51.216000)">
                                <mask id="mask-4" fill="white">
                                    <use xlink:href="#path-3"></use>
                                </mask>
                                <g id="Clip-36" stroke="none" fill="none"></g>
                                <path d="M50.5537,0.0942 C49.4277,27.2982 36.5117,48.9122 20.8357,49.0352 C12.9217,49.0972 5.7637,43.6602 0.4977,34.7722 C1.7607,44.2932 3.9277,51.3052 5.0797,54.5732 C5.3167,55.2352 5.7787,55.6412 6.2957,55.6372 C9.9577,55.6092 24.5577,55.4942 24.5577,55.4942 L45.0027,55.3342 C45.5187,55.3302 45.9897,54.9162 46.2327,54.2502 C48.5817,47.7212 55.0647,26.3922 50.5537,0.0942" id="Fill-35" stroke="none" fill="#FFBA1C" fill-rule="evenodd" mask="url(#mask-4)"></path>
                            </g>
                        </g>
                        <path d="M110.2554,13.4294 C107.0694,14.6034 103.6474,15.2504 100.0844,15.2764 C96.5144,15.3084 93.0904,14.7074 89.9014,13.5774 C90.7774,12.1524 91.6974,10.7214 92.6604,9.2884 C94.6314,6.3624 96.7974,3.4404 99.1564,0.5174 C99.7134,-0.1656 100.5614,-0.1726 101.1114,0.4994 C103.4434,3.3854 105.5764,6.2764 107.5194,9.1624 C108.4784,10.5844 109.3884,12.0094 110.2554,13.4294" id="Fill-38" fill="#DB5240" mask="url(#mask-2)"></path>
                        <path d="M101.5029,88.5886 L101.3899,114.1226 L101.3649,119.4216 C101.3599,120.0336 100.9699,120.5356 100.4899,120.5366 L96.8369,120.5696 C96.3569,120.5706 95.9689,120.0786 95.9739,119.4656 L95.9819,117.9546 L96.1119,88.6286 C96.1169,88.0166 96.5059,87.5186 96.9879,87.5126 L100.6389,87.4856 C101.1189,87.4846 101.5039,87.9736 101.5029,88.5886" id="Fill-39" fill="#DB5240" mask="url(#mask-2)"></path>
                        <path d="M110.667,33.9162 C110.631,39.8852 105.819,44.7552 99.917,44.7942 C94.017,44.8322 89.262,40.0222 89.297,34.0522 C89.333,28.0832 94.146,23.2122 100.047,23.1752 C105.948,23.1382 110.703,27.9462 110.667,33.9162" id="Fill-40" fill="#73605A" mask="url(#mask-2)"></path>
                        <path d="M99.9384,41.4237 C95.8774,41.4497 92.6044,38.1397 92.6284,34.0317 C92.6534,29.9227 95.9654,26.5707 100.0264,26.5447 C104.0874,26.5197 107.3604,29.8287 107.3354,33.9377 C107.3114,38.0457 103.9984,41.3967 99.9384,41.4237 Z" id="Fill-41" fill="#85ABF4" mask="url(#mask-2)"></path>
                        <path d="M102.5859,137.1896 C114.6719,137.1896 124.4679,146.9866 124.4679,159.0716 C124.4679,160.3076 124.3599,161.5166 124.1639,162.6976 C126.0039,159.4926 127.0619,155.7806 127.0619,151.8196 C127.0619,139.7346 117.2649,129.9386 105.1799,129.9386 C94.3309,129.9386 85.3309,137.8356 83.6029,148.1946 C87.3779,141.6206 94.4619,137.1896 102.5859,137.1896" id="Fill-42" fill="#8AB7FF" mask="url(#mask-2)"></path>
                        <path d="M154.8999,158.7795 C163.1649,158.7795 169.8649,165.4805 169.8649,173.7445 C169.8649,174.5905 169.7909,175.4175 169.6559,176.2235 C170.9149,174.0325 171.6379,171.4935 171.6379,168.7855 C171.6379,160.5205 164.9379,153.8205 156.6729,153.8205 C149.2539,153.8205 143.0989,159.2215 141.9169,166.3055 C144.4979,161.8095 149.3439,158.7795 154.8999,158.7795" id="Fill-43" fill="#8AB7FF" mask="url(#mask-2)"></path>
                        <path d="M35.3169,159.2648 C41.6819,155.0198 50.2839,156.7388 54.5279,163.1048 C54.9629,163.7568 55.3309,164.4318 55.6409,165.1218 C55.4849,162.7878 54.7389,160.4608 53.3469,158.3738 C49.1029,152.0098 40.5019,150.2898 34.1359,154.5338 C28.4209,158.3448 26.4549,165.6658 29.1819,171.7288 C28.8619,166.9408 31.0369,162.1188 35.3169,159.2648" id="Fill-44" fill="#8AB7FF" mask="url(#mask-2)"></path>
                    </g>
                </g>
            </g>
        </g>
    </g>
</svg>