<?xml version="1.0" encoding="UTF-8" standalone="no"?>
<svg width="184px" height="106px" viewBox="0 0 184 106" version="1.1" xmlns="http://www.w3.org/2000/svg" xmlns:xlink="http://www.w3.org/1999/xlink">
    <!-- Generator: Sketch 49 (51002) - http://www.bohemiancoding.com/sketch -->
    <title>Group 12</title>
    <desc>Created with Sketch.</desc>
    <defs></defs>
    <g id="Page-1" stroke="none" stroke-width="1" fill="none" fill-rule="evenodd">
        <g id="报告－所有报表" transform="translate(-928.000000, -276.000000)">
            <g id="Group-5" transform="translate(274.000000, 132.000000)">
                <g id="所有报表－版本报告" transform="translate(608.000000, 102.000000)">
                    <g id="Group" transform="translate(30.000000, 18.000000)">
                        <g id="Group-12" transform="translate(16.000000, 24.000000)">
                            <g id="Grid">
                                <g id="Lines" opacity="0.35" transform="translate(0.165768, 0.290671)"></g>
                                <g id="横" transform="translate(0.003818, 0.245372)" fill="#EEEEEE">
                                    <rect id="Rectangle-272" x="0" y="104.720945" width="183.670812" height="1"></rect>
                                    <rect id="Rectangle-272-Copy" x="0" y="86.7899224" width="183.670812" height="1"></rect>
                                    <rect id="Rectangle-272-Copy-2" x="0" y="69.4566009" width="183.670812" height="1"></rect>
                                    <rect id="Rectangle-272-Copy-3" x="0" y="52.1232795" width="183.670812" height="1"></rect>
                                    <rect id="Rectangle-272-Copy-4" x="0" y="34.1922573" width="183.670812" height="1"></rect>
                                    <rect id="Rectangle-272-Copy-5" x="0" y="16.8589358" width="183.670812" height="1"></rect>
                                    <rect id="Rectangle-272" x="0" y="0" width="183.670812" height="1"></rect>
                                </g>
                            </g>
                            <g id="Group-31" transform="translate(0.000000, 5.000000)" fill-opacity="0.2">
                                <g id="Group-32" transform="translate(0.000000, 55.591713)" fill="#00BFA5">
                                    <path d="M0,45.0992494 L20.0835435,43.5157467 C20.4078277,43.4901783 20.7326179,43.4714923 21.0576947,43.4597013 L44.6965786,42.6022888 C46.9794871,42.5194848 49.2373225,42.097038 51.3957377,41.3488591 L78.5594002,31.933024 C80.663438,31.2036941 82.8622413,30.7837905 85.0869713,30.6864595 L101.008077,29.9899174 C102.895583,29.9073398 104.765723,29.5925093 106.576229,29.0525416 L118.785754,25.4111567 C122.19415,24.3946319 125.320352,22.6014781 127.918656,20.1726284 L139.348815,9.48790953 C142.446552,6.59219704 146.284516,4.60922409 150.438636,3.75809668 L162.953186,1.19402131 C164.599421,0.856728209 166.277663,0.700865963 167.957857,0.72922584 L184,1 L184,45.0992494" id="Path-5"></path>
                                </g>
                                <g id="Group-32" transform="translate(0.000000, 44.347993)" fill="#F4B400">
                                    <path d="M184,12.2437194 L167.957857,11.9729452 C166.277663,11.9445853 164.599421,12.1004476 162.953186,12.4377407 L150.438636,15.0018161 C146.284516,15.8529435 142.446552,17.8359164 139.348815,20.7316289 L127.918656,31.4163477 C125.320352,33.8451974 122.19415,35.6383513 118.785754,36.6548761 L106.576229,40.2962609 C104.765723,40.8362287 102.895583,41.1510592 101.008077,41.2336368 L85.0869713,41.9301788 C82.8622413,42.0275099 80.663438,42.4474134 78.5594002,43.1767434 L51.3957377,52.5925784 C49.2373225,53.3407574 46.9794871,53.7632042 44.6965786,53.8460082 L21.0576947,54.7034207 C20.7326179,54.7152116 20.4078277,54.7338976 20.0835435,54.7594661 L0,56.3429688 L0,49.0992494 L19.9497384,46.5564515 C20.3631861,46.5037534 20.7779899,46.4623034 21.1936902,46.4321474 L44.5156887,44.7403101 C46.9170355,44.5661103 49.2761391,44.0159427 51.5068141,43.1099067 L78.0513321,32.3282872 C80.4871989,31.3389082 83.0746679,30.7744969 85.7012841,30.6595835 L100.481571,30.0129519 C102.715334,29.9152256 104.922912,29.4923041 107.034632,28.7575347 L119.681439,24.3571009 C122.511894,23.3722492 125.122594,21.8437275 127.366748,19.8574801 L139.48201,9.13455125 C142.498377,6.46483651 146.162993,4.63412274 150.109149,3.82560452 L162.953186,1.19402131 C164.599421,0.856728209 166.277663,0.700865963 167.957857,0.72922584 L184,1 L184,12.2437194 Z" id="Combined-Shape"></path>
                                </g>
                                <g id="Group-32" transform="translate(0.000000, 33.542088)" fill="#F44336">
                                    <path d="M184,12.2437194 L167.957857,11.9729452 C166.277663,11.9445853 164.599421,12.1004476 162.953186,12.4377407 L150.109149,15.0693239 C146.162993,15.8778421 142.498377,17.7085559 139.48201,20.3782706 L127.366748,31.1011994 C125.122594,33.0874469 122.511894,34.6159686 119.681439,35.6008203 L107.034632,40.001254 C104.922912,40.7360235 102.715334,41.158945 100.481571,41.2566712 L85.7012841,41.9033029 C83.0746679,42.0182163 80.4871989,42.5826276 78.0513321,43.5720066 L51.5068141,54.3536261 C49.2761391,55.2596621 46.9170355,55.8098296 44.5156887,55.9840295 L21.1936902,57.6758668 C20.7779899,57.7060228 20.3631861,57.7474728 19.9497384,57.8001709 L0,60.3429688 L0,52.0992494 L20.3726303,49.5025497 C20.504224,49.4857767 20.6356702,49.4678655 20.766954,49.4488182 L45.0829437,45.9209302 C47.1119048,45.6265582 49.092398,45.0622227 50.9717827,44.2429235 L77.815185,32.5408081 C80.4043672,31.4120797 83.1793092,30.7699189 86.0011263,30.6464655 L100.481571,30.0129519 C102.715334,29.9152256 104.922912,29.4923041 107.034632,28.7575347 L119.681439,24.3571009 C122.511894,23.3722492 125.122594,21.8437275 127.366748,19.8574801 L139.48201,9.13455125 C142.498377,6.46483651 146.162993,4.63412274 150.109149,3.82560452 L162.953186,1.19402131 C164.599421,0.856728209 166.277663,0.700865963 167.957857,0.72922584 L184,1 L184,12.2437194 Z" id="Combined-Shape"></path>
                                </g>
                                <g id="Group-32" transform="translate(0.000000, 22.736183)" fill="#4D90FE">
                                    <path d="M184,12.2437194 L167.957857,11.9729452 C166.277663,11.9445853 164.599421,12.1004476 162.953186,12.4377407 L150.109149,15.0693239 C146.162993,15.8778421 142.498377,17.7085559 139.48201,20.3782706 L127.366748,31.1011994 C125.122594,33.0874469 122.511894,34.6159686 119.681439,35.6008203 L107.034632,40.001254 C104.922912,40.7360235 102.715334,41.158945 100.481571,41.2566712 L86.0011263,41.8901849 C83.1793092,42.0136383 80.4043672,42.6557991 77.815185,43.7845275 L50.9717827,55.4866429 C49.092398,56.3059421 47.1119048,56.8702775 45.0829437,57.1646496 L20.766954,60.6925376 C20.6356702,60.7115849 20.504224,60.7294961 20.3726303,60.746269 L0,63.3429688 L0,54.0992494 L20.3726303,51.5025497 C20.504224,51.4857767 20.6356702,51.4678655 20.766954,51.4488182 L44.5141333,48.0034561 C46.9162667,47.6549423 49.2480908,46.9283797 51.4230394,45.8507408 L77.3793662,32.989956 C80.2495859,31.5678258 83.3852161,30.7609106 86.5853745,30.6209049 L100.481571,30.0129519 C102.715334,29.9152256 104.922912,29.4923041 107.034632,28.7575347 L119.681439,24.3571009 C122.511894,23.3722492 125.122594,21.8437275 127.366748,19.8574801 L139.48201,9.13455125 C142.498377,6.46483651 146.162993,4.63412274 150.109149,3.82560452 L162.953186,1.19402131 C164.599421,0.856728209 166.277663,0.700865963 167.957857,0.72922584 L184,1 L184,12.2437194 Z" id="Combined-Shape"></path>
                                </g>
                                <g id="Group-32" transform="translate(0.000000, 11.368091)" fill="#F953BA">
                                    <path d="M184,12.2437194 L167.957857,11.9729452 C166.277663,11.9445853 164.599421,12.1004476 162.953186,12.4377407 L150.109149,15.0693239 C146.162993,15.8778421 142.498377,17.7085559 139.48201,20.3782706 L127.366748,31.1011994 C125.122594,33.0874469 122.511894,34.6159686 119.681439,35.6008203 L107.034632,40.001254 C104.922912,40.7360235 102.715334,41.158945 100.481571,41.2566712 L86.5853745,41.8646243 C83.3852161,42.0046299 80.2495859,42.8115452 77.3793662,44.2336754 L51.4230394,57.0944602 C49.2480908,58.172099 46.9162667,58.8986617 44.5141333,59.2471755 L20.766954,62.6925376 C20.6356702,62.7115849 20.504224,62.7294961 20.3726303,62.746269 L0,65.3429688 L0,57.0992494 L20.1030594,52.5823117 C20.4143358,52.5123713 20.7270338,52.4489151 21.0409502,52.3919844 L44.9437482,48.0570593 C47.0640937,47.6725211 49.119877,46.9919067 51.0507874,46.0351834 L77.3793662,32.989956 C80.2495859,31.5678258 83.3852161,30.7609106 86.5853745,30.6209049 L100.481571,30.0129519 C102.715334,29.9152256 104.922912,29.4923041 107.034632,28.7575347 L119.681439,24.3571009 C122.511894,23.3722492 125.122594,21.8437275 127.366748,19.8574801 L139.48201,9.13455125 C142.498377,6.46483651 146.162993,4.63412274 150.109149,3.82560452 L162.953186,1.19402131 C164.599421,0.856728209 166.277663,0.700865963 167.957857,0.72922584 L184,1 L184,12.2437194 Z" id="Combined-Shape"></path>
                                </g>
                                <g id="Group-32" fill="#743BE7">
                                    <path d="M184,12.2437194 L167.957857,11.9729452 C166.277663,11.9445853 164.599421,12.1004476 162.953186,12.4377407 L150.109149,15.0693239 C146.162993,15.8778421 142.498377,17.7085559 139.48201,20.3782706 L127.366748,31.1011994 C125.122594,33.0874469 122.511894,34.6159686 119.681439,35.6008203 L107.034632,40.001254 C104.922912,40.7360235 102.715334,41.158945 100.481571,41.2566712 L86.5853745,41.8646243 C83.3852161,42.0046299 80.2495859,42.8115452 77.3793662,44.2336754 L51.0507874,57.2789028 C49.119877,58.2356261 47.0640937,58.9162405 44.9437482,59.3007787 L21.0409502,63.6357037 C20.7270338,63.6926345 20.4143358,63.7560907 20.1030594,63.8260311 L0,68.3429688 L0,58.0992494 L19.6000664,52.7424827 C20.2463965,52.5658384 20.9001369,52.4175218 21.5594169,52.2979571 L44.9437482,48.0570593 C47.0640937,47.6725211 49.119877,46.9919067 51.0507874,46.0351834 L77.3793662,32.989956 C80.2495859,31.5678258 83.3852161,30.7609106 86.5853745,30.6209049 L99.9677191,30.0354327 C102.537775,29.9229938 105.070757,29.3801875 107.461205,28.4296139 L120.54692,23.2260125 C122.813253,22.3247935 124.921819,21.0688375 126.793594,19.5052139 L139.636643,8.77652545 C142.5572,6.33678176 146.037494,4.6598359 149.765571,3.89599937 L162.953186,1.19402131 C164.599421,0.856728209 166.277663,0.700865963 167.957857,0.72922584 L184,1 L184,12.2437194 Z" id="Combined-Shape"></path>
                                </g>
                            </g>
                        </g>
                    </g>
                </g>
            </g>
        </g>
    </g>
</svg>