<?xml version="1.0" encoding="UTF-8"?>
<svg width="18px" height="18px" viewBox="0 0 18 18" version="1.1" xmlns="http://www.w3.org/2000/svg" xmlns:xlink="http://www.w3.org/1999/xlink">
    <!-- Generator: Sketch 49.3 (51167) - http://www.bohemiancoding.com/sketch -->
    <title>冲刺迭代</title>
    <desc>Created with Sketch.</desc>
    <defs></defs>
    <g id="报告" stroke="none" stroke-width="1" fill="none" fill-rule="evenodd">
        <g id="epic燃耗图-校准图表" transform="translate(-1219.000000, -498.000000)">
            <g id="燃耗图" transform="translate(274.000000, 313.000000)">
                <g id="chart" transform="translate(4.000000, 30.000000)">
                    <g id="框线">
                        <g id="Metrics/Graph/Card---Slim---Green">
                            <g id="Group-13" transform="translate(863.000000, 67.000000)">
                                <g id="Group-12" transform="translate(78.000000, 87.000000)">
                                    <g id="冲刺迭代">
                                        <g transform="translate(0.000000, 1.000000)">
                                            <circle id="Oval-2" fill="#4D90FE" cx="9" cy="9" r="9"></circle>
                                            <g id="迭代" transform="translate(4.000000, 4.000000)" fill="#FFFFFF" fill-rule="nonzero">
                                                <path d="M0.526315793,2 C0.842105267,2 1.05263159,2.225 1.05263159,2.5625 L1.05263159,5.9375 C1.05263159,6.275 0.842105267,6.5 0.526315793,6.5 C0.21052632,6.5 0,6.275 0,5.9375 L0,2.5625 C0,2.225 0.21052632,2 0.526315793,2 Z M9.47368421,4.5 C9.78947368,4.5 10,4.725 10,5.0625 L10,8.4375 C10,8.775 9.78947368,9 9.47368421,9 C9.15789473,9 8.94736841,8.775 8.94736843,8.4375 L8.94736843,5.0625 C8.94736843,4.725 9.15789475,4.5 9.47368421,4.5 Z" id="Shape"></path>
                                                <path d="M0.529411768,2 L8.47058823,2 C8.78823529,2 9,2.2 9,2.5 C9,2.8 8.78823529,3 8.47058823,3 L0.529411768,3 C0.21176471,3 0,2.8 0,2.5 C0,2.2 0.21176471,2 0.529411768,2 Z" id="Shape"></path>
                                                <path d="M8.2,2.11764706 L6.98235294,0.90000001 C6.77058823,0.6882353 6.77058823,0.370588242 6.98235294,0.158823532 C7.19411765,-0.0529411774 7.51176471,-0.0529411774 7.72352941,0.158823532 L9.3117647,1.74705882 C9.41764705,1.85294117 9.47058823,1.95882353 9.47058823,2.11764706 C9.47058823,2.27647059 9.41764705,2.38235294 9.3117647,2.4882353 L7.72352941,4.07647059 C7.5117647,4.2882353 7.19411764,4.2882353 6.98235294,4.07647059 C6.77058823,3.86470588 6.77058823,3.54705883 6.98235294,3.33529412 L8.2,2.11764706 Z M1.52941176,7.94117646 L9.47058823,7.94117646 C9.78823529,7.94117646 10,8.15294117 10,8.47058823 C10,8.78823529 9.78823529,9 9.47058823,9 L1.52941176,9 C1.2117647,9 0.999999988,8.78823529 1,8.47058823 C1.00000001,8.15294117 1.21176471,7.94117646 1.52941176,7.94117646 Z" id="Shape"></path>
                                                <path d="M2.44,8.5 L3.82,9.93749999 C4.06,10.1875 4.06,10.5625 3.82,10.8125 C3.57999999,11.0625 3.21999999,11.0625 2.98,10.8125 L1.18,8.9375 C1.06,8.81250001 1,8.6875 1,8.5 C1,8.3125 1.06,8.18750001 1.18,8.0625 L2.98,6.1875 C3.22000001,5.9375 3.58000001,5.9375 3.82,6.1875 C4.06,6.43750001 4.06,6.81250001 3.82,7.06250001 L2.44,8.5 Z" id="Shape"></path>
                                            </g>
                                        </g>
                                    </g>
                                </g>
                            </g>
                        </g>
                    </g>
                </g>
            </g>
        </g>
    </g>
</svg>
