<?xml version="1.0" encoding="UTF-8"?>
<svg width="65px" height="68px" viewBox="0 0 65 68" version="1.1" xmlns="http://www.w3.org/2000/svg" xmlns:xlink="http://www.w3.org/1999/xlink">
    <!-- Generator: Sketch 49.3 (51167) - http://www.bohemiancoding.com/sketch -->
    <title>Page 1</title>
    <desc>Created with Sketch.</desc>
    <defs>
        <polygon id="path-1" points="8.38709677e-05 0.308518519 64.6984839 0.308518519 64.6984839 67.9998741 8.38709677e-05 67.9998741"></polygon>
        <polygon id="path-3" points="0.158821053 0.308518519 55.6972632 0.308518519 55.6972632 67.9998741 0.158821053 67.9998741"></polygon>
        <polygon id="path-5" points="0.158030909 0.0899282051 45.9823945 0.0899282051 45.9823945 16 0.158030909 16"></polygon>
        <polygon id="path-7" points="0 67 65 67 65 0 0 0"></polygon>
    </defs>
    <g id="报告" stroke="none" stroke-width="1" fill="none" fill-rule="evenodd">
        <g id="epic燃耗图-全部完成" transform="translate(-1231.000000, -477.000000)">
            <g id="燃耗图" transform="translate(274.000000, 313.000000)">
                <g id="chart" transform="translate(4.000000, 30.000000)">
                    <g id="框线">
                        <g id="Metrics/Graph/Card---Slim---Green">
                            <g id="已完成" transform="translate(855.000000, 88.000000)">
                                <g id="Group-18" transform="translate(54.000000, 46.000000)">
                                    <g id="Page-1" transform="translate(44.000000, 0.000000)">
                                        <g id="Group-3">
                                            <mask id="mask-2" fill="white">
                                                <use xlink:href="#path-1"></use>
                                            </mask>
                                            <g id="Clip-2"></g>
                                            <path d="M57.6861161,15.6323185 C57.390471,20.4888617 54.6806,24.872763 50.4706968,27.3039728 C52.2147935,22.5175284 53.1637935,17.2538247 53.1637935,11.8272568 L53.1637935,11.0855531 L57.962471,11.0855531 L57.6861161,15.6323185 Z M7.01295484,15.6323185 L6.73618065,11.0855531 L11.5348581,11.0855531 L11.5348581,11.8272568 C11.5348581,17.2538247 12.4838581,22.5175284 14.2279548,27.3039728 C10.0176323,24.872763 7.30776129,20.4888617 7.01295484,15.6323185 Z M53.1637935,4.73930617 L53.1637935,0.308392593 L34.8061161,0.308392593 L11.5348581,0.308392593 L11.5348581,4.73930617 L8.38709677e-05,4.73930617 L0.530567742,13.4789852 C1.05140645,22.0478247 5.83330968,29.7838741 13.2617613,34.0737506 L20.1513419,38.0525901 C21.7134387,40.0292074 23.4533419,41.8139975 25.3723097,43.336442 L28.8915355,46.1273802 L28.8747613,51.7218494 C22.1197935,52.8660963 16.5226645,57.3096025 13.6853097,63.3187877 L9.3839871,63.3187877 L9.3839871,67.9998741 L55.3373097,67.9998741 L55.3373097,63.3187877 L51.0112452,63.3187877 C48.173471,57.3096025 42.5788581,52.8681951 35.8238903,51.7218494 L35.8071161,46.1273802 L39.3263419,43.336442 C41.2453097,41.8139975 42.9852129,40.0292074 44.547729,38.0525901 L51.436471,34.0737506 C58.8653419,29.7838741 63.6472452,22.0478247 64.1685032,13.4789852 L64.6985677,4.73930617 L53.1637935,4.73930617 Z" id="Fill-1" fill="#FFC900" mask="url(#mask-2)"></path>
                                        </g>
                                        <g id="Group-6" transform="translate(9.000000, 0.000000)">
                                            <mask id="mask-4" fill="white">
                                                <use xlink:href="#path-3"></use>
                                            </mask>
                                            <g id="Clip-5"></g>
                                            <path d="M48.6565053,15.6323185 C48.3596632,20.4888617 45.6388211,24.872763 41.4118737,27.3039728 C43.1630316,22.5175284 44.1158737,17.2538247 44.1158737,11.8272568 L44.1158737,11.0855531 L48.9339789,11.0855531 L48.6565053,15.6323185 Z M44.1158737,4.73930617 L44.1158737,0.308392593 L43.8329263,0.308392593 L10.5028211,37.7839481 L10.9697684,38.0525901 C12.5381895,40.0292074 14.2851368,41.8139975 16.2118737,43.336442 L19.7453474,46.1273802 L19.7285053,51.7218494 C12.9461895,52.8660963 7.3264,57.3096025 4.47755789,63.3187877 L0.158821053,63.3187877 L0.158821053,67.9998741 L46.2981895,67.9998741 L46.2981895,63.3187877 L41.9546105,63.3187877 C39.1053474,57.3096025 33.4880842,52.8681951 26.7057684,51.7218494 L26.6889263,46.1273802 L30.2224,43.336442 C32.1491368,41.8139975 33.8960842,40.0292074 35.4649263,38.0525901 L42.3815579,34.0737506 C49.8405053,29.7838741 54.6417684,22.0478247 55.1651368,13.4789852 L55.6973474,4.73930617 L44.1158737,4.73930617 Z" id="Fill-4" fill="#FFE15C" mask="url(#mask-4)"></path>
                                        </g>
                                        <g id="Group-9" transform="translate(9.000000, 51.000000)">
                                            <mask id="mask-6" fill="white">
                                                <use xlink:href="#path-5"></use>
                                            </mask>
                                            <g id="Clip-8"></g>
                                            <path d="M26.5235582,0.0899282051 C26.5235582,0.0899282051 25.1009036,0.846030769 23.00414,0.846030769 C21.1787764,0.846030769 19.5942855,0.0899282051 19.5942855,0.0899282051 C12.8582127,1.20828718 7.27674,5.55167179 4.44690364,11.4249026 L0.158030909,11.4249026 L0.158030909,16.0000821 L45.9823945,16.0000821 L45.9823945,11.4249026 L41.6688491,11.4249026 C38.8390127,5.55167179 33.2596309,1.21033846 26.5235582,0.0899282051" id="Fill-7" fill="#00D0CE" mask="url(#mask-6)"></path>
                                        </g>
                                        <mask id="mask-8" fill="white">
                                            <use xlink:href="#path-7"></use>
                                        </mask>
                                        <g id="Clip-11"></g>
                                        <polygon id="Fill-10" fill="#009DB3" mask="url(#mask-8)" points="9 68 55 68 55 63 9 63"></polygon>
                                        <path d="M27,17.8570107 C30.4287997,17.8570107 32.1429893,14.4286315 32.4285474,13 L37,13 L37,33 L31.2858945,33 L31.2858945,21.5713685 L27,21.5713685 L27,17.8570107 Z" id="Fill-12" fill="#FF3C07" mask="url(#mask-8)"></path>
                                        <polygon id="Fill-13" fill="#FFE15C" mask="url(#mask-8)" points="12 4 54 4 54 2 12 2"></polygon>
                                    </g>
                                </g>
                            </g>
                        </g>
                    </g>
                </g>
            </g>
        </g>
    </g>
</svg>
