<?xml version="1.0" encoding="UTF-8" standalone="no"?>
<svg width="185px" height="105px" viewBox="0 0 185 105" version="1.1" xmlns="http://www.w3.org/2000/svg" xmlns:xlink="http://www.w3.org/1999/xlink">
    <!-- Generator: Sketch 49 (51002) - http://www.bohemiancoding.com/sketch -->
    <title>chart</title>
    <desc>Created with Sketch.</desc>
    <defs></defs>
    <g id="报告" stroke="none" stroke-width="1" fill="none" fill-rule="evenodd">
        <g id="报告－所有报表" transform="translate(-930.000000, -596.000000)">
            <g id="Group-5" transform="translate(274.000000, 132.000000)">
                <g id="所有报表－燃尽图" transform="translate(608.000000, 422.000000)">
                    <g id="Group" transform="translate(30.000000, 18.000000)">
                        <g id="chart" transform="translate(18.000000, 24.000000)">
                            <g id="框线">
                                <g id="Metrics/Graph/Card---Slim---Green">
                                    <g id="Grid" transform="translate(0.161708, 0.000000)">
                                        <g id="Lines" opacity="0.35" transform="translate(0.165645, 0.287577)"></g>
                                        <g id="横" transform="translate(0.003815, 0.242760)" fill="#EEEEEE">
                                            <rect id="Rectangle-272" x="0" y="103.606077" width="183.534402" height="1"></rect>
                                            <rect id="Rectangle-272-Copy" x="0" y="85.8659501" width="183.534402" height="1"></rect>
                                            <rect id="Rectangle-272-Copy-2" x="0" y="68.7171605" width="183.534402" height="1"></rect>
                                            <rect id="Rectangle-272-Copy-3" x="0" y="51.568371" width="183.534402" height="1"></rect>
                                            <rect id="Rectangle-272-Copy-4" x="0" y="33.8282438" width="183.534402" height="1"></rect>
                                            <rect id="Rectangle-272-Copy-5" x="0" y="16.6794543" width="183.534402" height="1"></rect>
                                            <rect id="Rectangle-272" x="0" y="0" width="183.534402" height="1"></rect>
                                        </g>
                                    </g>
                                </g>
                            </g>
                            <rect id="Rectangle-3" fill-opacity="0.04" fill="#000000" x="23.289617" y="5" width="137.443267" height="98.8588725"></rect>
                            <g id="Group-8" transform="translate(0.680871, 5.580217)">
                                <g id="Group-9" transform="translate(0.000000, 30.000000)" fill="#4D90FE" fill-opacity="0.2">
                                    <polygon id="Line" points="183.01322 -4.33431069e-13 145.742034 -4.33431069e-13 145.742034 14.7399393 91.4648261 14.7399393 91.3931446 34.123969 45.556272 34.123969 45.6279535 53.1041648 22.3961383 53.1041648 22.3961383 68.247938 0 68.247938 183.01322 68.247938"></polygon>
                                </g>
                                <polyline id="Line" stroke="#303F9F" stroke-width="1.2" stroke-linecap="square" points="183.293139 11.8262978 163.884235 11.8262978 163.884235 0.80217165 117.319129 0.419782835 117.319129 26.4197828 62.3191288 26.3650681 61.907906 49.8305221 11.4191034 49.8305221 11.4191034 97.9885468"></polyline>
                                <polyline id="Line" stroke="#FF9915" stroke-width="1.2" stroke-linecap="square" points="183.098463 69.5579057 162.286505 69.5579057 162.286505 77.1007288 126.274802 77.1007288 126.274802 59.6942139 83.2478324 59.6942139 83.3191288 42.5229213 33.5933827 42.5229213 33.5933827 67.1447568 4.20916007 67.1447568 4.20916007 98.2786554"></polyline>
                            </g>
                        </g>
                    </g>
                </g>
            </g>
        </g>
    </g>
</svg>