<?xml version="1.0" encoding="UTF-8" standalone="no"?>
<svg width="184px" height="106px" viewBox="0 0 184 106" version="1.1" xmlns="http://www.w3.org/2000/svg" xmlns:xlink="http://www.w3.org/1999/xlink">
    <!-- Generator: Sketch 49 (51002) - http://www.bohemiancoding.com/sketch -->
    <title>Group 13</title>
    <desc>Created with Sketch.</desc>
    <defs></defs>
    <g id="报告" stroke="none" stroke-width="1" fill="none" fill-rule="evenodd">
        <g id="报告－所有报表" transform="translate(-626.000000, -596.000000)">
            <g id="Group-5" transform="translate(274.000000, 132.000000)">
                <g id="所有报表－燃尽图" transform="translate(304.000000, 422.000000)">
                    <g id="Group" transform="translate(30.000000, 18.000000)">
                        <g id="Group-13" transform="translate(18.000000, 24.000000)">
                            <g id="Group-2" stroke="#DFDFDF" stroke-linecap="square">
                                <path d="M0.93877551,105 L183.389585,105" id="Line"></path>
                                <path d="M0.77459504,79 L183.225405,79" id="Line"></path>
                                <path d="M0.77459504,53 L183.225405,53" id="Line"></path>
                                <path d="M0.77459504,27 L183.225405,27" id="Line"></path>
                                <path d="M0.77459504,1 L183.225405,1" id="Line"></path>
                            </g>
                            <g id="chart" transform="translate(12.000000, 17.000000)" fill-opacity="0.6">
                                <g id="Group-8" transform="translate(0.067545, 22.950820)">
                                    <path d="M2,6.55737705 L9.25596092,6.55737705 C10.3605304,6.55737705 11.2559609,7.45280755 11.2559609,8.55737705 L11.2559609,65.5737705 L0,65.5737705 L0,8.55737705 C-1.3527075e-16,7.45280755 0.8954305,6.55737705 2,6.55737705 Z" id="Rectangle-3" fill="#D3D3D3"></path>
                                    <path d="M14.5801916,0 L21.8361525,0 C22.940722,-2.02906125e-16 23.8361525,0.8954305 23.8361525,2 L23.8361525,65.5737705 L12.5801916,65.5737705 L12.5801916,2 C12.5801916,0.8954305 13.4756221,2.02906125e-16 14.5801916,0 Z" id="Rectangle-3" fill="#00BFA5"></path>
                                </g>
                                <g id="Group-8" transform="translate(45.367270, 0.000000)">
                                    <path d="M2,38.0327869 L9.25596092,38.0327869 C10.3605304,38.0327869 11.2559609,38.9282174 11.2559609,40.0327869 L11.2559609,88.5245902 L0,88.5245902 L0,40.0327869 C-1.3527075e-16,38.9282174 0.8954305,38.0327869 2,38.0327869 Z" id="Rectangle-3" fill="#D3D3D3"></path>
                                    <path d="M14.5801916,0 L21.8361525,0 C22.940722,-1.18396092e-15 23.8361525,0.8954305 23.8361525,2 L23.8361525,88.5245902 L12.5801916,88.5245902 L12.5801916,2 C12.5801916,0.8954305 13.4756221,2.02906125e-16 14.5801916,0 Z" id="Rectangle-3" fill="#00BFA5"></path>
                                </g>
                                <g id="Group-8" transform="translate(90.666995, 9.180328)">
                                    <path d="M2,6.55737705 L9.25596092,6.55737705 C10.3605304,6.55737705 11.2559609,7.45280755 11.2559609,8.55737705 L11.2559609,79.3442623 L0,79.3442623 L0,8.55737705 C-1.3527075e-16,7.45280755 0.8954305,6.55737705 2,6.55737705 Z" id="Rectangle-3" fill="#D3D3D3"></path>
                                    <path d="M14.5801916,0 L21.8361525,0 C22.940722,7.78148667e-16 23.8361525,0.8954305 23.8361525,2 L23.8361525,79.3442623 L12.5801916,79.3442623 L12.5801916,2 C12.5801916,0.8954305 13.4756221,2.02906125e-16 14.5801916,0 Z" id="Rectangle-3" fill="#00BFA5"></path>
                                </g>
                                <g id="Group-8" transform="translate(135.966720, 22.950820)">
                                    <path d="M2,6.55737705 L9.25596092,6.55737705 C10.3605304,6.55737705 11.2559609,7.45280755 11.2559609,8.55737705 L11.2559609,65.5737705 L0,65.5737705 L0,8.55737705 C-1.3527075e-16,7.45280755 0.8954305,6.55737705 2,6.55737705 Z" id="Rectangle-3" fill="#D3D3D3"></path>
                                    <path d="M14.5801916,0 L21.8361525,0 C22.940722,-2.02906125e-16 23.8361525,0.8954305 23.8361525,2 L23.8361525,65.5737705 L12.5801916,65.5737705 L12.5801916,2 C12.5801916,0.8954305 13.4756221,2.02906125e-16 14.5801916,0 Z" id="Rectangle-3" fill="#00BFA5"></path>
                                </g>
                            </g>
                        </g>
                    </g>
                </g>
            </g>
        </g>
    </g>
</svg>