<?xml version="1.0" encoding="UTF-8" standalone="no"?>
<svg width="184px" height="106px" viewBox="0 0 184 106" version="1.1" xmlns="http://www.w3.org/2000/svg" xmlns:xlink="http://www.w3.org/1999/xlink">
    <!-- Generator: Sketch 49 (51002) - http://www.bohemiancoding.com/sketch -->
    <title>Group 2</title>
    <desc>Created with Sketch.</desc>
    <defs></defs>
    <g id="Symbols" stroke="none" stroke-width="1" fill="none" fill-rule="evenodd">
        <g id="所有报表－燃尽图" transform="translate(-48.000000, -42.000000)">
            <g id="Group">
                <g transform="translate(30.000000, 18.000000)">
                    <g id="Group-2" transform="translate(18.000000, 24.000000)">
                        <rect id="Rectangle-2" fill="#F3F3F3" x="43.1836735" y="0" width="24.4081633" height="106" rx="4"></rect>
                        <rect id="Rectangle-2" fill="#F3F3F3" x="105.142857" y="0" width="24.4081633" height="106" rx="4"></rect>
                        <path d="M0.93877551,105 L183.389585,105" id="Line" stroke="#DFDFDF" stroke-linecap="square"></path>
                        <path d="M0.77459504,79 L183.225405,79" id="Line" stroke="#DFDFDF" stroke-linecap="square"></path>
                        <path d="M0.77459504,53 L183.225405,53" id="Line" stroke="#DFDFDF" stroke-linecap="square"></path>
                        <path d="M0.77459504,27 L183.225405,27" id="Line" stroke="#DFDFDF" stroke-linecap="square"></path>
                        <path d="M0.77459504,1 L183.225405,1" id="Line" stroke="#DFDFDF" stroke-linecap="square"></path>
                        <path d="M5.78643953,3.53191489 L177.287414,102.468085" id="Line-2" stroke="#979797" stroke-linecap="square" stroke-dasharray="3,3"></path>
                        <path d="M7.25761874,5 L45.0397644,13.8504047 C45.5789217,13.9767015 46.041585,14.3208826 46.3175539,14.8009687 L66.5817383,50.0533215 C67.0116985,50.8012967 67.8728374,51.189255 68.7179526,51.0157239 L112.332283,42.060203 C113.27621,41.8663822 114.224142,42.3732098 114.587187,43.2658261 L136.473837,97.0782895 C136.74244,97.7386988 137.342287,98.2061902 138.048301,98.3053483 L178.594674,104" id="Line-3" stroke="#F44336" stroke-width="2" stroke-linecap="square"></path>
                    </g>
                </g>
            </g>
        </g>
    </g>
</svg>