<?xml version="1.0" encoding="UTF-8"?>
<svg width="80px" height="40px" viewBox="0 0 80 40" version="1.1" xmlns="http://www.w3.org/2000/svg" xmlns:xlink="http://www.w3.org/1999/xlink">
    <!-- Generator: Sketch 52.6 (67491) - http://www.bohemiancoding.com/sketch -->
    <title>Group 2 Copy 10</title>
    <desc>Created with Sketch.</desc>
    <g id="自定义字段/页面" stroke="none" stroke-width="1" fill="none" fill-rule="evenodd">
        <g id="字段类型" transform="translate(-110.000000, -623.000000)">
            <g id="Group-2-Copy-10" transform="translate(110.000000, 623.000000)">
                <rect id="Rectangle-8" stroke="#D9D9D9" fill="#FFFFFF" x="0.5" y="0.5" width="79" height="39"></rect>
                <rect id="Rectangle-10-Copy" fill="#F1F3F7" x="10" y="11" width="60" height="18"></rect>
                <path d="M18.0033333,19.5 L17.0022222,19.5 L17.0022222,20.5 L18.0033333,20.5 L18.0033333,19.5 L18.0033333,19.5 Z M20.0055556,19.5 L19.0044444,19.5 L19.0044444,20.5 L20.0055556,20.5 L20.0055556,19.5 L20.0055556,19.5 Z M22.0077778,19.5 L21.0066667,19.5 L21.0066667,20.5 L22.0077778,20.5 L22.0077778,19.5 L22.0077778,19.5 Z M23.0088889,16 L22.5083333,16 L22.5083333,15 L21.5072222,15 L21.5072222,16 L17.5027778,16 L17.5027778,15 L16.5016667,15 L16.5016667,16 L16.0011111,16 C15.4454944,16 15.0050056,16.45 15.0050056,17 L15,24 C15,24.55 15.4454944,25 16.0011111,25 L23.0088889,25 C23.5595,25 24.01,24.55 24.01,24 L24.01,17 C24.01,16.45 23.5595,16 23.0088889,16 L23.0088889,16 Z M23.0088889,24 L16.0011111,24 L16.0011111,18.5 L23.0088889,18.5 L23.0088889,24 L23.0088889,24 Z" id="Shape" fill="#3F51B5"></path>
                <polyline id="Fill-213" fill="#3F51B5" points="59 19 62 22 65 19 59 19"></polyline>
            </g>
        </g>
    </g>
</svg>