<?xml version="1.0" encoding="UTF-8"?>
<svg width="183px" height="166px" viewBox="0 0 183 166" version="1.1" xmlns="http://www.w3.org/2000/svg" xmlns:xlink="http://www.w3.org/1999/xlink">
    <!-- Generator: Sketch 51 (57462) - http://www.bohemiancoding.com/sketch -->
    <title>todo</title>
    <desc>Created with Sketch.</desc>
    <defs></defs>
    <g id="空界面" stroke="none" stroke-width="1" fill="none" fill-rule="evenodd">
        <g id="Artboard-2" transform="translate(-3.000000, -14.000000)">
            <g id="todo" transform="translate(3.000000, 14.000000)">
                <rect id="Rectangle-8" fill="#DEE0ED" x="0" y="20" width="134" height="146" rx="6"></rect>
                <path d="M16,10 L118.476995,10 L144,33.7631788 L144,150 C144,153.313708 141.313708,156 138,156 L16,156 C12.6862915,156 10,153.313708 10,150 L10,16 C10,12.6862915 12.6862915,10 16,10 Z" id="Rectangle-8-Copy-3" fill="#E8EAF4"></path>
                <path d="M26,-5.33262323e-12 L124,1.10844667e-12 L154,30 L154,140 C154,143.313708 151.313708,146 148,146 L26,146 C22.6862915,146 20,143.313708 20,140 L20,6 C20,2.6862915 22.6862915,-5.72547755e-12 26,-5.72608627e-12 Z" id="Rectangle-8-Copy" fill="#F2F4FD"></path>
                <circle id="Oval-2" fill="#DEE0ED" cx="47" cy="31" r="9"></circle>
                <circle id="Oval-2-Copy" fill="#DEE0ED" cx="47" cy="59" r="9"></circle>
                <circle id="Oval-2-Copy-3" fill="#DEE0ED" cx="47" cy="87" r="9"></circle>
                <rect id="Rectangle-9" fill="#E8EAF4" x="66" y="25" width="66" height="4" rx="2"></rect>
                <rect id="Rectangle-9-Copy" fill="#E8EAF4" x="66" y="53" width="66" height="4" rx="2"></rect>
                <rect id="Rectangle-9-Copy-5" fill="#E8EAF4" x="66" y="81" width="66" height="4" rx="2"></rect>
                <rect id="Rectangle-9-Copy-3" fill="#E8EAF4" x="66" y="33" width="37" height="4" rx="2"></rect>
                <rect id="Rectangle-9-Copy-4" fill="#E8EAF4" x="66" y="61" width="37" height="4" rx="2"></rect>
                <rect id="Rectangle-9-Copy-6" fill="#E8EAF4" x="66" y="89" width="37" height="4" rx="2"></rect>
                <g id="Group-4" transform="translate(30.000000, 104.000000)">
                    <rect id="Rectangle-2" fill="#6776C4" x="0" y="0" width="134" height="28" rx="2"></rect>
                    <circle id="Oval-2-Copy-2" fill="#FFBA1C" cx="27" cy="14" r="9"></circle>
                    <rect id="Rectangle-9-Copy-7" fill="#FFFFFF" x="46" y="8" width="66" height="4" rx="2"></rect>
                    <rect id="Rectangle-9-Copy-8" fill="#FFFFFF" x="46" y="16" width="37" height="4" rx="2"></rect>
                </g>
                <path d="M169.360494,146.39639 L169.360494,161 C169.360494,162.104569 168.465063,163 167.360494,163 L153.639589,163 C152.535019,163 151.639589,162.104569 151.639589,161 L151.639589,146.39639 L139.977535,146.39639 C139.532706,146.39639 139.100572,146.248094 138.749476,145.974956 C137.877658,145.296718 137.720731,144.040149 138.398969,143.168331 L158.921475,116.788376 C159.023324,116.657457 159.141064,116.539718 159.271983,116.437868 C160.143801,115.75963 161.400369,115.916558 162.078608,116.788376 L182.601114,143.168331 C182.874252,143.519427 183.022548,143.951561 183.022548,144.39639 C183.022548,145.50096 182.127117,146.39639 181.022548,146.39639 L169.360494,146.39639 Z" id="Combined-Shape" fill="#2A2E76" transform="translate(160.500000, 139.500000) rotate(-45.000000) translate(-160.500000, -139.500000) "></path>
                <path d="M124,-5.72697445e-12 L148,-5.72697445e-12 C151.313708,-5.72758317e-12 154,2.6862915 154,6 L154,30 L124,-5.72697445e-12 Z" id="Rectangle-8-Copy-2" fill="#DEE0ED" transform="translate(139.000000, 15.000000) scale(-1, -1) translate(-139.000000, -15.000000) "></path>
            </g>
        </g>
    </g>
</svg>