<?xml version="1.0" encoding="UTF-8"?>
<svg width="194px" height="152px" viewBox="0 0 194 152" version="1.1" xmlns="http://www.w3.org/2000/svg" xmlns:xlink="http://www.w3.org/1999/xlink">
    <!-- Generator: Sketch 51 (57462) - http://www.bohemiancoding.com/sketch -->
    <title>active-sprint</title>
    <desc>Created with Sketch.</desc>
    <defs></defs>
    <g id="空界面" stroke="none" stroke-width="1" fill="none" fill-rule="evenodd">
        <g id="Artboard-2" transform="translate(-3.000000, -24.000000)">
            <g id="active-sprint" transform="translate(3.000000, 24.000000)">
                <rect id="Rectangle-7" fill="#E0E5FF" x="0" y="0" width="90" height="18" rx="4"></rect>
                <rect id="Rectangle-4" fill="#CFD5F1" x="5" y="5" width="28" height="8" rx="2"></rect>
                <rect id="Rectangle-7-Copy-2" fill="#F2F4FD" x="0" y="32" width="90" height="120" rx="4"></rect>
                <g id="Group-2" transform="translate(4.000000, 36.000000)">
                    <rect id="Rectangle-7-Copy-2" fill="#E8EAF4" x="0" y="0" width="82" height="52" rx="4"></rect>
                    <circle id="Oval-3" fill="#DEE0ED" cx="17" cy="16" r="7"></circle>
                    <rect id="Rectangle-3" fill="#DEE0ED" x="32" y="10" width="40" height="4" rx="2"></rect>
                    <rect id="Rectangle-3-Copy-2" fill="#DEE0ED" x="10" y="31" width="62" height="4" rx="2"></rect>
                    <rect id="Rectangle-3-Copy" fill="#DEE0ED" x="32" y="18" width="40" height="4" rx="2"></rect>
                    <rect id="Rectangle-3-Copy-3" fill="#DEE0ED" x="10" y="39" width="40" height="4" rx="2"></rect>
                </g>
                <rect id="Rectangle-7-Copy" fill="#E0E5FF" x="104" y="0" width="90" height="18" rx="4"></rect>
                <rect id="Rectangle-4-Copy" fill="#CFD5F1" x="109" y="5" width="28" height="8" rx="2"></rect>
                <rect id="Rectangle-7-Copy-3" fill="#F2F4FD" x="104" y="32" width="90" height="120" rx="4"></rect>
                <path d="M112,36 L186,36 C188.209139,36 190,37.790861 190,40 L190,84 C190,86.209139 188.209139,88 186,88 L112,88 C109.790861,88 108,86.209139 108,84 L108,40 C108,37.790861 109.790861,36 112,36 Z" id="Rectangle-7-Copy-2" stroke="#CFD5F1" fill="#F9FAFF" stroke-linecap="round" stroke-linejoin="round" stroke-dasharray="3,4"></path>
                <g id="Group-2-Copy" transform="translate(108.000000, 96.000000)">
                    <rect id="Rectangle-7-Copy-2" fill="#E8EAF4" x="0" y="0" width="82" height="52" rx="4"></rect>
                    <circle id="Oval-3" fill="#DEE0ED" cx="17" cy="16" r="7"></circle>
                    <rect id="Rectangle-3" fill="#DEE0ED" x="32" y="10" width="40" height="4" rx="2"></rect>
                    <rect id="Rectangle-3-Copy-2" fill="#DEE0ED" x="10" y="31" width="62" height="4" rx="2"></rect>
                    <rect id="Rectangle-3-Copy" fill="#DEE0ED" x="32" y="18" width="40" height="4" rx="2"></rect>
                    <rect id="Rectangle-3-Copy-3" fill="#DEE0ED" x="10" y="39" width="40" height="4" rx="2"></rect>
                </g>
                <path id="Path-2" d="M161.348645,63.3742262 C161.69425,65.8353602 159.979276,68.1106719 157.518142,68.4562773 C155.057008,68.8018826 152.781696,67.0869078 152.43609,64.6257738 C152.090485,62.1646398 153.80546,59.8893281 156.266594,59.5437227 C158.727728,59.1981174 161.00304,60.9130922 161.348645,63.3742262 Z M90.925254,135.878348 C90.6522147,135.837067 90.4643375,135.58226 90.5056185,135.309221 C90.5468996,135.036181 90.8017066,134.848304 91.074746,134.889585 C92.4125914,135.091855 93.7298529,135.282369 95.0265287,135.461129 C95.3000839,135.498841 95.4912724,135.751173 95.4535602,136.024728 C95.415848,136.298283 95.163516,136.489471 94.8899609,136.451759 C93.5889368,136.272401 92.2673684,136.081264 90.925254,135.878348 Z M98.8647046,136.970948 C98.5906323,136.937198 98.3958119,136.68766 98.429561,136.413588 C98.46331,136.139515 98.7128485,135.944695 98.9869208,135.978444 C100.331708,136.14404 101.652811,136.296118 102.950227,136.434678 C103.224808,136.464002 103.423628,136.710366 103.394303,136.984947 C103.364979,137.259528 103.118615,137.458348 102.844034,137.429024 C101.541221,137.289887 100.214778,137.137195 98.8647046,136.970948 Z M106.835508,137.819441 C106.56044,137.795104 106.357183,137.552388 106.38152,137.27732 C106.405856,137.002253 106.648572,136.798995 106.92364,136.823332 C108.277178,136.943087 109.602839,137.046944 110.900619,137.134906 C111.176129,137.153579 111.384337,137.392062 111.365663,137.667573 C111.346989,137.943083 111.108506,138.15129 110.832996,138.132616 C109.528298,138.044186 108.195804,137.939794 106.835508,137.819441 Z M114.844154,138.358078 C114.568279,138.345913 114.354501,138.112411 114.366667,137.836536 C114.378832,137.560662 114.612334,137.346884 114.888208,137.359049 C116.249653,137.419085 117.577417,137.459941 118.871493,137.481619 C119.147597,137.486244 119.367673,137.71382 119.363048,137.989924 C119.358423,138.266027 119.130847,138.486104 118.854743,138.481479 C117.551443,138.459646 116.214582,138.418511 114.844154,138.358078 Z M122.87568,138.486001 C122.599571,138.490254 122.372292,138.269871 122.368039,137.993761 C122.363785,137.717652 122.584169,137.490373 122.860278,137.486119 C124.228226,137.465048 125.553951,137.419986 126.837439,137.350947 C127.113182,137.336115 127.348741,137.547625 127.363573,137.823369 C127.378406,138.099113 127.166895,138.334671 126.891151,138.349504 C125.5947,138.41924 124.256214,138.464735 122.87568,138.486001 Z M130.902067,138.043012 C130.627315,138.070687 130.38215,137.870391 130.354475,137.595638 C130.326801,137.320886 130.527097,137.075721 130.801849,137.048047 C132.17038,136.910202 133.483215,136.740849 134.740328,136.540025 C135.013013,136.496463 135.269381,136.682204 135.312943,136.954889 C135.356504,137.227574 135.170763,137.483942 134.898078,137.527504 C133.621485,137.73144 132.28949,137.903264 130.902067,138.043012 Z M138.867937,136.74783 C138.599231,136.81148 138.329802,136.645249 138.266152,136.376543 C138.202502,136.107836 138.368733,135.838407 138.637439,135.774757 C139.982075,135.456245 141.248331,135.093764 142.436192,134.687434 C142.697471,134.598059 142.981732,134.737414 143.071107,134.998693 C143.160483,135.259972 143.021127,135.544234 142.759848,135.633609 C141.540635,136.050663 140.243337,136.42203 138.867937,136.74783 Z M146.546243,134.06833 C146.298923,134.191161 145.998856,134.090242 145.876026,133.842922 C145.753195,133.595602 145.854113,133.295536 146.101433,133.172705 C147.332531,132.561284 148.447607,131.885595 149.446972,131.145889 C149.668928,130.981602 149.98204,131.028353 150.146326,131.250309 C150.310613,131.472265 150.263862,131.785377 150.041906,131.949663 C148.994091,132.725231 147.828766,133.431369 146.546243,134.06833 Z M153.042837,129.172816 C152.863488,129.382788 152.54788,129.407614 152.337907,129.228265 C152.127935,129.048916 152.103109,128.733308 152.282458,128.523335 C153.134203,127.526156 153.83826,126.445658 154.395338,125.28099 C154.514492,125.031877 154.813031,124.926525 155.062143,125.045679 C155.311255,125.164833 155.416607,125.463372 155.297453,125.712485 C154.702675,126.955973 153.9509,128.1097 153.042837,129.172816 Z M156.702436,121.850263 C156.628816,122.116411 156.35338,122.272485 156.087232,122.198865 C155.821084,122.125245 155.665009,121.849809 155.73863,121.583661 C156.105062,120.25895 156.336483,118.979822 156.438812,117.739705 C156.461521,117.464498 156.70303,117.259808 156.978237,117.282517 C157.253444,117.305226 157.458134,117.546735 157.435425,117.821942 C157.327869,119.125396 157.085298,120.466161 156.702436,121.850263 Z M157.313932,113.694427 C157.353921,113.967658 157.16484,114.221574 156.891609,114.261563 C156.618377,114.301552 156.364462,114.112471 156.324473,113.83924 C156.136999,112.558293 155.800872,111.312171 155.320532,110.084039 C155.219949,109.826867 155.346889,109.536848 155.604061,109.436265 C155.861233,109.335681 156.151252,109.462621 156.251835,109.719793 C156.759311,111.017307 157.115243,112.336852 157.313932,113.694427 Z M154.403674,106.072382 C154.549322,106.30699 154.477206,106.615249 154.242597,106.760897 C154.007988,106.906545 153.699729,106.834428 153.554081,106.59982 C152.902869,105.550852 152.145169,104.497666 151.260374,103.396588 C151.087401,103.181332 151.121678,102.866611 151.336933,102.693638 C151.552188,102.520665 151.86691,102.554941 152.039883,102.770197 C152.948686,103.901151 153.729678,104.986714 154.403674,106.072382 Z M149.364924,99.6810437 C149.55139,99.8847225 149.537437,100.200997 149.333758,100.387463 C149.130079,100.573929 148.813804,100.559976 148.627338,100.356297 C148.170075,99.8568233 147.707054,99.359703 147.045631,98.6556832 C147.12357,98.7386413 146.161205,97.7152464 145.900897,97.437448 C145.712081,97.2359456 145.722366,96.9195302 145.923868,96.7307144 C146.125371,96.5418986 146.441786,96.5521831 146.630602,96.7536854 C146.890198,97.0307243 147.85181,98.0533191 147.774442,97.9709684 C148.438565,98.677861 148.904156,99.1777411 149.364924,99.6810437 Z M143.987805,93.8434941 C144.168306,94.0524774 144.145217,94.3682168 143.936234,94.5487177 C143.72725,94.7292187 143.411511,94.7061292 143.23101,94.497146 C142.256747,93.3691486 141.437514,92.3321229 140.727383,91.310991 C140.569721,91.0842812 140.625696,90.7726863 140.852406,90.6150244 C141.079115,90.4573625 141.39071,90.5133369 141.548372,90.7400467 C142.2367,91.7298269 143.034865,92.7401835 143.987805,93.8434941 Z M139.580131,87.3074869 C139.692251,87.5598433 139.578566,87.8553096 139.32621,87.9674294 C139.073853,88.0795491 138.778387,87.9658647 138.666267,87.7135083 C138.443044,87.2110817 138.247136,86.7073354 138.078773,86.2005947 C137.810621,85.3935088 137.611393,84.5887768 137.479974,83.7878334 C137.435263,83.5153348 137.619921,83.2581852 137.892419,83.2134735 C138.164918,83.1687619 138.422068,83.3534198 138.466779,83.6259183 C138.589604,84.3744861 138.77614,85.1279504 139.027765,85.8852951 C139.185738,86.3607645 139.369889,86.8342792 139.580131,87.3074869 Z M138.402367,79.7354206 C138.365816,80.0091333 138.114298,80.2013912 137.840585,80.1648405 C137.566872,80.1282899 137.374615,79.8767717 137.411165,79.603059 C137.59333,78.2389045 137.975554,76.9069569 138.544296,75.6201437 C138.655928,75.3675709 138.951174,75.2533154 139.203747,75.3649469 C139.456319,75.4765784 139.570575,75.7718243 139.458943,76.0243971 C138.927799,77.2261423 138.571775,78.4667875 138.402367,79.7354206 Z M141.454955,72.6946237 C141.286629,72.9135323 140.972714,72.9545376 140.753805,72.7862116 C140.534897,72.6178856 140.493891,72.3039699 140.662217,72.0850613 C141.477859,71.0243169 142.423347,70.025347 143.475398,69.1046084 C143.683197,68.9227456 143.999081,68.9437714 144.180944,69.1515707 C144.362806,69.35937 144.341781,69.6752535 144.133981,69.8571163 C143.130207,70.7356035 142.229772,71.6869718 141.454955,72.6946237 Z M147.30905,67.5346183 C147.073135,67.6781408 146.76554,67.6032418 146.622017,67.3673268 C146.478495,67.1314117 146.553394,66.8238168 146.789309,66.6802944 C147.967901,65.96328 149.200128,65.3497357 150.445252,64.8576409 C150.702065,64.7561438 150.992533,64.8820523 151.09403,65.1388654 C151.195527,65.3956785 151.069618,65.6861462 150.812805,65.7876433 C149.620628,66.2588128 148.439299,66.8470142 147.30905,67.5346183 Z" fill="#2A2E76" fill-rule="nonzero"></path>
                <g id="Group-5" transform="translate(49.500000, 111.500000) rotate(10.000000) translate(-49.500000, -111.500000) translate(7.000000, 83.000000)">
                    <rect id="Rectangle-7-Copy-4" fill="#6776C4" x="0.489836046" y="0.195779818" width="84" height="56" rx="4"></rect>
                    <circle id="Oval" fill="#FFBA1C" cx="20.3033026" cy="16.9470685" r="9"></circle>
                    <rect id="Rectangle" fill="#FFFFFF" x="37" y="11" width="38" height="4" rx="2"></rect>
                    <rect id="Rectangle-Copy-2" fill="#2A2E76" x="11.0060063" y="34.9470685" width="64.0112245" height="4" rx="2"></rect>
                    <rect id="Rectangle-Copy" fill="#FFFFFF" x="37" y="19" width="38" height="4" rx="2"></rect>
                    <rect id="Rectangle-Copy-3" fill="#2A2E76" x="11.0060063" y="42.9470685" width="39.3915228" height="4" rx="2"></rect>
                </g>
            </g>
        </g>
    </g>
</svg>