<?xml version="1.0" encoding="UTF-8" standalone="no"?>
<svg width="185px" height="107px" viewBox="0 0 185 107" version="1.1" xmlns="http://www.w3.org/2000/svg" xmlns:xlink="http://www.w3.org/1999/xlink">
    <!-- Generator: Sketch 49 (51002) - http://www.bohemiancoding.com/sketch -->
    <title>Group 8</title>
    <desc>Created with Sketch.</desc>
    <defs></defs>
    <g id="Page-1" stroke="none" stroke-width="1" fill="none" fill-rule="evenodd">
        <g id="报告－所有报表" transform="translate(-625.000000, -279.000000)">
            <g id="Group-5" transform="translate(274.000000, 132.000000)">
                <g id="所有报表－燃尽图" transform="translate(304.000000, 106.000000)">
                    <g id="Group" transform="translate(30.000000, 18.000000)">
                        <g id="Group-8" transform="translate(18.000000, 24.000000)">
                            <g id="Group-6" transform="translate(0.000000, 66.000000)" fill="#000000" fill-opacity="0.08">
                                <g id="Rectangle-4">
                                    <rect x="0" y="0" width="80" height="8" rx="4"></rect>
                                    <rect x="90" y="0" width="40" height="8" rx="4"></rect>
                                    <rect x="140" y="0" width="44" height="8" rx="4"></rect>
                                </g>
                            </g>
                            <g id="Group-6" transform="translate(0.000000, 82.000000)" fill="#000000" fill-opacity="0.08">
                                <g id="Rectangle-4">
                                    <rect x="0" y="0" width="80" height="8" rx="4"></rect>
                                    <rect x="90" y="0" width="40" height="8" rx="4"></rect>
                                    <rect x="140" y="0" width="44" height="8" rx="4"></rect>
                                </g>
                            </g>
                            <g id="Group-6" transform="translate(0.000000, 98.000000)" fill="#000000" fill-opacity="0.08">
                                <g id="Rectangle-4">
                                    <rect x="0" y="0" width="80" height="8" rx="4"></rect>
                                    <rect x="90" y="0" width="40" height="8" rx="4"></rect>
                                    <rect x="140" y="0" width="44" height="8" rx="4"></rect>
                                </g>
                            </g>
                            <g id="Group-2">
                                <rect id="Rectangle-2" fill="#F3F3F3" x="23.4133992" y="0" width="13.2336604" height="50" rx="4"></rect>
                                <rect id="Rectangle-2" fill="#F3F3F3" x="57.0065372" y="0" width="13.2336604" height="50" rx="4"></rect>
                                <path d="M0.508986939,49.5283019 L99.4304844,49.5283019" id="Line" stroke="#DFDFDF" stroke-linecap="square"></path>
                                <path d="M0.419971286,37.2641509 L99.3414687,37.2641509" id="Line" stroke="#DFDFDF" stroke-linecap="square"></path>
                                <path d="M0.419971286,25 L99.3414687,25" id="Line" stroke="#DFDFDF" stroke-linecap="square"></path>
                                <path d="M0.419971286,12.7358491 L99.3414687,12.7358491" id="Line" stroke="#DFDFDF" stroke-linecap="square"></path>
                                <path d="M0.419971286,0.471698113 L99.3414687,0.471698113" id="Line" stroke="#DFDFDF" stroke-linecap="square"></path>
                                <path d="M3.13730185,1.66599759 L96.1219986,48.3340024" id="Line-2" stroke="#979797" stroke-linecap="square" stroke-dasharray="3,3"></path>
                                <path d="M3.93494835,2.35849057 L24.0656913,6.4610565 C24.5857642,6.56704531 25.042379,6.87541352 25.3349698,7.3182454 L35.7647018,23.1034925 C36.2048588,23.7696636 36.9990703,24.1102081 37.7850769,23.9697951 L60.2747586,19.9522182 C61.1667912,19.7928647 62.0545051,20.2531653 62.438263,21.0740463 L73.7595991,45.291056 C74.0515486,45.9155533 74.6445336,46.3456753 75.3288145,46.4292873 L96.8307708,49.0566038" id="Line-3" stroke="#F44336" stroke-width="2" stroke-linecap="square"></path>
                            </g>
                        </g>
                    </g>
                </g>
            </g>
        </g>
    </g>
</svg>