<?xml version="1.0" encoding="UTF-8"?>
<svg width="200px" height="200px" viewBox="0 0 200 200" version="1.1" xmlns="http://www.w3.org/2000/svg" xmlns:xlink="http://www.w3.org/1999/xlink">
    <!-- Generator: Sketch 49.3 (51167) - http://www.bohemiancoding.com/sketch -->
    <title>活跃冲刺－空</title>
    <desc>Created with Sketch.</desc>
    <defs>
        <circle id="path-1" cx="100" cy="100" r="100"></circle>
        <rect id="path-3" x="0" y="0" width="62" height="26" rx="2"></rect>
        <rect id="path-4" x="0" y="0" width="62" height="26" rx="2"></rect>
        <rect id="path-5" x="0" y="0" width="62" height="26" rx="2"></rect>
        <rect id="path-6" x="0" y="0" width="62" height="26" rx="2"></rect>
        <rect id="path-7" x="0" y="0" width="62" height="26" rx="2"></rect>
        <rect id="path-8" x="0" y="0" width="62" height="26" rx="2"></rect>
        <rect id="path-9" x="0" y="0" width="62" height="26" rx="2"></rect>
    </defs>
    <g id="Page-1" stroke="none" stroke-width="1" fill="none" fill-rule="evenodd">
        <g id="用户故事地图-空状态" transform="translate(-490.000000, -293.000000)">
            <g id="活跃冲刺－空" transform="translate(490.000000, 293.000000)">
                <g id="Group-2">
                    <mask id="mask-2" fill="white">
                        <use xlink:href="#path-1"></use>
                    </mask>
                    <use id="Mask" fill="#5E92F2" xlink:href="#path-1"></use>
                </g>
                <g id="Group-3" transform="translate(19.000000, 15.000000)">
                    <rect id="Rectangle" fill="#B5CFFF" x="0" y="0" width="76" height="170" rx="2"></rect>
                    <g transform="translate(7.000000, 8.000000)">
                        <g id="Rectangle-2">
                            <use fill="#FFFFFF" fill-rule="evenodd" xlink:href="#path-3"></use>
                            <rect stroke="#3461B4" stroke-width="1" x="0.5" y="0.5" width="61" height="25" rx="2"></rect>
                        </g>
                        <g id="Group-4" transform="translate(4.000000, 18.000000)">
                            <circle id="Oval" fill="#00BFA5" cx="2" cy="2" r="2"></circle>
                            <circle id="Oval" fill="#4D90FE" cx="8" cy="2" r="2"></circle>
                            <circle id="Oval" fill="#FFB100" cx="14" cy="2" r="2"></circle>
                        </g>
                        <path d="M1,1 L61,1 L61,3 L1,3 L1,1 Z" id="Rectangle-2" fill-opacity="0.680000007" fill="#FFB100"></path>
                    </g>
                    <g id="空" transform="translate(7.000000, 40.000000)">
                        <g id="Group-3">
                            <g id="Rectangle-2">
                                <use fill="#FFFFFF" fill-rule="evenodd" xlink:href="#path-4"></use>
                                <rect stroke="#3461B4" stroke-width="1" x="0.5" y="0.5" width="61" height="25" rx="2"></rect>
                            </g>
                        </g>
                        <g id="Group" transform="translate(4.000000, 5.000000)">
                            <path d="M1.26122449,10.8 C0.564669438,10.8 0,10.2627417 0,9.6 C0,8.9372583 0.564669438,8.4 1.26122449,8.4 L24.3836735,8.4 C25.0802285,8.4 25.644898,8.9372583 25.644898,9.6 C25.644898,10.2627417 25.0802285,10.8 24.3836735,10.8 L1.26122449,10.8 Z" id="Line" fill-opacity="0.16" fill="#000000" fill-rule="nonzero"></path>
                            <path d="M1.68163265,16.2000001 C0.868985093,16.2000001 0.210204082,15.6627418 0.210204082,15 C0.210204082,14.3372583 0.868985093,13.8 1.68163265,13.8 L45.8244898,13.8 C46.6371374,13.8 47.2959184,14.3372583 47.2959184,15 C47.2959184,15.6627418 46.6371374,16.2000001 45.8244898,16.2000001 L1.68163265,16.2000001 Z" id="Line" fill-opacity="0.16" fill="#000000" fill-rule="nonzero"></path>
                            <g id="Group-3" transform="translate(-0.000000, 0.000000)">
                                <g id="Group-2" transform="translate(0.000000, 0.000000)">
                                    <rect id="Rectangle-11" fill="#4D90FE" x="0" y="0" width="5.04489796" height="4.8" rx="2.4"></rect>
                                    <g id="ic_assignment_black_24px" transform="translate(0.756735, 0.720000)">
                                        <polygon id="Shape" points="0 0 3.53142857 0 3.53142857 3.36 0 3.36"></polygon>
                                        <path d="M2.79571429,0.42 L2.18065714,0.42 C2.11885714,0.2576 1.957,0.14 1.76571429,0.14 C1.57442857,0.14 1.41257143,0.2576 1.35077143,0.42 L0.735714286,0.42 C0.573857143,0.42 0.441428571,0.546 0.441428571,0.7 L0.441428571,2.66 C0.441428571,2.814 0.573857143,2.94 0.735714286,2.94 L2.79571429,2.94 C2.95757143,2.94 3.09,2.814 3.09,2.66 L3.09,0.7 C3.09,0.546 2.95757143,0.42 2.79571429,0.42 Z M1.76571429,0.42 C1.84664286,0.42 1.91285714,0.483 1.91285714,0.56 C1.91285714,0.637 1.84664286,0.7 1.76571429,0.7 C1.68478571,0.7 1.61857143,0.637 1.61857143,0.56 C1.61857143,0.483 1.68478571,0.42 1.76571429,0.42 Z M2.06,2.38 L1.03,2.38 L1.03,2.1 L2.06,2.1 L2.06,2.38 Z M2.50142857,1.82 L1.03,1.82 L1.03,1.54 L2.50142857,1.54 L2.50142857,1.82 Z M2.50142857,1.26 L1.03,1.26 L1.03,0.98 L2.50142857,0.98 L2.50142857,1.26 Z" id="Shape" fill="#FFFFFF" fill-rule="nonzero"></path>
                                    </g>
                                </g>
                                <rect id="Rectangle-10" fill="#10CBB2" x="9.24897959" y="-5.68434189e-14" width="10.0897959" height="4.8" rx="2.4"></rect>
                            </g>
                        </g>
                    </g>
                    <g id="空" transform="translate(7.000000, 72.000000)">
                        <g id="Group-3">
                            <g id="Rectangle-2">
                                <use fill="#FFFFFF" fill-rule="evenodd" xlink:href="#path-5"></use>
                                <rect stroke="#3461B4" stroke-width="1" x="0.5" y="0.5" width="61" height="25" rx="2"></rect>
                            </g>
                        </g>
                        <g id="Group" transform="translate(4.000000, 5.000000)">
                            <path d="M1.26122449,10.8 C0.564669438,10.8 0,10.2627417 0,9.6 C0,8.9372583 0.564669438,8.4 1.26122449,8.4 L24.3836735,8.4 C25.0802285,8.4 25.644898,8.9372583 25.644898,9.6 C25.644898,10.2627417 25.0802285,10.8 24.3836735,10.8 L1.26122449,10.8 Z" id="Line" fill-opacity="0.16" fill="#000000" fill-rule="nonzero"></path>
                            <path d="M1.68163265,16.2000001 C0.868985093,16.2000001 0.210204082,15.6627418 0.210204082,15 C0.210204082,14.3372583 0.868985093,13.8 1.68163265,13.8 L45.8244898,13.8 C46.6371374,13.8 47.2959184,14.3372583 47.2959184,15 C47.2959184,15.6627418 46.6371374,16.2000001 45.8244898,16.2000001 L1.68163265,16.2000001 Z" id="Line" fill-opacity="0.16" fill="#000000" fill-rule="nonzero"></path>
                            <g id="Group-3" transform="translate(-0.000000, 0.000000)">
                                <g id="Group-2">
                                    <rect id="Rectangle-11" fill="#F44336" x="0" y="0" width="5" height="4.80000019" rx="2.4000001"></rect>
                                    <g id="ic_bug_report_black_24px" transform="translate(0.750000, 0.720000)">
                                        <polygon id="Shape" points="0 0 3.5 0 3.5 3.36000013 0 3.36000013"></polygon>
                                        <path d="M2.75,1.21333338 L2.35484375,1.21333338 C2.2915625,1.09893338 2.204375,1.00066671 2.09890625,0.925866703 L2.328125,0.686800027 L2.12984375,0.480000019 L1.8246875,0.798266698 C1.76,0.782133364 1.69390625,0.773333364 1.625,0.773333364 C1.55609375,0.773333364 1.49,0.782133364 1.42671875,0.798266698 L1.12015625,0.480000019 L0.921875,0.686800027 L1.1496875,0.925866703 C1.045625,1.00066671 0.9584375,1.09893338 0.89515625,1.21333338 L0.5,1.21333338 L0.5,1.50666673 L0.79390625,1.50666673 C0.786875,1.55506673 0.78125,1.60346673 0.78125,1.6533334 L0.78125,1.80000007 L0.5,1.80000007 L0.5,2.09333342 L0.78125,2.09333342 L0.78125,2.24000009 C0.78125,2.28986676 0.786875,2.33826676 0.79390625,2.38666676 L0.5,2.38666676 L0.5,2.68000011 L0.89515625,2.68000011 C1.04140625,2.94253345 1.3128125,3.12000012 1.625,3.12000012 C1.9371875,3.12000012 2.20859375,2.94253345 2.35484375,2.68000011 L2.75,2.68000011 L2.75,2.38666676 L2.45609375,2.38666676 C2.463125,2.33826676 2.46875,2.28986676 2.46875,2.24000009 L2.46875,2.09333342 L2.75,2.09333342 L2.75,1.80000007 L2.46875,1.80000007 L2.46875,1.6533334 C2.46875,1.60346673 2.463125,1.55506673 2.45609375,1.50666673 L2.75,1.50666673 L2.75,1.21333338 Z M1.90625,2.38666676 L1.34375,2.38666676 L1.34375,2.09333342 L1.90625,2.09333342 L1.90625,2.38666676 Z M1.90625,1.80000007 L1.34375,1.80000007 L1.34375,1.50666673 L1.90625,1.50666673 L1.90625,1.80000007 Z" id="Shape" fill="#FFFFFF" fill-rule="nonzero"></path>
                                    </g>
                                </g>
                                <rect id="Rectangle-10" fill="#10CBB2" x="9.24897959" y="0" width="10.0897959" height="4.8" rx="2.4"></rect>
                            </g>
                        </g>
                    </g>
                    <g id="空" transform="translate(7.000000, 104.000000)">
                        <g id="Group-3">
                            <g id="Rectangle-2">
                                <use fill="#FFFFFF" fill-rule="evenodd" xlink:href="#path-6"></use>
                                <rect stroke="#3461B4" stroke-width="1" x="0.5" y="0.5" width="61" height="25" rx="2"></rect>
                            </g>
                        </g>
                        <g id="Group" transform="translate(4.000000, 5.000000)">
                            <path d="M1.26122449,10.8 C0.564669438,10.8 0,10.2627417 0,9.6 C0,8.9372583 0.564669438,8.4 1.26122449,8.4 L24.3836735,8.4 C25.0802285,8.4 25.644898,8.9372583 25.644898,9.6 C25.644898,10.2627417 25.0802285,10.8 24.3836735,10.8 L1.26122449,10.8 Z" id="Line" fill-opacity="0.16" fill="#000000" fill-rule="nonzero"></path>
                            <path d="M1.68163265,16.2000001 C0.868985093,16.2000001 0.210204082,15.6627418 0.210204082,15 C0.210204082,14.3372583 0.868985093,13.8 1.68163265,13.8 L45.8244898,13.8 C46.6371374,13.8 47.2959184,14.3372583 47.2959184,15 C47.2959184,15.6627418 46.6371374,16.2000001 45.8244898,16.2000001 L1.68163265,16.2000001 Z" id="Line" fill-opacity="0.16" fill="#000000" fill-rule="nonzero"></path>
                            <g id="Group-3" transform="translate(-0.000000, 0.000000)">
                                <g id="Group-2" transform="translate(0.000000, 0.000000)">
                                    <rect id="Rectangle-11" fill="#4D90FE" x="0" y="0" width="5.04489796" height="4.8" rx="2.4"></rect>
                                    <g id="ic_assignment_black_24px" transform="translate(0.756735, 0.720000)">
                                        <polygon id="Shape" points="0 0 3.53142857 0 3.53142857 3.36 0 3.36"></polygon>
                                        <path d="M2.79571429,0.42 L2.18065714,0.42 C2.11885714,0.2576 1.957,0.14 1.76571429,0.14 C1.57442857,0.14 1.41257143,0.2576 1.35077143,0.42 L0.735714286,0.42 C0.573857143,0.42 0.441428571,0.546 0.441428571,0.7 L0.441428571,2.66 C0.441428571,2.814 0.573857143,2.94 0.735714286,2.94 L2.79571429,2.94 C2.95757143,2.94 3.09,2.814 3.09,2.66 L3.09,0.7 C3.09,0.546 2.95757143,0.42 2.79571429,0.42 Z M1.76571429,0.42 C1.84664286,0.42 1.91285714,0.483 1.91285714,0.56 C1.91285714,0.637 1.84664286,0.7 1.76571429,0.7 C1.68478571,0.7 1.61857143,0.637 1.61857143,0.56 C1.61857143,0.483 1.68478571,0.42 1.76571429,0.42 Z M2.06,2.38 L1.03,2.38 L1.03,2.1 L2.06,2.1 L2.06,2.38 Z M2.50142857,1.82 L1.03,1.82 L1.03,1.54 L2.50142857,1.54 L2.50142857,1.82 Z M2.50142857,1.26 L1.03,1.26 L1.03,0.98 L2.50142857,0.98 L2.50142857,1.26 Z" id="Shape" fill="#FFFFFF" fill-rule="nonzero"></path>
                                    </g>
                                </g>
                                <rect id="Rectangle-10" fill="#10CBB2" x="9.24897959" y="-5.68434189e-14" width="10.0897959" height="4.8" rx="2.4"></rect>
                            </g>
                        </g>
                    </g>
                </g>
                <g id="Group-3" transform="translate(105.000000, 15.000000)">
                    <rect id="Rectangle" fill="#B5CFFF" x="0" y="0" width="76" height="170" rx="2"></rect>
                    <g transform="translate(7.000000, 8.000000)">
                        <g id="Rectangle-2">
                            <use fill="#FFFFFF" fill-rule="evenodd" xlink:href="#path-7"></use>
                            <rect stroke="#3461B4" stroke-width="1" x="0.5" y="0.5" width="61" height="25" rx="2"></rect>
                        </g>
                        <g id="Group-4" transform="translate(4.000000, 18.000000)">
                            <circle id="Oval" fill="#00BFA5" cx="2" cy="2" r="2"></circle>
                            <circle id="Oval" fill="#4D90FE" cx="8" cy="2" r="2"></circle>
                            <circle id="Oval" fill="#FFB100" cx="14" cy="2" r="2"></circle>
                        </g>
                        <path d="M1,1 L61,1 L61,3 L1,3 L1,1 Z" id="Rectangle-2" fill="#00BFA5"></path>
                    </g>
                    <g id="空" transform="translate(7.000000, 40.000000)">
                        <g id="Group-3">
                            <g id="Rectangle-2">
                                <use fill="#FFFFFF" fill-rule="evenodd" xlink:href="#path-8"></use>
                                <rect stroke="#3461B4" stroke-width="1" x="0.5" y="0.5" width="61" height="25" rx="2"></rect>
                            </g>
                        </g>
                        <g id="Group" transform="translate(4.000000, 5.000000)">
                            <path d="M1.26122449,10.8 C0.564669438,10.8 0,10.2627417 0,9.6 C0,8.9372583 0.564669438,8.4 1.26122449,8.4 L24.3836735,8.4 C25.0802285,8.4 25.644898,8.9372583 25.644898,9.6 C25.644898,10.2627417 25.0802285,10.8 24.3836735,10.8 L1.26122449,10.8 Z" id="Line" fill-opacity="0.16" fill="#000000" fill-rule="nonzero"></path>
                            <path d="M1.68163265,16.2000001 C0.868985093,16.2000001 0.210204082,15.6627418 0.210204082,15 C0.210204082,14.3372583 0.868985093,13.8 1.68163265,13.8 L45.8244898,13.8 C46.6371374,13.8 47.2959184,14.3372583 47.2959184,15 C47.2959184,15.6627418 46.6371374,16.2000001 45.8244898,16.2000001 L1.68163265,16.2000001 Z" id="Line" fill-opacity="0.16" fill="#000000" fill-rule="nonzero"></path>
                            <g id="Group-3" transform="translate(-0.000000, 0.000000)">
                                <g id="Group-10">
                                    <rect id="Rectangle-11" fill="#00BFA5" x="0" y="0" width="5" height="4.80000019" rx="2.4000001"></rect>
                                    <g id="baseline-bookmark-24px" transform="translate(0.750000, 0.720000)">
                                        <path d="M2.47916667,0.420000017 L1.02083333,0.420000017 C0.860416667,0.420000017 0.730625,0.546000022 0.730625,0.700000028 L0.729166667,2.94000012 L1.75,2.5200001 L2.77083333,2.94000012 L2.77083333,0.700000028 C2.77083333,0.546000022 2.63958333,0.420000017 2.47916667,0.420000017 Z" id="Shape" fill="#FFFFFF" fill-rule="nonzero"></path>
                                        <polygon id="Shape" points="0 0 3.5 0 3.5 3.36000013 0 3.36000013"></polygon>
                                    </g>
                                </g>
                                <rect id="Rectangle-10" fill="#10CBB2" x="9.24897959" y="0" width="10.0897959" height="4.8" rx="2.4"></rect>
                            </g>
                        </g>
                    </g>
                    <g id="空" transform="translate(7.000000, 72.000000)">
                        <g id="Group-3">
                            <g id="Rectangle-2">
                                <use fill="#FFFFFF" fill-rule="evenodd" xlink:href="#path-9"></use>
                                <rect stroke="#3461B4" stroke-width="1" x="0.5" y="0.5" width="61" height="25" rx="2"></rect>
                            </g>
                        </g>
                        <g id="Group" transform="translate(4.000000, 5.000000)">
                            <path d="M1.26122449,10.8 C0.564669438,10.8 0,10.2627417 0,9.6 C0,8.9372583 0.564669438,8.4 1.26122449,8.4 L24.3836735,8.4 C25.0802285,8.4 25.644898,8.9372583 25.644898,9.6 C25.644898,10.2627417 25.0802285,10.8 24.3836735,10.8 L1.26122449,10.8 Z" id="Line" fill-opacity="0.16" fill="#000000" fill-rule="nonzero"></path>
                            <path d="M1.68163265,16.2000001 C0.868985093,16.2000001 0.210204082,15.6627418 0.210204082,15 C0.210204082,14.3372583 0.868985093,13.8 1.68163265,13.8 L45.8244898,13.8 C46.6371374,13.8 47.2959184,14.3372583 47.2959184,15 C47.2959184,15.6627418 46.6371374,16.2000001 45.8244898,16.2000001 L1.68163265,16.2000001 Z" id="Line" fill-opacity="0.16" fill="#000000" fill-rule="nonzero"></path>
                            <g id="Group-3" transform="translate(-0.000000, 0.000000)">
                                <g id="Group-2" transform="translate(0.000000, 0.000000)">
                                    <rect id="Rectangle-11" fill="#4D90FE" x="0" y="0" width="5.04489796" height="4.8" rx="2.4"></rect>
                                    <g id="ic_assignment_black_24px" transform="translate(0.756735, 0.720000)">
                                        <polygon id="Shape" points="0 0 3.53142857 0 3.53142857 3.36 0 3.36"></polygon>
                                        <path d="M2.79571429,0.42 L2.18065714,0.42 C2.11885714,0.2576 1.957,0.14 1.76571429,0.14 C1.57442857,0.14 1.41257143,0.2576 1.35077143,0.42 L0.735714286,0.42 C0.573857143,0.42 0.441428571,0.546 0.441428571,0.7 L0.441428571,2.66 C0.441428571,2.814 0.573857143,2.94 0.735714286,2.94 L2.79571429,2.94 C2.95757143,2.94 3.09,2.814 3.09,2.66 L3.09,0.7 C3.09,0.546 2.95757143,0.42 2.79571429,0.42 Z M1.76571429,0.42 C1.84664286,0.42 1.91285714,0.483 1.91285714,0.56 C1.91285714,0.637 1.84664286,0.7 1.76571429,0.7 C1.68478571,0.7 1.61857143,0.637 1.61857143,0.56 C1.61857143,0.483 1.68478571,0.42 1.76571429,0.42 Z M2.06,2.38 L1.03,2.38 L1.03,2.1 L2.06,2.1 L2.06,2.38 Z M2.50142857,1.82 L1.03,1.82 L1.03,1.54 L2.50142857,1.54 L2.50142857,1.82 Z M2.50142857,1.26 L1.03,1.26 L1.03,0.98 L2.50142857,0.98 L2.50142857,1.26 Z" id="Shape" fill="#FFFFFF" fill-rule="nonzero"></path>
                                    </g>
                                </g>
                                <rect id="Rectangle-10" fill="#10CBB2" x="9.24897959" y="-5.68434189e-14" width="10.0897959" height="4.8" rx="2.4"></rect>
                            </g>
                        </g>
                    </g>
                </g>
            </g>
        </g>
    </g>
</svg>