<?xml version="1.0" encoding="UTF-8"?>
<svg width="204px" height="200px" viewBox="0 0 204 200" version="1.1" xmlns="http://www.w3.org/2000/svg" xmlns:xlink="http://www.w3.org/1999/xlink">
    <!-- Generator: Sketch 49.3 (51167) - http://www.bohemiancoding.com/sketch -->
    <title>史诗燃耗图－空</title>
    <desc>Created with Sketch.</desc>
    <defs>
        <circle id="path-1" cx="100" cy="100" r="100"></circle>
        <filter x="-5.2%" y="-6.9%" width="112.4%" height="113.8%" filterUnits="objectBoundingBox" id="filter-3">
            <feOffset dx="1" dy="0" in="SourceAlpha" result="shadowOffsetOuter1"></feOffset>
            <feGaussianBlur stdDeviation="2" in="shadowOffsetOuter1" result="shadowBlurOuter1"></feGaussianBlur>
            <feColorMatrix values="0 0 0 0 0   0 0 0 0 0   0 0 0 0 0  0 0 0 0.222797781 0" type="matrix" in="shadowBlurOuter1" result="shadowMatrixOuter1"></feColorMatrix>
            <feMerge>
                <feMergeNode in="shadowMatrixOuter1"></feMergeNode>
                <feMergeNode in="SourceGraphic"></feMergeNode>
            </feMerge>
        </filter>
    </defs>
    <g id="空界面" stroke="none" stroke-width="1" fill="none" fill-rule="evenodd">
        <g id="报告-epic燃尽图为空" transform="translate(-521.000000, -391.000000)">
            <g id="史诗燃耗图－空" transform="translate(521.000000, 391.000000)">
                <g id="Group-2">
                    <mask id="mask-2" fill="white">
                        <use xlink:href="#path-1"></use>
                    </mask>
                    <use id="Mask" fill="#5E92F2" xlink:href="#path-1"></use>
                    <g id="已完成" mask="url(#mask-2)">
                        <g transform="translate(39.000000, 60.000000)" id="Group-17">
                            <g>
                                <rect id="Rectangle-10" fill="#B5CFFF" x="0.581033813" y="-4.54747351e-13" width="16" height="95"></rect>
                                <rect id="Rectangle-10-Copy" fill="#B5CFFF" x="30.1654359" y="34.0123457" width="16" height="60.9876543"></rect>
                                <rect id="Rectangle-10-Copy-2" fill="#B5CFFF" x="59.7498381" y="57.4691358" width="16" height="37.5308642"></rect>
                                <rect id="Rectangle-10-Copy-3" fill="#B5CFFF" x="89.3342402" y="19.9382716" width="16" height="75.0617284"></rect>
                            </g>
                        </g>
                    </g>
                </g>
                <g id="放风筝" filter="url(#filter-3)" transform="translate(150.727128, 70.605323) rotate(-13.000000) translate(-150.727128, -70.605323) translate(98.227128, 23.605323)" fill-rule="nonzero">
                    <path d="M57.5914968,44.6409574 L67.3166437,4.98753555 C67.6975393,3.43756742 69.0897586,2.34813165 70.6880279,2.34936898 L98.7288682,2.34936898 C100.638231,2.34934817 102.188582,3.8902164 102.197504,5.79678893 L102.197504,33.8617006 C102.198743,35.4576519 101.107725,36.8478522 99.5555057,37.2281953 L59.8444891,46.9392374 C59.2177623,47.0843166 58.5604148,46.8964206 58.1054996,46.4421652 C57.6505844,45.9879098 57.4624155,45.3315156 57.6077053,44.7056978 L57.5914968,44.6409574 Z" id="Shape" fill="#DBF271"></path>
                    <path d="M99.8571993,1.17468397 L71.3759273,1.17468397 C70.6301759,1.17818076 69.9050542,1.4197715 69.3063539,1.8642093 L102.682331,35.240519 C103.130318,34.637596 103.372203,33.9065349 103.372189,33.1555256 L103.372189,4.68797965 C103.372189,2.74764002 101.798474,1.17468397 99.8571993,1.17468397 Z" id="Shape" fill="#70B4EA"></path>
                    <path d="M98.5888065,1.17468503 L70.6379371,1.17468503 C69.0484711,1.17343086 67.66392,2.27766989 67.2851224,3.84869905 L57.6135413,44.0409353 C57.4586183,44.6769517 57.6420739,45.3490972 58.0971204,45.8126746 L101.022821,2.20819968 C100.379033,1.54764961 99.5029857,1.17566835 98.5888065,1.17468503 Z" id="Shape" fill="#BDD763"></path>
                    <path d="M71.006,1.17468503 C69.371802,1.17343086 67.9482858,2.27766989 67.5588278,3.84869905 L57.6150618,44.0409353 C57.4557788,44.6769517 57.6443973,45.3490972 58.1122501,45.8126746 L83.4025615,1.17468397 L71.006,1.17468503 Z" id="Shape" fill="#A7CD45"></path>
                    <path d="M70.2684648,1.43989966 C69.9236433,1.55980195 69.5991128,1.73313086 69.3063539,1.95375476 L85.8905387,18.7949434 L102.197505,2.21897027 C101.546222,1.55153571 100.659975,1.17567754 99.7351531,1.17468397 L71.3773386,1.17468397 C71.0058308,1.17481819 70.6368198,1.23640152 70.2847719,1.35701973 L70.2684648,1.43989966 Z" id="Shape" fill="#36A5DE"></path>
                    <path d="M70.256841,1.35078656 C69.9161854,1.46658998 69.5955758,1.63399362 69.3063539,1.84707546 L78.0862775,10.5721557 L83.4025615,1.17468397 L71.3523177,1.17468397 C70.9852983,1.1748136 70.6207456,1.23429169 70.272951,1.35078656 L70.256841,1.35078656 Z" id="Shape" fill="#1A91D1"></path>
                    <path d="M85.6345872,21.2400849 L99.647317,35.3075495 L62.5250152,44.359089 L85.6345872,21.2400849 Z M75.8354754,11.4369736 C76.2497469,11.8514142 76.8535607,12.0132716 77.419466,11.8615759 C77.9853713,11.7098801 78.4273937,11.2676774 78.5790276,10.701541 C78.7306614,10.1354047 78.56887,9.53134451 78.1545985,9.116904 L72.3077952,3.26771416 L99.418671,3.26771416 C100.446932,3.26771416 101.280502,4.10162462 101.280502,5.1303053 L101.280502,32.268585 L87.9537103,18.9363537 L97.8998087,8.98619579 C98.3140802,8.57175528 98.4758716,7.96769504 98.3242377,7.40155874 C98.1726039,6.83542244 97.7305815,6.39321965 97.1646762,6.2415239 C96.5987709,6.08982815 95.9949571,6.25168563 95.5806856,6.66612619 L85.6345872,16.6162841 L78.2089677,9.16028074 C77.5685595,8.51961115 76.5302527,8.51961111 75.8898445,9.16028064 C75.2494363,9.80095017 75.2494363,10.8396808 75.8898444,11.4803503 L83.315464,18.9200153 L60.2058922,42.0716963 L69.2537386,4.88522752 L75.8354754,11.4369736 Z M71.099238,1.0534725e-05 C68.7314342,-0.0047698203 66.6702545,1.61780402 66.1180228,3.92125504 L56.3189111,43.9506259 C56.1505676,44.5600689 56.1505676,45.2037739 56.3189111,45.813217 L52.333939,49.7998157 C49.772542,52.3433935 48.2524562,55.751873 48.0713254,59.3578492 L47.4670469,59.3578492 C46.5650636,59.3578492 45.8338617,60.0893496 45.8338617,60.991701 C45.8338617,61.8940524 46.5650636,62.6255528 47.4670469,62.6255528 L48.2673076,62.6255528 C48.7757868,65.5858233 50.1911316,68.3148997 52.3176072,70.4353649 L53.1831953,71.3013063 C57.6044652,75.7285657 57.6044652,82.9021337 53.1831953,87.3293932 L52.8565584,87.6398252 L52.562585,87.1986852 C52.0529645,86.4497334 51.0329377,86.2558857 50.2842915,86.7657143 C49.5356453,87.2755428 49.3418768,88.2959859 49.8514973,89.0449376 L50.1618026,89.4860777 C45.7960389,91.6517169 40.5352322,90.7833296 37.0963202,87.3293932 L30.1552827,80.3855228 C28.7082793,78.9476591 27.0573571,77.7309834 25.2557268,76.7747101 L25.5823639,76.1211694 C26.1403941,75.639252 26.3065335,74.8430911 25.9878407,74.1780736 C25.6691479,73.5130561 24.9446386,73.1440644 24.2196166,73.2775194 C23.4945946,73.4109743 22.9488196,74.0137873 22.8876082,74.7487339 L22.4793119,75.5493212 C14.9330042,72.9085656 6.5418964,74.8120877 0.872270507,80.4508768 L0.480306037,80.8430013 C-0.160102041,81.4836708 -0.160102008,82.5224013 0.48030611,83.1630708 C1.12071423,83.8037403 2.15902093,83.8037404 2.79942909,83.1630709 L3.19139356,82.7709464 C7.84819501,78.1205185 14.7117042,76.4622636 20.9767814,78.4739161 C20.5969747,79.2087454 20.6302561,79.8331809 20.949766,80.3244048 C21.2692759,80.8156286 21.8264731,81.0990121 22.4114668,81.0678073 C22.9964605,81.0366026 23.5203762,80.6955505 23.78586,80.173122 L23.9981743,79.7646591 C25.48047,80.5672745 26.8391461,81.5798187 28.0321419,82.7709464 L34.9731794,89.714817 C39.5218334,94.2239583 46.4651162,95.268189 52.1379568,92.296303 L52.4809257,92.802797 C52.9905463,93.5517486 54.010573,93.7455962 54.7592191,93.2357676 C55.5078652,92.725939 55.7016337,91.705496 55.1920132,90.9565443 L54.8327125,90.4337119 C55.0940221,90.2049725 55.3553319,89.9598948 55.6166415,89.714817 C61.3152193,84.011145 61.3152193,74.7666013 55.6166415,69.0629293 L54.7510532,68.2133262 C53.2421272,66.701921 52.194199,64.7922132 51.7296605,62.7072455 L52.2849435,62.7072455 C53.1869268,62.7072455 53.9181288,61.9757451 53.9181288,61.0733936 C53.9181288,60.1710421 53.1869268,59.4395417 52.2849435,59.4395417 L51.4683508,59.4395417 C51.6396738,56.7046666 52.8008327,54.1258418 54.7347214,52.1852393 L58.8176846,48.1332868 C59.1504535,48.2393513 59.4973483,48.2944364 59.8465913,48.2966719 C60.1271238,48.296937 60.4067044,48.2640317 60.6795158,48.1986408 L100.692556,38.3955296 C102.951409,37.8220085 104.536585,35.7926925 104.546873,33.4612968 L104.546873,5.1303053 C104.546873,2.29692171 102.250899,1.0534725e-05 99.418671,1.0534725e-05 L71.099238,1.0534725e-05 Z" id="Shape" fill="#FFFFFF"></path>
                </g>
            </g>
        </g>
    </g>
</svg>
