<?xml version="1.0" encoding="UTF-8" standalone="no"?>
<svg width="212px" height="200px" viewBox="0 0 212 200" version="1.1" xmlns="http://www.w3.org/2000/svg" xmlns:xlink="http://www.w3.org/1999/xlink">
    <!-- Generator: Sketch 49 (51002) - http://www.bohemiancoding.com/sketch -->
    <title>Page 1</title>
    <desc>Created with Sketch.</desc>
    <defs>
        <polygon id="path-1" points="0 200 212.677 200 212.677 0 0 0"></polygon>
        <polygon id="path-3" points="0.371 0.27125 10.53565 0.27125 10.53565 7.309 0.371 7.309"></polygon>
        <polygon id="path-5" points="0 200 212.677 200 212.677 0 0 0"></polygon>
        <polygon id="path-7" points="0.371 0.21615 10.53565 0.21615 10.53565 7.2529 0.371 7.2529"></polygon>
    </defs>
    <g id="空界面" stroke="none" stroke-width="1" fill="none" fill-rule="evenodd">
        <g id="报告－版本为空" transform="translate(-626.000000, -290.000000)">
            <g id="Page-1" transform="translate(626.000000, 290.000000)">
                <g id="Group-29">
                    <path d="M100,0 C44.771,0 0,44.771 0,100 C0,155.229 44.771,200 100,200 C155.229,200 200,155.229 200,100 C200,44.771 155.229,0 100,0" id="Fill-1" fill="#5E92F2"></path>
                    <path d="M144.5039,166.9062 L54.1609,166.9062 C50.2429,166.9062 47.0659,163.7302 47.0659,159.8112 L47.0659,40.1882 C47.0659,36.2702 50.2429,33.0932 54.1609,33.0932 L144.5039,33.0932 C148.4229,33.0932 151.5999,36.2702 151.5999,40.1882 L151.5999,159.8112 C151.5999,163.7302 148.4229,166.9062 144.5039,166.9062" id="Fill-3" fill="#B4CEFF"></path>
                    <path d="M54.1611,33.5932 C50.5241,33.5932 47.5661,36.5512 47.5661,40.1882 L47.5661,159.8112 C47.5661,163.4482 50.5241,166.4062 54.1611,166.4062 L144.5041,166.4062 C148.1401,166.4062 151.0991,163.4482 151.0991,159.8112 L151.0991,40.1882 C151.0991,36.5512 148.1401,33.5932 144.5041,33.5932 L54.1611,33.5932 Z M144.5041,167.4062 L54.1611,167.4062 C49.9741,167.4062 46.5661,163.9992 46.5661,159.8112 L46.5661,40.1882 C46.5661,36.0002 49.9741,32.5932 54.1611,32.5932 L144.5041,32.5932 C148.6921,32.5932 152.0991,36.0002 152.0991,40.1882 L152.0991,159.8112 C152.0991,163.9992 148.6921,167.4062 144.5041,167.4062 Z" id="Fill-5" fill="#1060E0"></path>
                    <path d="M137.4091,157.8242 L61.2561,157.8242 C57.3381,157.8242 54.1611,154.6472 54.1611,150.7292 L54.1611,49.2712 C54.1611,45.3522 57.3381,42.1762 61.2561,42.1762 L137.4091,42.1762 C141.3281,42.1762 144.5041,45.3522 144.5041,49.2712 L144.5041,150.7292 C144.5041,154.6472 141.3281,157.8242 137.4091,157.8242" id="Fill-7" fill="#FFFFFF"></path>
                    <path d="M61.2558,42.6757 C57.6188,42.6757 54.6608,45.6337 54.6608,49.2707 L54.6608,150.7297 C54.6608,154.3657 57.6188,157.3237 61.2558,157.3237 L137.4088,157.3237 C141.0458,157.3237 144.0038,154.3657 144.0038,150.7297 L144.0038,49.2707 C144.0038,45.6337 141.0458,42.6757 137.4088,42.6757 L61.2558,42.6757 Z M137.4088,158.3237 L61.2558,158.3237 C57.0688,158.3237 53.6608,154.9167 53.6608,150.7297 L53.6608,49.2707 C53.6608,45.0827 57.0688,41.6757 61.2558,41.6757 L137.4088,41.6757 C141.5968,41.6757 145.0038,45.0827 145.0038,49.2707 L145.0038,150.7297 C145.0038,154.9167 141.5968,158.3237 137.4088,158.3237 Z" id="Fill-9" fill="#1060E0"></path>
                    <path d="M126,28.0932 L108.5,28.0932 L108.5,22.7082 C108.5,21.2362 107.307,20.0422 105.834,20.0422 L94.166,20.0422 C92.693,20.0422 91.5,21.2362 91.5,22.7082 L91.5,28.0932 L74,28.0932 C71.25,28.0932 69,30.3432 69,33.0932 C69,35.8432 71.25,38.0932 74,38.0932 L126,38.0932 C128.75,38.0932 131,35.8432 131,33.0932 C131,30.3432 128.75,28.0932 126,28.0932" id="Fill-11" fill="#B4CEFF"></path>
                    <path d="M74,28.5932 C71.519,28.5932 69.5,30.6122 69.5,33.0932 C69.5,35.5742 71.519,37.5932 74,37.5932 L126,37.5932 C128.481,37.5932 130.5,35.5742 130.5,33.0932 C130.5,30.6122 128.481,28.5932 126,28.5932 L108,28.5932 L108,22.7082 C108,21.5142 107.028,20.5422 105.834,20.5422 L94.166,20.5422 C92.972,20.5422 92,21.5142 92,22.7082 L92,28.5932 L74,28.5932 Z M126,38.5932 L74,38.5932 C70.968,38.5932 68.5,36.1262 68.5,33.0932 C68.5,30.0602 70.968,27.5932 74,27.5932 L91,27.5932 L91,22.7082 C91,20.9632 92.42,19.5422 94.166,19.5422 L105.834,19.5422 C107.58,19.5422 109,20.9632 109,22.7082 L109,27.5932 L126,27.5932 C129.032,27.5932 131.5,30.0602 131.5,33.0932 C131.5,36.1262 129.032,38.5932 126,38.5932 Z" id="Fill-13" fill="#1060E0"></path>
                    <path d="M102.542,28.6103 C102.542,29.7143 101.646,30.6103 100.542,30.6103 C99.438,30.6103 98.542,29.7143 98.542,28.6103 C98.542,27.5063 99.438,26.6103 100.542,26.6103 C101.646,26.6103 102.542,27.5063 102.542,28.6103" id="Fill-15" fill="#FFFFFF"></path>
                    <mask id="mask-2" fill="white">
                        <use xlink:href="#path-1"></use>
                    </mask>
                    <g id="Clip-18"></g>
                    <polygon id="Fill-17" fill="#FFFFFF" mask="url(#mask-2)" points="62.645 93.008 136.438 93.008 136.438 55.199 62.645 55.199"></polygon>
                    <polygon id="Fill-19" fill="#1060E0" mask="url(#mask-2)" points="136.9384 93.5082 134.4384 93.5082 134.4384 92.5082 135.9384 92.5082 135.9384 91.0082 136.9384 91.0082"></polygon>
                    <path d="M68.751,93.508 L72.856,93.508 L72.856,92.508 L68.751,92.508 L68.751,93.508 Z M76.962,93.508 L81.067,93.508 L81.067,92.508 L76.962,92.508 L76.962,93.508 Z M85.173,93.508 L89.278,93.508 L89.278,92.508 L85.173,92.508 L85.173,93.508 Z M93.384,93.508 L97.489,93.508 L97.489,92.508 L93.384,92.508 L93.384,93.508 Z M101.595,93.508 L105.7,93.508 L105.7,92.508 L101.595,92.508 L101.595,93.508 Z M109.806,93.508 L113.911,93.508 L113.911,92.508 L109.806,92.508 L109.806,93.508 Z M118.017,93.508 L122.122,93.508 L122.122,92.508 L118.017,92.508 L118.017,93.508 Z M126.228,93.508 L130.333,93.508 L130.333,92.508 L126.228,92.508 L126.228,93.508 Z" id="Fill-20" fill="#1060E0" mask="url(#mask-2)"></path>
                    <polygon id="Fill-21" fill="#1060E0" mask="url(#mask-2)" points="64.6455 93.5082 62.1455 93.5082 62.1455 91.0082 63.1455 91.0082 63.1455 92.5082 64.6455 92.5082"></polygon>
                    <path d="M62.145,64.713 L63.145,64.713 L63.145,60.956 L62.145,60.956 L62.145,64.713 Z M62.145,72.226 L63.145,72.226 L63.145,68.47 L62.145,68.47 L62.145,72.226 Z M62.145,79.739 L63.145,79.739 L63.145,75.983 L62.145,75.983 L62.145,79.739 Z M62.145,87.252 L63.145,87.252 L63.145,83.496 L62.145,83.496 L62.145,87.252 Z" id="Fill-22" fill="#1060E0" mask="url(#mask-2)"></path>
                    <polygon id="Fill-23" fill="#1060E0" mask="url(#mask-2)" points="63.1455 57.1992 62.1455 57.1992 62.1455 54.6992 64.6455 54.6992 64.6455 55.6992 63.1455 55.6992"></polygon>
                    <path d="M68.751,55.699 L72.856,55.699 L72.856,54.699 L68.751,54.699 L68.751,55.699 Z M76.962,55.699 L81.067,55.699 L81.067,54.699 L76.962,54.699 L76.962,55.699 Z M85.173,55.699 L89.278,55.699 L89.278,54.699 L85.173,54.699 L85.173,55.699 Z M93.384,55.699 L97.489,55.699 L97.489,54.699 L93.384,54.699 L93.384,55.699 Z M101.595,55.699 L105.7,55.699 L105.7,54.699 L101.595,54.699 L101.595,55.699 Z M109.806,55.699 L113.911,55.699 L113.911,54.699 L109.806,54.699 L109.806,55.699 Z M118.017,55.699 L122.122,55.699 L122.122,54.699 L118.017,54.699 L118.017,55.699 Z M126.228,55.699 L130.333,55.699 L130.333,54.699 L126.228,54.699 L126.228,55.699 Z" id="Fill-24" fill="#1060E0" mask="url(#mask-2)"></path>
                    <polygon id="Fill-25" fill="#1060E0" mask="url(#mask-2)" points="136.9384 57.1992 135.9384 57.1992 135.9384 55.6992 134.4384 55.6992 134.4384 54.6992 136.9384 54.6992"></polygon>
                    <path d="M135.938,64.712 L136.938,64.712 L136.938,60.956 L135.938,60.956 L135.938,64.712 Z M135.938,72.226 L136.938,72.226 L136.938,68.47 L135.938,68.47 L135.938,72.226 Z M135.938,79.739 L136.938,79.739 L136.938,75.983 L135.938,75.983 L135.938,79.739 Z M135.938,87.252 L136.938,87.252 L136.938,83.495 L135.938,83.495 L135.938,87.252 Z" id="Fill-26" fill="#1060E0" mask="url(#mask-2)"></path>
                    <path d="M89.9199,74.7914 C89.9199,79.4664 86.1299,83.2554 81.4549,83.2554 C76.7799,83.2554 72.9899,79.4664 72.9899,74.7914 C72.9899,70.1164 76.7799,66.3264 81.4549,66.3264 C86.1299,66.3264 89.9199,70.1164 89.9199,74.7914" id="Fill-27" fill="#FFD16A" mask="url(#mask-2)"></path>
                    <path d="M81.455,66.8266 C77.063,66.8266 73.49,70.3996 73.49,74.7916 C73.49,79.1826 77.063,82.7556 81.455,82.7556 C85.847,82.7556 89.42,79.1826 89.42,74.7916 C89.42,70.3996 85.847,66.8266 81.455,66.8266 M81.455,83.7556 C76.512,83.7556 72.49,79.7346 72.49,74.7916 C72.49,69.8476 76.512,65.8266 81.455,65.8266 C86.398,65.8266 90.42,69.8476 90.42,74.7916 C90.42,79.7346 86.398,83.7556 81.455,83.7556" id="Fill-28" fill="#FFBA1C" mask="url(#mask-2)"></path>
                </g>
                <g id="Group-32" transform="translate(76.000000, 71.000000)">
                    <mask id="mask-4" fill="white">
                        <use xlink:href="#path-3"></use>
                    </mask>
                    <g id="Clip-31"></g>
                    <path d="M3.9599,7.309 C3.8419,7.309 3.7239,7.264 3.6339,7.173 L0.5059,4.046 C0.3249,3.866 0.3249,3.574 0.5059,3.393 C0.6869,3.213 0.9789,3.213 1.1589,3.393 L3.9599,6.194 L9.7469,0.407 C9.9279,0.226 10.2199,0.226 10.3999,0.407 C10.5809,0.588 10.5809,0.88 10.3999,1.06 L4.2869,7.174 C4.1969,7.264 4.0789,7.309 3.9599,7.309" id="Fill-30" fill="#FFBA1C" mask="url(#mask-4)"></path>
                </g>
                <g id="Group-51">
                    <path d="M126.4668,68.5839 L97.6878,68.5839 C97.2198,68.5839 96.8408,68.2049 96.8408,67.7369 C96.8408,67.2699 97.2198,66.8909 97.6878,66.8909 L126.4668,66.8909 C126.9348,66.8909 127.3138,67.2699 127.3138,67.7369 C127.3138,68.2049 126.9348,68.5839 126.4668,68.5839" id="Fill-33" fill="#FFD16A"></path>
                    <path d="M121.3877,75.1874 L97.6877,75.1874 C97.2197,75.1874 96.8407,74.8084 96.8407,74.3414 C96.8407,73.8734 97.2197,73.4944 97.6877,73.4944 L121.3877,73.4944 C121.8557,73.4944 122.2347,73.8734 122.2347,74.3414 C122.2347,74.8084 121.8557,75.1874 121.3877,75.1874" id="Fill-35" fill="#FFD16A"></path>
                    <path d="M118.0019,81.7914 L97.6879,81.7914 C97.2199,81.7914 96.8409,81.4124 96.8409,80.9444 C96.8409,80.4774 97.2199,80.0984 97.6879,80.0984 L118.0019,80.0984 C118.4699,80.0984 118.8489,80.4774 118.8489,80.9444 C118.8489,81.4124 118.4699,81.7914 118.0019,81.7914" id="Fill-37" fill="#FFD16A"></path>
                    <mask id="mask-6" fill="white">
                        <use xlink:href="#path-5"></use>
                    </mask>
                    <g id="Clip-40"></g>
                    <polygon id="Fill-39" fill="#FFFFFF" mask="url(#mask-6)" points="62.645 143.952 136.438 143.952 136.438 106.143 62.645 106.143"></polygon>
                    <polygon id="Fill-41" fill="#1060E0" mask="url(#mask-6)" points="136.9384 144.4521 134.4384 144.4521 134.4384 143.4521 135.9384 143.4521 135.9384 141.9521 136.9384 141.9521"></polygon>
                    <path d="M68.751,144.452 L72.856,144.452 L72.856,143.452 L68.751,143.452 L68.751,144.452 Z M76.962,144.452 L81.067,144.452 L81.067,143.452 L76.962,143.452 L76.962,144.452 Z M85.173,144.452 L89.278,144.452 L89.278,143.452 L85.173,143.452 L85.173,144.452 Z M93.384,144.452 L97.489,144.452 L97.489,143.452 L93.384,143.452 L93.384,144.452 Z M101.595,144.452 L105.7,144.452 L105.7,143.452 L101.595,143.452 L101.595,144.452 Z M109.806,144.452 L113.911,144.452 L113.911,143.452 L109.806,143.452 L109.806,144.452 Z M118.017,144.452 L122.122,144.452 L122.122,143.452 L118.017,143.452 L118.017,144.452 Z M126.228,144.452 L130.333,144.452 L130.333,143.452 L126.228,143.452 L126.228,144.452 Z" id="Fill-42" fill="#1060E0" mask="url(#mask-6)"></path>
                    <polygon id="Fill-43" fill="#1060E0" mask="url(#mask-6)" points="64.6455 144.4521 62.1455 144.4521 62.1455 141.9521 63.1455 141.9521 63.1455 143.4521 64.6455 143.4521"></polygon>
                    <path d="M62.145,115.657 L63.145,115.657 L63.145,111.9 L62.145,111.9 L62.145,115.657 Z M62.145,123.17 L63.145,123.17 L63.145,119.414 L62.145,119.414 L62.145,123.17 Z M62.145,130.684 L63.145,130.684 L63.145,126.927 L62.145,126.927 L62.145,130.684 Z M62.145,138.196 L63.145,138.196 L63.145,134.439 L62.145,134.439 L62.145,138.196 Z" id="Fill-44" fill="#1060E0" mask="url(#mask-6)"></path>
                    <polygon id="Fill-45" fill="#1060E0" mask="url(#mask-6)" points="63.1455 108.1435 62.1455 108.1435 62.1455 105.6435 64.6455 105.6435 64.6455 106.6435 63.1455 106.6435"></polygon>
                    <path d="M68.751,106.643 L72.856,106.643 L72.856,105.643 L68.751,105.643 L68.751,106.643 Z M76.962,106.643 L81.067,106.643 L81.067,105.643 L76.962,105.643 L76.962,106.643 Z M85.173,106.643 L89.278,106.643 L89.278,105.643 L85.173,105.643 L85.173,106.643 Z M93.384,106.643 L97.489,106.643 L97.489,105.643 L93.384,105.643 L93.384,106.643 Z M101.595,106.643 L105.7,106.643 L105.7,105.643 L101.595,105.643 L101.595,106.643 Z M109.806,106.643 L113.911,106.643 L113.911,105.643 L109.806,105.643 L109.806,106.643 Z M118.017,106.643 L122.122,106.643 L122.122,105.643 L118.017,105.643 L118.017,106.643 Z M126.228,106.643 L130.333,106.643 L130.333,105.643 L126.228,105.643 L126.228,106.643 Z" id="Fill-46" fill="#1060E0" mask="url(#mask-6)"></path>
                    <polygon id="Fill-47" fill="#1060E0" mask="url(#mask-6)" points="136.9384 108.1435 135.9384 108.1435 135.9384 106.6435 134.4384 106.6435 134.4384 105.6435 136.9384 105.6435"></polygon>
                    <path d="M135.938,115.657 L136.938,115.657 L136.938,111.9 L135.938,111.9 L135.938,115.657 Z M135.938,123.17 L136.938,123.17 L136.938,119.413 L135.938,119.413 L135.938,123.17 Z M135.938,130.683 L136.938,130.683 L136.938,126.927 L135.938,126.927 L135.938,130.683 Z M135.938,138.196 L136.938,138.196 L136.938,134.439 L135.938,134.439 L135.938,138.196 Z" id="Fill-48" fill="#1060E0" mask="url(#mask-6)"></path>
                    <path d="M89.9199,125.7353 C89.9199,130.4103 86.1299,134.2003 81.4549,134.2003 C76.7799,134.2003 72.9899,130.4103 72.9899,125.7353 C72.9899,121.0603 76.7799,117.2713 81.4549,117.2713 C86.1299,117.2713 89.9199,121.0603 89.9199,125.7353" id="Fill-49" fill="#FFD16A" mask="url(#mask-6)"></path>
                    <path d="M81.455,117.7714 C77.063,117.7714 73.49,121.3434 73.49,125.7354 C73.49,130.1264 77.063,133.7004 81.455,133.7004 C85.847,133.7004 89.42,130.1264 89.42,125.7354 C89.42,121.3434 85.847,117.7714 81.455,117.7714 M81.455,134.7004 C76.512,134.7004 72.49,130.6784 72.49,125.7354 C72.49,120.7924 76.512,116.7714 81.455,116.7714 C86.398,116.7714 90.42,120.7924 90.42,125.7354 C90.42,130.6784 86.398,134.7004 81.455,134.7004" id="Fill-50" fill="#FFBA1C" mask="url(#mask-6)"></path>
                </g>
                <g id="Group-54" transform="translate(76.000000, 122.000000)">
                    <mask id="mask-8" fill="white">
                        <use xlink:href="#path-7"></use>
                    </mask>
                    <g id="Clip-53"></g>
                    <path d="M3.9599,7.2529 C3.8419,7.2529 3.7239,7.2079 3.6339,7.1169 L0.5059,3.9909 C0.3249,3.8099 0.3249,3.5189 0.5059,3.3369 C0.6869,3.1569 0.9789,3.1569 1.1589,3.3369 L3.9599,6.1379 L9.7469,0.3519 C9.9279,0.1709 10.2199,0.1709 10.3999,0.3519 C10.5809,0.5319 10.5809,0.8239 10.3999,1.0049 L4.2869,7.1179 C4.1969,7.2079 4.0789,7.2529 3.9599,7.2529" id="Fill-52" fill="#FFBA1C" mask="url(#mask-8)"></path>
                </g>
                <g id="Group-75" transform="translate(6.000000, 86.000000)">
                    <path d="M120.4668,33.5283 L91.6878,33.5283 C91.2198,33.5283 90.8408,33.1493 90.8408,32.6813 C90.8408,32.2143 91.2198,31.8353 91.6878,31.8353 L120.4668,31.8353 C120.9348,31.8353 121.3138,32.2143 121.3138,32.6813 C121.3138,33.1493 120.9348,33.5283 120.4668,33.5283" id="Fill-55" fill="#FFD16A"></path>
                    <path d="M115.3877,40.1318 L91.6877,40.1318 C91.2197,40.1318 90.8407,39.7528 90.8407,39.2848 C90.8407,38.8188 91.2197,38.4398 91.6877,38.4398 L115.3877,38.4398 C115.8557,38.4398 116.2347,38.8188 116.2347,39.2848 C116.2347,39.7528 115.8557,40.1318 115.3877,40.1318" id="Fill-57" fill="#FFD16A"></path>
                    <path d="M112.0019,46.7353 L91.6879,46.7353 C91.2199,46.7353 90.8409,46.3563 90.8409,45.8893 C90.8409,45.4223 91.2199,45.0433 91.6879,45.0433 L112.0019,45.0433 C112.4699,45.0433 112.8489,45.4223 112.8489,45.8893 C112.8489,46.3563 112.4699,46.7353 112.0019,46.7353" id="Fill-59" fill="#FFD16A"></path>
                    <polygon id="Fill-61" fill="#FFD16A" points="153.7187 61.1425 140.4897 46.2575 181.6337 9.6905 194.8637 24.5755"></polygon>
                    <path d="M204.8447,9.4594 L197.8167,1.5524 C196.1047,-0.3746 193.0187,-0.4276 190.9237,1.4344 L183.4947,8.0374 L196.7237,22.9214 L204.1527,16.3194 C206.2467,14.4574 206.5567,11.3864 204.8447,9.4594" id="Fill-63" fill="#FFD16A"></path>
                    <polygon id="Fill-65" fill="#FFD16A" points="139.0547 48.3925 133.0177 66.2195 151.4287 62.3165"></polygon>
                    <polygon id="Fill-67" fill="#FFBA1C" points="133.0175 66.2197 145.6035 55.7617 151.4285 62.3167"></polygon>
                    <polygon id="Fill-69" fill="#FFBA1C" points="147.3759 54.0048 189.3339 18.0428 194.8629 24.5758 153.7189 61.1428"></polygon>
                    <path d="M191.1679,16.7094 L202.6659,7.0084 L204.8449,9.4594 C204.8449,9.4594 207.2929,12.1264 204.8539,15.5684 L196.7239,22.9214 L191.1679,16.7094 Z" id="Fill-71" fill="#FFBA1C"></path>
                    <path d="M52.4843,16.0214 L50.5763,15.4214 C51.2973,13.1254 51.6713,11.6284 51.6743,11.6144 L53.6163,12.0954 C53.6003,12.1584 53.2263,13.6614 52.4843,16.0214 Z M49.7353,23.6444 L47.8853,22.8844 C48.3743,21.6934 48.8523,20.4484 49.3073,19.1844 L51.1903,19.8614 C50.7243,21.1534 50.2353,22.4264 49.7353,23.6444 Z M25.6763,28.0004 C24.5033,27.4894 23.2883,27.1914 22.1653,27.1404 L22.2553,25.1424 C23.6203,25.2044 25.0803,25.5584 26.4753,26.1674 L25.6763,28.0004 Z M16.8603,30.4654 L14.9953,29.7434 C15.6053,28.1694 16.5653,26.9714 17.8483,26.1824 L18.8973,27.8854 C17.9943,28.4414 17.3083,29.3094 16.8603,30.4654 Z M46.2553,30.9854 L44.5043,30.0204 C45.1123,28.9174 45.7133,27.7344 46.2943,26.5054 L48.1023,27.3594 C47.5053,28.6254 46.8833,29.8454 46.2553,30.9854 Z M30.8503,33.0074 C30.6323,32.6464 30.5003,32.4424 30.4953,32.4344 L30.3973,32.2404 C30.1153,31.4884 29.5463,30.7034 28.7513,29.9704 L30.1043,28.5004 C31.0963,29.4124 31.8293,30.4244 32.2303,31.4354 C32.2953,31.5374 32.4093,31.7194 32.5633,31.9744 L30.8503,33.0074 Z M41.6893,37.7884 L40.1603,36.5004 C40.9423,35.5704 41.7233,34.5204 42.4793,33.3794 L44.1453,34.4854 C43.3483,35.6884 42.5213,36.7994 41.6893,37.7884 Z M15.6573,38.3274 C14.7963,37.0684 14.3293,35.6324 14.2693,34.0604 L16.2673,33.9844 C16.3123,35.1744 16.6633,36.2554 17.3073,37.1984 L15.6573,38.3274 Z M34.2023,40.0424 C33.7993,38.8914 33.2963,37.6834 32.7053,36.4504 L34.5073,35.5844 C35.1313,36.8844 35.6643,38.1624 36.0903,39.3814 L34.2023,40.0424 Z M22.7973,42.9584 C21.3233,42.5004 20.0163,41.9354 18.9133,41.2764 L19.9383,39.5594 C20.9063,40.1364 22.0673,40.6374 23.3883,41.0474 L22.7973,42.9584 Z M35.2473,43.1054 L34.3683,41.3084 C35.4113,40.7984 36.4563,40.1004 37.4743,39.2334 L38.7713,40.7564 C37.6263,41.7314 36.4393,42.5214 35.2473,43.1054 Z M30.9613,44.2784 C30.2193,44.2544 28.6993,44.1724 26.8423,43.8804 L27.1533,41.9044 C28.9683,42.1904 30.4643,42.2614 31.0233,42.2804 L30.9613,44.2784 Z M37.2363,47.7184 L35.2613,47.4044 C35.3353,46.9424 35.3723,46.4474 35.3723,45.9324 C35.3723,45.2504 35.3073,44.5134 35.1803,43.7404 L37.1533,43.4164 C37.2983,44.2954 37.3723,45.1424 37.3723,45.9324 C37.3723,46.5524 37.3263,47.1534 37.2363,47.7184 Z M31.6663,54.1824 L31.3793,53.3664 L30.7273,52.4414 L31.0023,52.2954 C32.2063,51.8724 33.1703,51.2614 33.8683,50.4814 L35.3583,51.8154 C34.4333,52.8484 33.1913,53.6454 31.6663,54.1824 Z M24.5823,57.9114 L23.7933,56.0734 C24.9893,55.5594 26.1833,54.9934 27.3423,54.3894 L28.2663,56.1634 C27.0633,56.7904 25.8233,57.3774 24.5823,57.9114 Z M16.8313,60.4964 L16.3743,58.5484 C17.6053,58.2594 18.8693,57.8984 20.1303,57.4734 L20.7673,59.3704 C19.4483,59.8134 18.1233,60.1924 16.8313,60.4964 Z M4.5143,61.0174 C3.1213,60.7594 1.7673,60.3764 0.4913,59.8804 L1.2153,58.0174 C2.3763,58.4674 3.6073,58.8154 4.8783,59.0504 L4.5143,61.0174 Z M9.1823,61.4324 L8.6543,61.4274 L8.6893,59.4274 L9.1823,59.4324 C10.2723,59.4324 11.4043,59.3644 12.5463,59.2284 L12.7823,61.2144 C11.5613,61.3594 10.3503,61.4324 9.1823,61.4324 Z" id="Fill-73" fill="#FFD16A"></path>
                </g>
            </g>
        </g>
    </g>
</svg>