<?xml version="1.0" encoding="UTF-8"?>
<svg width="194px" height="140px" viewBox="0 0 194 140" version="1.1" xmlns="http://www.w3.org/2000/svg" xmlns:xlink="http://www.w3.org/1999/xlink">
    <!-- Generator: Sketch 52.6 (67491) - http://www.bohemiancoding.com/sketch -->
    <title>team</title>
    <desc>Created with Sketch.</desc>
    <g id="SAFe" stroke="none" stroke-width="1" fill="none" fill-rule="evenodd">
        <g id="公告板-没有团队" transform="translate(-515.000000, -260.000000)">
            <g id="team" transform="translate(515.000000, 260.000000)">
                <rect id="Rectangle-7-Copy-13" fill="#DEE0ED" x="0" y="0" width="194" height="140" rx="4"></rect>
                <path d="M0,24 L194,24 L194,136 C194,138.209139 192.209139,140 190,140 L4,140 C1.790861,140 2.705415e-16,138.209139 0,136 L0,24 Z" id="Rectangle-7-Copy-13" fill="#F2F4FD"></path>
                <g id="Group-2-Copy" transform="translate(10.000000, 34.000000)">
                    <rect id="Rectangle-7-Copy-2" fill="#6776C4" x="0" y="0" width="82" height="40" rx="4"></rect>
                    <circle id="Oval-3" fill="#2A2E76" cx="22" cy="20" r="14"></circle>
                    <path d="M22,6 C14.3,6 8,12.3 8,20 C8,27.7 14.3,34 22,34 C29.7,34 36,27.7 36,20 C36,12.3 29.7,6 22,6 Z M22,10.2 C24.38,10.2 26.2,12.02 26.2,14.4 C26.2,16.78 24.38,18.6 22,18.6 C19.62,18.6 17.8,16.78 17.8,14.4 C17.8,12.02 19.62,10.2 22,10.2 Z M22,30.08 C18.5,30.08 15.42,28.2600549 13.6,25.6 C13.6,22.8 19.2,21.26 22,21.26 C24.8,21.26 30.4,22.8 30.4,25.6 C28.58,28.26 25.5,30.08 22,30.08 Z" id="形状" fill="#FFBA1C" fill-rule="nonzero"></path>
                    <rect id="Rectangle-3" fill="#FFFFFF" x="46" y="10" width="26" height="4" rx="2"></rect>
                    <rect id="Rectangle-3-Copy" fill="#FFFFFF" x="46" y="18" width="26" height="4" rx="2"></rect>
                    <rect id="Rectangle-3-Copy-6" fill="#FFFFFF" x="46" y="26" width="13" height="4" rx="2"></rect>
                </g>
                <g id="Group-2-Copy-11" transform="translate(102.000000, 34.000000)">
                    <rect id="Rectangle-7-Copy-2" fill="#6776C4" x="0" y="0" width="82" height="40" rx="4"></rect>
                    <circle id="Oval-3" fill="#CFD5F1" cx="22" cy="20" r="14"></circle>
                    <path d="M22,6 C14.3,6 8,12.3 8,20 C8,27.7 14.3,34 22,34 C29.7,34 36,27.7 36,20 C36,12.3 29.7,6 22,6 Z M22,10.2 C24.38,10.2 26.2,12.02 26.2,14.4 C26.2,16.78 24.38,18.6 22,18.6 C19.62,18.6 17.8,16.78 17.8,14.4 C17.8,12.02 19.62,10.2 22,10.2 Z M22,30.08 C18.5,30.08 15.42,28.2600549 13.6,25.6 C13.6,22.8 19.2,21.26 22,21.26 C24.8,21.26 30.4,22.8 30.4,25.6 C28.58,28.26 25.5,30.08 22,30.08 Z" id="形状" fill="#2A2E76" fill-rule="nonzero"></path>
                    <rect id="Rectangle-3" fill="#FFFFFF" x="46" y="10" width="26" height="4" rx="2"></rect>
                    <rect id="Rectangle-3-Copy" fill="#FFFFFF" x="46" y="18" width="26" height="4" rx="2"></rect>
                    <rect id="Rectangle-3-Copy-6" fill="#FFFFFF" x="46" y="26" width="13" height="4" rx="2"></rect>
                </g>
                <g id="Group-2-Copy-12" transform="translate(10.000000, 84.000000)">
                    <rect id="Rectangle-7-Copy-2" fill="#E8EAF4" x="0" y="0" width="82" height="40" rx="4"></rect>
                    <circle id="Oval-3" fill="#DEE0ED" cx="22" cy="20" r="14"></circle>
                    <rect id="Rectangle-3" fill="#DEE0ED" x="46" y="10" width="26" height="4" rx="2"></rect>
                    <rect id="Rectangle-3-Copy" fill="#DEE0ED" x="46" y="18" width="26" height="4" rx="2"></rect>
                    <rect id="Rectangle-3-Copy-6" fill="#DEE0ED" x="46" y="26" width="13" height="4" rx="2"></rect>
                </g>
                <g id="Group-2-Copy-13" transform="translate(102.000000, 84.000000)">
                    <rect id="Rectangle-7-Copy-2" fill="#E8EAF4" x="0" y="0" width="82" height="40" rx="4"></rect>
                    <circle id="Oval-3" fill="#DEE0ED" cx="22" cy="20" r="14"></circle>
                    <rect id="Rectangle-3" fill="#DEE0ED" x="46" y="10" width="26" height="4" rx="2"></rect>
                    <rect id="Rectangle-3-Copy" fill="#DEE0ED" x="46" y="18" width="26" height="4" rx="2"></rect>
                    <rect id="Rectangle-3-Copy-6" fill="#DEE0ED" x="46" y="26" width="13" height="4" rx="2"></rect>
                </g>
                <rect id="Rectangle-21-Copy-14" fill="#F9FAFF" x="8" y="9" width="8" height="8" rx="4"></rect>
                <rect id="Rectangle-21-Copy-19" fill="#F9FAFF" x="22" y="9" width="8" height="8" rx="4"></rect>
                <rect id="Rectangle-21-Copy-18" fill="#F9FAFF" x="36" y="9" width="48" height="8" rx="4"></rect>
                <circle id="椭圆形" fill="#2A2E76" cx="89" cy="71" r="10"></circle>
                <circle id="椭圆形-copy-2" fill="#2A2E76" cx="181" cy="71" r="10"></circle>
                <g id="分组" transform="translate(89.010408, 70.010408) rotate(-315.000000) translate(-89.010408, -70.010408) translate(85.510408, 65.010408)" fill="#FFFFFF">
                    <rect id="矩形" x="5" y="0" width="2" height="10"></rect>
                    <rect id="矩形-copy-11" x="0" y="8" width="5" height="2"></rect>
                </g>
                <g id="分组-copy" transform="translate(181.010408, 70.010408) rotate(-315.000000) translate(-181.010408, -70.010408) translate(177.510408, 65.010408)" fill="#FFFFFF">
                    <rect id="矩形" x="5" y="0" width="2" height="10"></rect>
                    <rect id="矩形-copy-11" x="0" y="8" width="5" height="2"></rect>
                </g>
            </g>
        </g>
    </g>
</svg>