<?xml version="1.0" encoding="UTF-8" standalone="no"?>
<svg width="200px" height="200px" viewBox="0 0 200 200" version="1.1" xmlns="http://www.w3.org/2000/svg" xmlns:xlink="http://www.w3.org/1999/xlink">
    <!-- Generator: Sketch 49 (51002) - http://www.bohemiancoding.com/sketch -->
    <title>Page 1</title>
    <desc>Created with Sketch.</desc>
    <defs>
        <polygon id="path-1" points="0 0.0002 199.9998 0.0002 199.9998 200 0 200"></polygon>
        <polygon id="path-3" points="0 200 200 200 200 0 0 0"></polygon>
        <polygon id="path-5" points="0 200 200 200 200 0 0 0"></polygon>
    </defs>
    <g id="空界面" stroke="none" stroke-width="1" fill="none" fill-rule="evenodd">
        <g id="报告－史诗报告图为空" transform="translate(-626.000000, -290.000000)">
            <g id="Page-1" transform="translate(626.000000, 290.000000)">
                <g id="Group-16">
                    <g id="Group-3">
                        <mask id="mask-2" fill="white">
                            <use xlink:href="#path-1"></use>
                        </mask>
                        <g id="Clip-2"></g>
                        <path d="M99.9998,0.0002 C44.7708,0.0002 -0.0002,44.7712 -0.0002,100.0002 C-0.0002,155.2292 44.7708,200.0002 99.9998,200.0002 C155.2288,200.0002 199.9998,155.2292 199.9998,100.0002 C199.9998,44.7712 155.2288,0.0002 99.9998,0.0002" id="Fill-1" fill="#5E92F2" mask="url(#mask-2)"></path>
                    </g>
                    <path d="M138.5579,164.4543 L23.4059,164.4543 C17.0009,164.4543 11.7499,159.2183 11.7499,152.7993 L11.7499,87.6213 L150.2139,87.6213 L150.2139,152.7993 C150.2139,159.2043 144.9769,164.4543 138.5579,164.4543" id="Fill-4" fill="#F8FBFF"></path>
                    <path d="M12.7816,88.6535 L12.7816,152.7995 C12.7816,158.6565 17.5476,163.4235 23.4066,163.4235 L138.5576,163.4235 C144.4166,163.4235 149.1816,158.6565 149.1816,152.7995 L149.1816,88.6535 L12.7816,88.6535 Z M138.5576,165.4865 L23.4066,165.4865 C16.4096,165.4865 10.7186,159.7955 10.7186,152.7995 L10.7186,86.5895 L151.2456,86.5895 L151.2456,152.7995 C151.2456,159.7955 145.5536,165.4865 138.5576,165.4865 Z" id="Fill-6" fill="#1060E0"></path>
                    <mask id="mask-4" fill="white">
                        <use xlink:href="#path-3"></use>
                    </mask>
                    <g id="Clip-9"></g>
                    <polygon id="Fill-8" fill="#F3F8FF" mask="url(#mask-4)" points="19.357 87.368 81.776 87.368 81.776 20.079 19.357 20.079"></polygon>
                    <path d="M20.389,86.337 L80.744,86.337 L80.744,21.111 L20.389,21.111 L20.389,86.337 Z M18.325,88.402 L82.808,88.402 L82.808,19.048 L18.325,19.048 L18.325,88.402 Z" id="Fill-10" fill="#1060E0" mask="url(#mask-4)"></path>
                    <path d="M83.7972,85.7531 L140.8342,85.8231 L141.1602,39.9201 L83.7972,39.9201 L83.7972,85.7531 Z M143.7512,88.4571 L81.2062,88.4571 L81.2062,37.2011 L143.7362,37.2011 L143.7362,88.4571 L143.7512,88.4571 Z" id="Fill-11" fill="#1060E0" mask="url(#mask-4)"></path>
                    <path d="M101.5179,87.6213 C100.6039,87.6213 99.8659,86.5443 99.8659,85.2333 L99.8659,40.6683 C99.8659,39.3433 100.6039,38.2803 101.5179,38.2803 C102.4319,38.2803 103.1699,39.3573 103.1699,40.6683 L103.1699,85.2333 C103.1609,86.5593 102.4319,87.6213 101.5179,87.6213" id="Fill-12" fill="#1060E0" mask="url(#mask-4)"></path>
                    <path d="M121.6878,87.6213 C120.7738,87.6213 120.0358,86.5443 120.0358,85.2333 L120.0358,40.6683 C120.0358,39.3433 120.7738,38.2803 121.6878,38.2803 C122.6018,38.2803 123.3408,39.3573 123.3408,40.6683 L123.3408,85.2333 C123.3318,86.5593 122.6018,87.6213 121.6878,87.6213" id="Fill-13" fill="#1060E0" mask="url(#mask-4)"></path>
                </g>
                <g id="Group-36">
                    <path d="M63.3074,61.1467 L33.4584,61.1467 C33.0174,61.1467 32.6614,60.7897 32.6614,60.3487 L32.6614,60.1977 C32.6614,59.7557 33.0174,59.3997 33.4584,59.3997 L63.3074,59.3997 C63.7474,59.3997 64.1054,59.7557 64.1054,60.1977 L64.1054,60.3487 C64.1054,60.7897 63.7474,61.1467 63.3074,61.1467" id="Fill-20" fill="#FFD16A"></path>
                    <path d="M60.6868,67.9601 L36.0788,67.9601 C35.6388,67.9601 35.2808,67.6041 35.2808,67.1621 L35.2808,67.0111 C35.2808,66.5701 35.6388,66.2131 36.0788,66.2131 L60.6868,66.2131 C61.1278,66.2131 61.4848,66.5701 61.4848,67.0111 L61.4848,67.1621 C61.4848,67.6041 61.1278,67.9601 60.6868,67.9601" id="Fill-22" fill="#FFD16A"></path>
                    <path d="M58.9403,74.7746 L37.8263,74.7746 C37.3853,74.7746 37.0283,74.4176 37.0283,73.9766 L37.0283,73.8256 C37.0283,73.3846 37.3853,73.0276 37.8263,73.0276 L58.9403,73.0276 C59.3803,73.0276 59.7373,73.3846 59.7373,73.8256 L59.7373,73.9766 C59.7373,74.4176 59.3803,74.7746 58.9403,74.7746" id="Fill-24" fill="#FFD16A"></path>
                    <mask id="mask-6" fill="white">
                        <use xlink:href="#path-5"></use>
                    </mask>
                    <g id="Clip-27"></g>
                    <polygon id="Fill-26" fill="#EBF4FF" mask="url(#mask-6)" points="27.606 101.578 140.074 101.578 140.074 97.709 27.606 97.709"></polygon>
                    <polygon id="Fill-28" fill="#EBF4FF" mask="url(#mask-6)" points="27.606 118.39 140.074 118.39 140.074 114.521 27.606 114.521"></polygon>
                    <polygon id="Fill-29" fill="#EBF4FF" mask="url(#mask-6)" points="27.606 135.201 140.074 135.201 140.074 131.331 27.606 131.331"></polygon>
                    <polygon id="Fill-30" fill="#EBF4FF" mask="url(#mask-6)" points="28.708 151.894 137.702 151.894 137.702 148.144 28.708 148.144"></polygon>
                    <path d="M172.8817,145.4084 L159.9117,145.4084 C159.3917,145.4084 158.9707,144.9874 158.9707,144.4684 C158.9707,143.9484 159.3917,143.5274 159.9117,143.5274 L172.8817,143.5274 C173.4017,143.5274 173.8217,143.9484 173.8217,144.4684 C173.8217,144.9874 173.4017,145.4084 172.8817,145.4084" id="Fill-31" fill="#5E92F2" mask="url(#mask-6)"></path>
                    <path d="M165.4559,150.9533 L165.4559,137.9823 C165.4559,137.4633 165.8769,137.0423 166.3959,137.0423 C166.9159,137.0423 167.3369,137.4633 167.3369,137.9823 L167.3369,150.9533 C167.3369,151.4733 166.9159,151.8933 166.3959,151.8933 C165.8769,151.8933 165.4559,151.4733 165.4559,150.9533" id="Fill-32" fill="#5E92F2" mask="url(#mask-6)"></path>
                    <path d="M161.0272,145.0588 C159.6642,144.8618 158.2522,144.8108 156.8892,144.9048 L156.7442,142.7188 C158.2522,142.6198 159.8222,142.6728 161.3372,142.8908 L161.0272,145.0588 Z M148.9782,147.1668 L147.9452,145.2368 C149.3022,144.5108 150.7372,143.9298 152.2122,143.5078 L152.8132,145.6148 C151.4882,145.9938 150.1972,146.5148 148.9782,147.1668 Z M168.7492,147.9138 C167.5812,147.1718 166.3332,146.5528 165.0402,146.0748 L165.8012,144.0218 C167.2392,144.5538 168.6262,145.2428 169.9232,146.0668 L168.7492,147.9138 Z M142.6872,152.4808 L140.9562,151.1398 C141.8942,149.9298 142.9642,148.8128 144.1372,147.8198 L145.5532,149.4898 C144.4962,150.3848 143.5312,151.3918 142.6872,152.4808 Z M174.6222,153.6888 C173.8602,152.5378 172.9752,151.4618 171.9882,150.4928 L173.5242,148.9308 C174.6192,150.0088 175.6032,151.2038 176.4482,152.4808 L174.6222,153.6888 Z M139.1222,159.9018 L136.9932,159.3908 C137.3512,157.8988 137.8702,156.4388 138.5352,155.0538 L140.5092,156.0008 C139.9112,157.2478 139.4442,158.5598 139.1222,159.9018 Z M177.6122,161.3548 C177.3932,159.9908 177.0272,158.6478 176.5262,157.3628 L178.5662,156.5678 C179.1242,157.9968 179.5302,159.4908 179.7742,161.0058 L177.6122,161.3548 Z M136.7632,168.5358 C136.5162,167.2148 136.3912,165.8578 136.3912,164.4998 C136.3912,164.3178 136.3932,164.1338 136.3982,163.9518 L138.5872,164.0038 C138.5832,164.1698 138.5802,164.3348 138.5802,164.4998 C138.5802,165.7228 138.6932,166.9448 138.9162,168.1328 L136.7632,168.5358 Z M179.5732,169.0738 L177.4302,168.6178 C177.7172,167.2728 177.8622,165.8878 177.8622,164.4998 L180.0522,164.4998 C180.0522,166.0408 179.8902,167.5798 179.5732,169.0738 Z M140.3032,176.9748 C139.4242,175.7128 138.6782,174.3568 138.0852,172.9438 L140.1042,172.0968 C140.6372,173.3688 141.3092,174.5878 142.1002,175.7208 L140.3032,176.9748 Z M175.8182,177.4218 L174.0542,176.1238 C174.8742,175.0088 175.5762,173.8068 176.1422,172.5498 L178.1392,173.4488 C177.5102,174.8458 176.7292,176.1818 175.8182,177.4218 Z M146.9872,183.2218 C145.6762,182.4328 144.4402,181.4998 143.3152,180.4498 L144.8102,178.8498 C145.8222,179.7948 146.9362,180.6338 148.1162,181.3438 L146.9872,183.2218 Z M168.9792,183.5018 L167.8992,181.5968 C169.0982,180.9158 170.2312,180.1048 171.2642,179.1868 L172.7182,180.8228 C171.5702,181.8428 170.3122,182.7448 168.9792,183.5018 Z M155.6502,186.1808 C154.1202,186.0008 152.6102,185.6588 151.1622,185.1628 L151.8722,183.0908 C153.1732,183.5378 154.5312,183.8448 155.9072,184.0058 L155.6502,186.1808 Z M160.2472,186.2388 L160.0462,184.0578 C161.4222,183.9308 162.7882,183.6568 164.1042,183.2458 L164.7582,185.3338 C163.2952,185.7928 161.7772,186.0968 160.2472,186.2388 Z" id="Fill-33" fill="#FFBA1C" mask="url(#mask-6)"></path>
                    <path d="M167.3026,165.7697 L149.1396,165.7697 C148.6206,165.7697 148.1986,165.3487 148.1986,164.8297 L148.1986,164.1707 C148.1986,163.6517 148.6206,163.2307 149.1396,163.2307 L167.3026,163.2307 C167.8226,163.2307 168.2436,163.6517 168.2436,164.1707 L168.2436,164.8297 C168.2436,165.3487 167.8226,165.7697 167.3026,165.7697" id="Fill-34" fill="#FFD16A" mask="url(#mask-6)"></path>
                    <path d="M156.9515,173.5812 L156.9515,155.4192 C156.9515,154.8982 157.3725,154.4772 157.8925,154.4772 L158.5505,154.4772 C159.0695,154.4772 159.4915,154.8982 159.4915,155.4192 L159.4915,173.5812 C159.4915,174.1012 159.0695,174.5212 158.5505,174.5212 L157.8925,174.5212 C157.3725,174.5212 156.9515,174.1012 156.9515,173.5812" id="Fill-35" fill="#FFD16A" mask="url(#mask-6)"></path>
                </g>
                <g id="boy" transform="translate(39.000000, 30.000000)" fill-rule="nonzero">
                    <g id="Group" transform="translate(0.000000, 3.000000)">
                        <rect id="Rectangle-path" fill="#FDCC9B" x="7.06511554" y="14.8207319" width="3.60867196" height="3.92758761"></rect>
                        <path d="M7.06523831,15.2832572 C7.06523831,15.2832572 8.58322534,16.2226237 10.6739103,16.0050209 L10.6739103,14.8206126 L7.06523831,14.8206126 L7.06523831,15.2832572 Z" id="Shape" fill="#FCBC85"></path>
                        <ellipse id="Oval" fill="#FCBC85" cx="1.86160577" cy="8.73047775" rx="1.76081585" ry="1.95222172"></ellipse>
                        <ellipse id="Oval" fill="#FCBC85" cx="15.87742" cy="8.73047775" rx="1.76081585" ry="1.95222172"></ellipse>
                        <path d="M15.8702997,5.00164359 C15.8702997,2.12616081 13.7050965,0.0219511609 8.86951291,0.0219511609 C4.03392931,0.0219511609 1.86872613,2.12604151 1.86872613,5.00164359 C1.86872613,7.87724567 1.36354889,15.4519471 8.86951291,15.4519471 C16.3754769,15.4519471 15.8702997,7.87724567 15.8702997,5.00164359 Z" id="Shape" fill="#FDCC9B"></path>
                        <g transform="translate(4.051239, 5.249191)">
                            <g transform="translate(0.613824, 2.147396)" id="Oval">
                                <ellipse fill="#3B2519" cx="0.794533932" cy="0.866355057" rx="1" ry="1"></ellipse>
                                <ellipse fill="#FFFFFF" cx="0.464173795" cy="0.510245191" rx="1" ry="1"></ellipse>
                            </g>
                            <path d="M0.196055422,1.01488329 C0.554405939,1.18906098 1.12980466,0.423156346 2.44694845,1.08944566 C2.68707644,1.21089284 2.83034299,0.0505831099 1.41854753,0.0505831099 C0.196055422,0.0505831099 -0.0205017254,0.90978018 0.196055422,1.01488329 Z" id="Shape" fill="#51362A"></path>
                            <g transform="translate(7.488654, 2.147396)" id="Oval">
                                <ellipse fill="#3B2519" cx="0.833082087" cy="0.866355057" rx="1" ry="1"></ellipse>
                                <ellipse fill="#FFFFFF" cx="0.502721949" cy="0.510245191" rx="1" ry="1"></ellipse>
                            </g>
                            <path d="M9.4404921,1.01488329 C9.08214158,1.18906098 8.50674286,0.423156346 7.18959907,1.08944566 C6.94947108,1.21089284 6.80620453,0.0505831099 8.21812276,0.0505831099 C9.4404921,0.0505831099 9.65692648,0.90978018 9.4404921,1.01488329 Z" id="Shape" fill="#51362A"></path>
                        </g>
                        <path d="M8.86951291,11.1000101 C8.12064749,11.1000101 7.66960953,10.5564803 7.66960953,10.819417 C7.66960953,11.0824731 7.88616668,11.5822199 8.86951291,11.5822199 C9.85285914,11.5822199 10.0694163,11.0824731 10.0694163,10.819417 C10.0694163,10.556361 9.61825556,11.1000101 8.86951291,11.1000101 Z" id="Shape" fill="#FCBC85"></path>
                        <path d="M8.86951291,13.5300443 C8.61047913,13.5300443 8.45444504,13.3237812 8.45444504,13.4236408 C8.45444504,13.5235004 8.52933158,13.7130113 8.86951291,13.7130113 C9.20969423,13.7130113 9.28445801,13.5235004 9.28445801,13.4236408 C9.28445801,13.3237812 9.12842392,13.5300443 8.86951291,13.5300443 Z" id="Shape" fill="#FCBC85"></path>
                        <path d="M8.86951291,12.8481099 C7.6826226,12.8481099 6.96751751,12.3784267 6.96751751,12.4974878 C6.96751751,12.616549 7.31076795,13.08492 8.86951291,13.08492 C10.4282579,13.08492 10.7715083,12.616549 10.7715083,12.4974878 C10.7713855,12.3784267 10.0564032,12.8481099 8.86951291,12.8481099 Z" id="Shape" fill="#F7945E"></path>
                    </g>
                    <path d="M9,19 L9,23 L0,23 C0,21.3809061 4.74060229,19 9,19 Z" id="Shape" fill="#F7941E"></path>
                    <path d="M9,19 L9,23 L18,23 C18,21.3809061 13.2593977,19 9,19 Z" id="Shape" fill="#F7941E"></path>
                    <path d="M8.45622976,19 C7.64197866,19 6.80824896,19.1554044 6,19.4205969 C6.00543589,19.4303386 6.89646894,21 8.45622976,21 C9.90059115,21 10.8608186,19.6557909 11,19.449049 C10.1644583,19.1659193 9.29992526,19 8.45622976,19 Z" id="Shape" fill="#F36C21"></path>
                    <path d="M7,19.3163323 C7,19.3163323 7.58499745,20 8.99993196,20 C10.4148665,20 11,19.3163323 11,19.3163323 C11,19.3163323 8.9250893,18.6045846 7,19.3163323 Z" id="Shape" fill="#FDCC9B"></path>
                    <path d="M14.5613902,2.20226297 C14.5613902,2.20226297 11.9834513,-0.908622056 6.62537262,0.26432132 C1.26741579,1.43714903 0.865937499,4.49714213 1.02708913,7.4742045 C1.18824076,10.4513825 1.61785665,12.1979011 2.12603851,11.9820731 C2.63422038,11.7661293 2.36977579,9.80100678 2.423493,9.34749027 C2.47721021,8.89397375 2.96054331,6.84302888 6.21926563,7.14907445 C9.47786615,7.45512003 12.2238997,6.33306859 12.2238997,6.33306859 C12.2238997,6.33306859 13.3293049,7.65984439 14.0567407,7.91407273 C15.5103942,8.42195108 15.0336387,11.8084622 15.6032117,11.8084622 C16.1727847,11.8084622 18.9654706,3.98718183 14.5613902,2.20226297 Z" id="Shape" fill="#51362A"></path>
                </g>
            </g>
        </g>
    </g>
</svg>